<svg xmlns="http://www.w3.org/2000/svg" version="1.0" viewBox="0 0 512.000000 512.000000">

    <g transform="translate(0.000000,512.000000) scale(0.100000,-0.100000)" fill="currentColor" stroke="none">
        <path d="M3480 5104 c-223 -48 -408 -236 -456 -464 -11 -53 -14 -97 -9 -150 3 -41 7 -87 8 -102 2 -25 -42 -56 -596 -428 l-598 -401 -69 64 c-270 255 -643 347 -995 245 -512 -148 -835 -653 -750 -1173 49 -306 234 -572 511 -739 32 -20 62 -36 67 -36 4 0 7 83 7 184 0 207 8 264 50 354 54 116 194 224 310 239 49 7 52 19 6 27 -47 9 -120 60 -156 109 -111 151 -53 372 119 450 64 30 178 30 242 0 172 -78 230 -299 119 -450 -36 -49 -109 -100 -156 -109 -46 -8 -43 -20 6 -27 116 -15 256 -123 310 -239 42 -90 50 -147 50 -354 0 -101 3 -184 6 -184 12 0 130 73 184 115 32 24 87 76 122 115 36 38 69 70 74 70 6 0 608 -325 623 -336 2 -2 -10 -45 -27 -96 -179 -543 -2 -1142 443 -1495 l80 -63 7 182 c6 187 15 235 58 338 74 174 229 328 405 402 57 24 107 37 200 54 l40 7 -44 8 c-225 42 -391 278 -353 505 32 196 180 344 376 376 238 39 467 -131 508 -376 38 -227 -128 -463 -353 -505 l-44 -8 40 -7 c93 -17 143 -30 200 -54 176 -74 331 -228 405 -402 44 -105 52 -150 57 -337 l5 -182 77 59 c256 196 437 489 508 822 26 124 24 379 -5 515 -82 381 -315 702 -657 901 -192 112 -448 181 -675 182 -398 1 -799 -194 -1052 -512 l-45 -57 -309 169 c-170 93 -313 171 -318 173 -5 2 1 32 13 68 70 211 65 434 -14 657 -21 57 -35 105 -34 106 2 2 268 179 590 395 l587 393 58 -48 c238 -193 576 -174 795 45 238 238 238 604 0 842 -149 149 -347 207 -551 163z"/>
        <path d="M978 2389 c-23 -12 -46 -35 -58 -59 -18 -36 -20 -59 -20 -273 l0 -235 75 -7 c41 -4 109 -4 150 0 l75 7 0 235 c0 215 -2 237 -20 273 -37 73 -127 99 -202 59z"/>
        <path d="M3688 1789 c-43 -22 -78 -81 -78 -129 0 -50 35 -107 80 -130 21 -11 53 -20 70 -20 76 0 150 74 150 150 0 50 -35 107 -80 130 -49 25 -94 25 -142 -1z"/>
        <path d="M3671 899 c-128 -25 -257 -125 -311 -241 -43 -91 -50 -146 -50 -373 l0 -203 68 -20 c142 -43 233 -57 382 -57 149 0 240 14 383 57 l67 20 0 203 c0 111 -5 226 -10 256 -47 244 -285 406 -529 358z"/>
    </g>
</svg>