<?xml version="1.0" encoding="UTF-8" standalone="no"?>
<svg
   xmlns:dc="http://purl.org/dc/elements/1.1/"
   xmlns:cc="http://creativecommons.org/ns#"
   xmlns:rdf="http://www.w3.org/1999/02/22-rdf-syntax-ns#"
   xmlns:svg="http://www.w3.org/2000/svg"
   xmlns="http://www.w3.org/2000/svg"
   version="1.1"
   id="svg2"
   viewBox="0 0 32 32.000001"
   height="32"
   width="32">
  <defs
     id="defs4" />
  <metadata
     id="metadata7">
    <rdf:RDF>
      <cc:Work
         rdf:about="">
        <dc:format>image/svg+xml</dc:format>
        <dc:type
           rdf:resource="http://purl.org/dc/dcmitype/StillImage" />
        <dc:title></dc:title>
      </cc:Work>
    </rdf:RDF>
  </metadata>
  <g
     transform="translate(0,-1020.3622)"
     id="layer1">
    <circle
       r="13.5"
       cy="1036.3622"
       cx="16"
       id="path4136"
       style="opacity:1;fill:none;fill-opacity:1;stroke:#000000;stroke-width:3;stroke-linecap:butt;stroke-linejoin:round;stroke-miterlimit:4;stroke-dasharray:none;stroke-dashoffset:0;stroke-opacity:1" />
    <text
       id="text4138"
       y="1038.7946"
       x="15.158602"
       style="font-style:normal;font-weight:normal;font-size:30px;line-height:125%;font-family:sans-serif;letter-spacing:0px;word-spacing:0px;fill:#000000;fill-opacity:1;stroke:none;stroke-width:1px;stroke-linecap:butt;stroke-linejoin:miter;stroke-opacity:1"
       xml:space="preserve"><tspan
         y="1038.7946"
         x="15.158602"
         id="tspan4140"></tspan></text>
    <g
       id="text4145"
       style="font-style:normal;font-weight:normal;font-size:30px;line-height:125%;font-family:sans-serif;letter-spacing:0px;word-spacing:0px;fill:#000000;fill-opacity:1;stroke:none;stroke-width:1px;stroke-linecap:butt;stroke-linejoin:miter;stroke-opacity:1">
      <path
         id="path4150"
         style="font-style:normal;font-variant:normal;font-weight:bold;font-stretch:condensed;line-height:125%;font-family:Arial;-inkscape-font-specification:'Arial Bold Condensed';letter-spacing:0px"
         d="m 17.585937,1041.7626 -3.061523,0 -0.01465,-0.9375 q 0,-1.8897 0.498047,-3.0616 0.498046,-1.1718 1.933593,-2.5781 1.59668,-1.582 1.918946,-2.1679 0.322265,-0.586 0.322265,-1.3623 0,-1.2745 -0.834961,-2.0948 -0.820312,-0.8203 -2.080078,-0.8203 -2.709961,0 -3.339844,3.6182 l -3.0908199,-0.4688 q 0.1318359,-2.7539 1.8896489,-4.5117 1.77246,-1.7725 4.438476,-1.7725 2.709961,0 4.511719,1.7725 1.801758,1.7725 1.801758,4.4238 0,1.3477 -0.629883,2.5635 -0.629883,1.2012 -2.709961,3.2959 -1.069336,1.084 -1.333008,1.7432 -0.249023,0.6592 -0.219727,2.3584 z m -3.061523,5.5371 0,-4.1162 3.383789,0 0,4.1162 -3.383789,0 z" />
    </g>
  </g>
</svg>
