<svg width="32" height="32" xmlns="http://www.w3.org/2000/svg">

 <g>
  <title>background</title>
  <rect fill="none" id="canvas_background" height="402" width="582" y="-1" x="-1"/>
 </g>
 <g>
  <title>Layer 1</title>
  <path fill="#484848" id="svg_2" d="m18.299999,17.299999l-3.299999,3.300001l-3.6,-3.6l3.3,-3.3c0.400001,-0.4 0.400001,-1 0,-1.4s-1,-0.400001 -1.4,0l-3.3,3.3l-1.3,-1.3c-0.4,-0.400001 -1,-0.400001 -1.4,0s-0.4,1 0,1.4l0.3,0.3l-2.8,2.799999c-1.2,1.1 -1.8,2.6 -1.8,4.200001c0,1.299999 0.4,2.4 1.1,3.5l-2.8,2.799999c-0.4,0.400002 -0.4,1 0,1.400002c0.2,0.199999 0.4,0.299999 0.7,0.299999s0.5,-0.1 0.7,-0.299999l2.8,-2.800001c1,0.700001 2.2,1.1 3.5,1.1c1.6,0 3.1,-0.6 4.2,-1.700001l2.8,-2.799999l0.299999,0.299999c0.200001,0.200001 0.5,0.300001 0.700001,0.300001s0.5,-0.1 0.700001,-0.300001c0.4,-0.4 0.4,-1 0,-1.4l-1.300001,-1.4l3.300001,-3.299999c0.4,-0.400002 0.4,-1 0,-1.400002s-1,-0.4 -1.400002,0z"/>
  <path fill="#484848" id="svg_3" d="m30.700001,1.3c-0.400002,-0.4 -1,-0.4 -1.400002,0l-2.799999,2.8c-1,-0.7 -2.200001,-1.1 -3.5,-1.1c-1.6,0 -3.1,0.6 -4.200001,1.7l-3.499999,3.5c-0.400001,0.400001 -0.400001,1 0,1.400001l6.999999,7c0.200001,0.199999 0.5,0.299999 0.700001,0.299999s0.5,-0.1 0.700001,-0.299999l3.5,-3.5c1.199999,-1 1.799999,-2.5 1.799999,-4.1c0,-1.3 -0.4,-2.4 -1.1,-3.5l2.800001,-2.8c0.4,-0.4 0.4,-1 0,-1.4z"/>
 </g>
</svg>