<svg xmlns="http://www.w3.org/2000/svg" data-name="Layer 1" viewBox="0 0 64 64" x="0px" y="0px"><path fill="currentColor" d="M17,34H34.17l-.58.59a2,2,0,1,0,2.82,2.82l4-4a2,2,0,0,0,0-2.82l-4-4a2,2,0,0,0-2.82,2.82l.58.59H17a7,7,0,0,1,0-14H34.2a10,10,0,1,0,0-4H17a11,11,0,0,0,0,22Z"/><path fill="currentColor" d="M45,32a2,2,0,0,0,2,2,7,7,0,0,1,0,14H29.8a10,10,0,1,0,0,4H47a11,11,0,0,0,0-22A2,2,0,0,0,45,32ZM24.41,49.41l-4,4a2,2,0,0,1-2.82,0l-2-2a2,2,0,0,1,2.82-2.82l.59.58,2.59-2.58a2,2,0,0,1,2.82,2.82Z"/></svg>