<svg width="32" height="19" xmlns="http://www.w3.org/2000/svg">
 <defs>
  <filter id="svg_2_blur">
   <feGaussianBlur stdDeviation="0" in="SourceGraphic"/>
  </filter>
 </defs>
 <g>
  <title>background</title>
  <rect fill="none" id="canvas_background" height="21" width="34" y="-1" x="-1"/>
 </g>
 <g>
  <title>Layer 1</title>
  <path fill="#484848" id="svg_1" d="m28,9.034411l-14,0l-10,0c-2.2,0 -4,1.8 -4,4s1.8,3.999961 4,3.999961l10,0l14,0c2.200001,0 4,-1.799989 4,-3.999961s-1.799999,-4 -4,-4zm-24,5.999974c-1.1,0 -2,-0.899988 -2,-1.999974s0.9,-2 2,-2l10,0c1.1,0 2,0.9 2,2s-0.9,1.999974 -2,1.999974l-10,0z"/>
  <text style="cursor: move;" font-weight="bold" filter="url(#svg_2_blur)" xml:space="preserve" text-anchor="start" font-family="Oswald, sans-serif" font-size="9" id="svg_2" y="7.640883" x="9.996482" stroke-width="0" stroke="#000" fill="#484848">XP</text>
 </g>
</svg>