<svg height="63" style="enable-background:new 0 0 512 512;" version="1.1" width="63" xml:space="preserve" xmlns="http://www.w3.org/2000/svg" xmlns:xlink="http://www.w3.org/1999/xlink">
<rect id="backgroundrect" width="100%" height="100%" x="0" y="0" fill="none" stroke="none" style="" class=""/>
<g class="currentLayer" style="">
<path d="M61.30564880371094,52.9526481628418 L39.873573303222656,31.520572662353516 l21.432079315185547,-21.432079315185547 c2.3138768672943115,-2.3138768672943115 2.3138768672943115,-6.039053916931152 0,-8.352931022644043 c-2.3138768672943115,-2.3138768672943115 -6.039053916931152,-2.3138768672943115 -8.352931022644043,0 L31.520645141601562,23.16764259338379 L10.088565826416016,1.7355637550354004 c-2.3138768672943115,-2.3138768672943115 -6.039053916931152,-2.3138768672943115 -8.352931022644043,0 c-2.3138768672943115,2.3138768672943115 -2.3138768672943115,6.039053916931152 0,8.352931022644043 L23.167713165283203,31.520572662353516 L1.7356348037719727,52.9526481628418 c-2.3138768672943115,2.3138768672943115 -2.3138768672943115,6.039053916931152 0,8.352931022644043 c2.3138768672943115,2.3138768672943115 6.039053916931152,2.3138768672943115 8.352931022644043,0 L31.520645141601562,39.873504638671875 l21.432079315185547,21.432079315185547 c2.3138768672943115,2.3138768672943115 6.039053916931152,2.3138768672943115 8.352931022644043,0 C63.603118896484375,58.99169921875 63.603118896484375,55.25011444091797 61.30564880371094,52.9526481628418 z" id="svg_1" class="" fill="#484848" fill-opacity="1"/>
</g></svg>