<svg width="45" height="42" viewBox="0 0 45 42" fill="none" xmlns="http://www.w3.org/2000/svg">
<g clip-path="url(#clip0_15_2)">
<path d="M8.94174 39.3508H4.42769C3.94881 39.3508 3.48954 39.1401 3.15092 38.765C2.8123 38.3899 2.62207 37.8812 2.62207 37.3508V4.35077C2.62207 3.82034 2.8123 3.31163 3.15092 2.93656C3.48954 2.56148 3.94881 2.35077 4.42769 2.35077H40.5401C41.019 2.35077 41.4783 2.56148 41.8169 2.93656C42.1555 3.31163 42.3457 3.82034 42.3457 4.35077V37.3508C42.3457 37.8812 42.1555 38.3899 41.8169 38.765C41.4783 39.1401 41.019 39.3508 40.5401 39.3508H36.0261C36.0261 39.3508 8.94175 39.3708 8.94175 39.3508H8.94174Z" stroke="#484848" stroke-width="3" stroke-linecap="round" stroke-linejoin="round"/>
<path d="M13.3717 7.1842H6.79272V15.8956H13.3717V7.1842Z" fill="#484848"/>
<path d="M38.0551 7.1842H16.6919V15.8956H38.0551V7.1842Z" fill="#484848"/>
</g>
<defs>
<clipPath id="clip0_15_2">
<rect width="45" height="42" fill="white"/>
</clipPath>
</defs>
</svg>
