<?xml version="1.0" encoding="UTF-8" standalone="no"?>
<svg
   xmlns:dc="http://purl.org/dc/elements/1.1/"
   xmlns:cc="http://creativecommons.org/ns#"
   xmlns:rdf="http://www.w3.org/1999/02/22-rdf-syntax-ns#"
   xmlns:svg="http://www.w3.org/2000/svg"
   xmlns="http://www.w3.org/2000/svg"
   version="1.1"
   id="svg2"
   viewBox="0 0 31.999999 32.000001"
   height="32"
   width="32">
  <defs
     id="defs4" />
  <metadata
     id="metadata7">
    <rdf:RDF>
      <cc:Work
         rdf:about="">
        <dc:format>image/svg+xml</dc:format>
        <dc:type
           rdf:resource="http://purl.org/dc/dcmitype/StillImage" />
        <dc:title></dc:title>
      </cc:Work>
    </rdf:RDF>
  </metadata>
  <g
     transform="translate(0,-1020.3622)"
     id="layer1">
    <g
       id="text4136"
       style="font-style:normal;font-weight:normal;font-size:40px;line-height:125%;font-family:sans-serif;letter-spacing:0;word-spacing:0;fill:#000000;fill-opacity:1;stroke:none;stroke-width:1px;stroke-linecap:butt;stroke-linejoin:miter;stroke-opacity:1">
      <path
         id="path4144"
         style="font-style:normal;font-variant:normal;font-weight:bold;font-stretch:normal;font-size:41.25px;font-family:Arial;-inkscape-font-specification:'Arial Bold'"
         d="m 17.804913,1043.6772 -5.136109,0 q -0.02014,-1.1077 -0.02014,-1.3494 0,-2.4976 0.825805,-4.1089 0.825806,-1.6114 3.303223,-3.6255 2.477417,-2.0142 2.960815,-2.6386 0.74524,-0.9869 0.74524,-2.1753 0,-1.6516 -1.329346,-2.8198 -1.309204,-1.1883 -3.544922,-1.1883 -2.155151,0 -3.605347,1.2286 -1.450195,1.2286 -1.994018,3.7463 l -5.1965334,-0.6445 q 0.2215576,-3.6053 3.0615234,-6.123 2.860107,-2.5177 7.492676,-2.5177 4.874267,0 7.754516,2.5579 2.880249,2.5379 2.880249,5.9217 0,1.8731 -1.067504,3.5449 -1.047364,1.6717 -4.511719,4.552 -1.792603,1.4905 -2.235718,2.3968 -0.422974,0.9064 -0.38269,3.2428 z m -5.136109,7.6136 0,-5.6598 5.65979,0 0,5.6598 -5.65979,0 z" />
    </g>
  </g>
</svg>
