<svg width="25" height="25" xmlns="http://www.w3.org/2000/svg">

 <g>
  <title>background</title>
  <rect fill="none" id="canvas_background" height="27" width="27" y="-1" x="-1"/>
 </g>
 <g>
  <title>Layer 1</title>
  <path fill="#484848" id="svg_1" d="m7.49424,1.49424l-4,0c-1.105,0 -2,0.895 -2,2l0,4c0,1.105 0.895,2 2,2l4,0c1.105,0 2,-0.895 2,-2l0,-4c0,-1.105 -0.895,-2 -2,-2zm0,6l-4,0l0,-4l4,0l0,4zm-1,-1l-2,0l0,-2l2,0l0,2z"/>
  <path fill="#484848" id="svg_2" d="m7.49424,15.494241l-4,0c-1.105,0 -2,0.895 -2,1.999999l0,4c0,1.105 0.895,2 2,2l4,0c1.105,0 2,-0.895 2,-2l0,-4c0,-1.105 -0.895,-1.999999 -2,-1.999999zm0,5.999999l-4,0l0,-4l4,0l0,4zm-1,-1l-2,0l0,-2l2,0l0,2z"/>
  <path fill="#484848" id="svg_3" d="m21.49424,1.49424l-4,0c-1.105,0 -1.999999,0.895 -1.999999,2l0,4c0,1.105 0.895,2 1.999999,2l4,0c1.105,0 2,-0.895 2,-2l0,-4c0,-1.105 -0.895,-2 -2,-2zm0,6l-4,0l0,-4l4,0l0,4zm-1,-1l-2,0l0,-2l2,0l0,2z"/>
  <rect fill="#484848" id="svg_4" y="3.49424" x="11.49424" width="2" height="2"/>
  <rect fill="#484848" id="svg_5" y="7.49424" x="11.49424" width="2" height="2"/>
  <rect fill="#484848" id="svg_6" y="11.49424" x="11.49424" width="2" height="2"/>
  <rect fill="#484848" id="svg_7" y="11.49424" x="7.49424" width="2" height="2"/>
  <rect fill="#484848" id="svg_8" y="11.49424" x="3.49424" width="2" height="2"/>
  <rect fill="#484848" id="svg_9" y="11.49424" x="15.49424" width="2" height="2"/>
  <rect fill="#484848" id="svg_10" y="11.49424" x="19.49424" width="2" height="2"/>
  <rect fill="#484848" id="svg_11" y="13.49424" x="13.49424" width="2" height="2"/>
  <rect fill="#484848" id="svg_12" y="13.49424" x="17.49424" width="2" height="2"/>
  <rect fill="#484848" id="svg_13" y="15.49424" x="15.49424" width="2" height="2"/>
  <rect fill="#484848" id="svg_14" y="15.49424" x="11.49424" width="2" height="2"/>
  <rect fill="#484848" id="svg_15" y="17.49424" x="13.49424" width="2" height="2"/>
  <rect fill="#484848" id="svg_16" y="19.49424" x="15.49424" width="2" height="2"/>
  <rect fill="#484848" id="svg_17" y="21.49424" x="13.49424" width="2" height="2"/>
  <rect fill="#484848" id="svg_18" y="13.49424" x="21.49424" width="2" height="2"/>
  <rect fill="#484848" id="svg_19" y="17.49424" x="21.49424" width="2" height="2"/>
  <rect fill="#484848" id="svg_20" y="17.49424" x="17.49424" width="2" height="2"/>
  <rect fill="#484848" id="svg_21" y="21.49424" x="17.49424" width="2" height="2"/>
  <rect fill="#484848" id="svg_22" y="19.49424" x="19.49424" width="2" height="2"/>
  <rect fill="#484848" id="svg_23" y="15.49424" x="19.49424" width="2" height="2"/>
  <rect fill="#484848" id="svg_24" y="19.49424" x="11.49424" width="2" height="2"/>
 </g>
</svg>