<svg xmlns="http://www.w3.org/2000/svg" width="896" height="836" viewBox="0 0 896 836">
  <defs>
    <style>
      .cls-1 {
        fill: #B7BABF;
      }

      .cls-1, .cls-2, .cls-3 {
        fill-rule: evenodd;
      }

      .cls-2 {
        fill: #6F767F;
      }

      .cls-3 {
        fill: #4C545F;
      }
    </style>
  </defs>
  <path id="Color_Fill_3" data-name="Color Fill 3" class="cls-1" d="M156,356L300,499,443,356h4L590,499,733,356,877,500l2,1L735,646,590,502l-62,62-83,81L302,502h-3L156,646,11,502Z"/>
  <path id="Color_Fill_2" data-name="Color Fill 2" class="cls-2" d="M300,212c15.8,5.192,30.712,28.712,42,40L445,354,587,212h3q72.492,72.494,145,145L591,502h-2L445,359,302,502h-2L155,358Z"/>
  <path id="Color_Fill_1" data-name="Color Fill 1" class="cls-3" d="M300,212l290,1L447,357h-4Z"/>
</svg>
