<svg xmlns="http://www.w3.org/2000/svg" viewBox="0 0 240 240" fill="none">
	<path d="M194 209.139C193.978 210.676 193.654 212.194 193.045 213.606C192.437 215.018 191.556 216.296 190.453 217.368C189.351 218.439 188.048 219.283 186.619 219.851C185.191 220.419 183.664 220.7 182.127 220.678H57.8734C56.3361 220.7 54.8095 220.419 53.3808 219.851C51.952 219.283 50.6492 218.439 49.5466 217.368C48.444 216.296 47.5633 215.018 46.9548 213.606C46.3462 212.194 46.0218 210.676 46 209.139V31.6226C46.0218 30.0853 46.3462 28.5673 46.9548 27.1554C47.5633 25.7434 48.444 24.4652 49.5466 23.3937C50.6492 22.3222 51.952 21.4783 53.3808 20.9104C54.8095 20.3424 56.3361 20.0615 57.8734 20.0836H137.727L194 76.1898V209.139Z" fill="#6F767F"/>
	<path d="M143.914 74.7684L194 121.342L193.833 76.1062L143.914 74.7684Z" fill="#4C545F"/>
	<path d="M194 76.1062H149.516C147.979 76.1283 146.452 75.8474 145.024 75.2795C143.595 74.7115 142.292 73.8677 141.19 72.7962C140.087 71.7246 139.206 70.4464 138.598 69.0345C137.989 67.6225 137.665 66.1046 137.643 64.5672V20L194 76.1062Z" fill="#B7BABF"/>
	<path d="M124.766 174.271V164.237H148.931V174.271H124.766ZM90.9853 164.237H115.15V174.271H90.9853V164.237ZM115.234 157.297H91.0689V146.511H115.234V157.297ZM115.234 127.948V139.487H91.0689V127.948H115.234ZM124.766 146.511H148.931V157.297H124.766V146.511ZM148.931 139.487H124.766V127.948H148.931V139.487ZM81.5367 118.667V183.636H158.547V118.667H81.5367Z" fill="#B7BABF"/>
</svg>