<?xml version="1.0" encoding="UTF-8" standalone="no"?>
<svg
   xmlns:dc="http://purl.org/dc/elements/1.1/"
   xmlns:cc="http://creativecommons.org/ns#"
   xmlns:rdf="http://www.w3.org/1999/02/22-rdf-syntax-ns#"
   xmlns:svg="http://www.w3.org/2000/svg"
   xmlns="http://www.w3.org/2000/svg"
   xmlns:sodipodi="http://sodipodi.sourceforge.net/DTD/sodipodi-0.dtd"
   xmlns:inkscape="http://www.inkscape.org/namespaces/inkscape"
   width="210mm"
   height="297mm"
   viewBox="0 0 210 297"
   version="1.1"
   id="svg8"
   inkscape:version="1.0.2 (e86c8708, 2021-01-15)">
  <defs
     id="defs2" />
  <sodipodi:namedview
     id="base"
     pagecolor="#ffffff"
     bordercolor="#666666"
     borderopacity="1.0"
     inkscape:pageopacity="0.0"
     inkscape:pageshadow="2"
     inkscape:zoom="0.35"
     inkscape:cx="400"
     inkscape:cy="560"
     inkscape:document-units="mm"
     inkscape:current-layer="layer1"
     inkscape:document-rotation="0"
     showgrid="false"
     inkscape:window-width="1252"
     inkscape:window-height="943"
     inkscape:window-x="0"
     inkscape:window-y="23"
     inkscape:window-maximized="0" />
  <metadata
     id="metadata5">
    <rdf:RDF>
      <cc:Work
         rdf:about="">
        <dc:format>image/svg+xml</dc:format>
        <dc:type
           rdf:resource="http://purl.org/dc/dcmitype/StillImage" />
        <dc:title></dc:title>
      </cc:Work>
    </rdf:RDF>
  </metadata>
  <g
     inkscape:label="Layer 1"
     inkscape:groupmode="layer"
     id="layer1">
    <path
       style="fill:#040404;stroke:none;stroke-width:0.282222"
       d="m 90.986871,63.970867 c -3.141416,1.3712 -0.933873,6.1578 2.217138,4.8543 3.221284,-1.33248 0.981004,-6.25026 -2.217138,-4.8543 m 30.177179,54.199613 c 4.61122,2.12824 10.74335,0.47668 11.25361,-5.36222 0.23904,-2.73783 -0.61779,-5.52196 -1.15006,-8.18444 -1.07978,-5.401173 -1.95947,-10.567533 -5.09411,-15.240003 -1.26125,-1.88016 -2.85242,-3.4842 -4.445,-5.08 -0.89549,-0.89721 -2.08111,-1.8299 -2.42372,-3.10444 -0.34911,-1.2995 -0.11628,-2.89685 -0.11628,-4.23334 v -8.46666 c 0,-1.78122 0.17103,-4.04735 -1.97866,-4.64956 -1.54968,-0.43406 -3.04461,0.54607 -3.3226,2.10981 -0.64601,3.63451 -0.061,7.87787 -0.061,11.57086 0,2.02621 -0.50659,4.87256 0.26896,6.77333 0.59407,1.45562 2.03312,2.58374 3.1177,3.66889 1.85703,1.85759 3.66833,3.67707 5.05573,5.92666 2.00491,3.25064 2.50698,7.051333 3.24161,10.724453 0.40555,2.0272 1.86295,5.6182 1.09276,7.60786 -0.61806,1.5971 -2.28628,1.33209 -2.99917,-0.009 -0.96887,-1.82202 -0.69371,-4.12976 -1.89259,-5.8801 -1.34591,-1.96511 -4.61292,-1.85335 -5.75705,0.27658 -0.87234,1.62334 -0.43462,4.12214 -0.43462,5.90663 v 13.54666 c 0,1.60698 0.75523,5.95828 -1.42889,6.4739 -2.08534,0.49276 -1.95721,-2.73812 -1.95777,-3.9339 -0.001,-3.02852 0.53565,-6.63278 -0.11459,-9.5947 -0.33923,-1.54517 -1.70123,-2.4559 -3.26898,-2.17142 -1.74639,0.31693 -2.20133,2.04131 -2.25298,3.58168 -0.12897,3.8481 -0.008,7.72075 -0.008,11.57111 0,1.37273 0.4922,4.41283 -1.41421,4.79355 -2.2829,0.45607 -1.97245,-3.54613 -1.97245,-4.79355 0,-3.94998 0.0502,-7.90363 -0.001,-11.85333 -0.0215,-1.64846 -0.63218,-3.25459 -2.53888,-3.34631 -1.387117,-0.0666 -2.519957,0.85937 -2.761257,2.2177 -0.537069,3.02175 -0.05701,6.52583 -0.06096,9.59527 -0.0017,1.22654 0.141111,3.54641 -1.451187,3.9339 -2.007164,0.48853 -1.934915,-2.48384 -1.93548,-3.65167 -0.0014,-3.03671 0.341771,-6.30259 -0.06435,-9.31334 -0.173848,-1.29032 -0.820419,-2.48524 -2.196535,-2.73501 -4.392506,-0.797 -3.351389,5.54341 -3.384691,8.09724 -0.01467,1.10913 -0.319758,3.20491 -1.954671,2.84113 -1.136509,-0.25287 -1.380631,-1.59145 -1.422118,-2.55891 -0.119944,-2.81178 -0.0087,-5.65207 -0.0087,-8.46667 v -11.00671 c 0,-4.06711 0.03358,-8.085103 1.792393,-11.853343 1.078371,-2.31055 2.723162,-4.3513 4.448951,-6.20888 1.044222,-1.12409 2.543951,-2.20083 3.115733,-3.66889 0.309315,-0.79378 0.237349,-1.70502 0.238478,-2.54 0.0023,-1.80538 0.4064,-4.21928 -0.276578,-5.92258 -0.665198,-1.65887 -2.713285,-2.34188 -4.15798,-1.19264 -2.423442,1.92783 -0.234244,5.67264 -1.88976,7.96188 -2.236893,3.09313 -4.941429,5.48189 -6.566464,9.03112 -3.574909,7.8088 -2.349218,17.320823 -2.349218,25.682223 0,4.25224 -1.16078,10.61353 1.800014,14.10236 1.048737,1.23557 2.519679,2.15589 4.126653,2.44263 1.025313,0.18316 2.34442,-0.14901 3.260513,0.43067 1.595966,1.00979 2.198793,2.93257 4.077264,3.79645 1.568873,0.72165 3.565031,0.0672 4.958644,0.77442 0.804051,0.4081 1.233876,1.44667 1.878754,2.05402 1.686562,1.58862 4.157412,2.36163 6.427042,1.8858 1.37725,-0.28871 2.62044,-0.84553 3.64914,-1.82089 0.67903,-0.64375 1.20368,-1.70914 2.06756,-2.11893 0.80349,-0.38128 1.88384,-0.0739 2.74998,-0.19247 2.00998,-0.27573 3.89607,-1.31488 5.03681,-3.01273 1.45345,-2.16379 1.4543,-4.82853 1.4543,-7.33467 v -9.87778 m 2.54,21.44889 c -4.35949,0 -7.23054,1.27875 -8.74889,5.64445 -4.31659,-0.74733 -8.117,2.76775 -8.17373,7.05555 -0.0203,1.5319 1.10321,3.07933 0.9144,4.51556 -0.12107,0.91948 -0.8557,1.6953 -1.19775,2.54 -0.80236,1.98091 -0.67987,4.30699 0.2873,6.20888 1.02983,2.02467 2.91028,3.01611 4.78311,4.12242 3.09739,1.82993 6.30513,3.49815 9.31333,5.47314 -5.68818,3.04772 -5.0069,11.06706 0.84667,13.48458 6.51679,2.69127 13.78599,5.2561 20.88444,5.13926 2.06023,-0.0341 4.22741,-0.49502 6.20889,-1.04563 1.28694,-0.35758 2.8798,-1.05438 4.23334,-0.85175 2.84056,0.42503 5.20417,3.20774 7.90222,4.15064 1.50735,0.52691 3.26079,0.22183 3.88225,-1.41252 0.43942,-1.1557 0.026,-2.34329 -0.85881,-3.15355 -1.1032,-1.01064 -2.59136,-1.66652 -3.87011,-2.42513 -1.6795,-0.99625 -3.49532,-2.34442 -5.36222,-2.94302 -3.42674,-1.09841 -7.83336,1.63717 -11.28889,1.9829 -5.04134,0.50461 -9.43807,-1.27875 -14.11111,-2.8592 -1.7938,-0.60649 -5.33767,-1.08006 -6.42959,-2.77255 -0.82888,-1.28496 0.71064,-2.424 1.91432,-2.31224 2.65909,0.24638 8.08058,3.22975 8.94588,-1.31318 0.10329,-0.54187 0.0847,-1.14978 -0.0454,-1.68544 -0.4795,-1.97329 -2.79626,-2.87556 -4.38517,-3.79842 -4.13371,-2.40087 -8.26685,-4.80371 -12.41778,-7.17437 -1.38486,-0.79107 -2.96446,-1.50086 -4.18902,-2.53267 -0.57348,-0.48344 -1.14865,-1.18956 -0.80462,-1.98007 0.81337,-1.86972 3.06409,-0.26134 4.14698,0.35786 2.6574,1.51977 5.53042,3.80859 8.46666,4.70041 1.54799,0.47018 3.38018,-0.31214 3.73267,-1.99926 0.34996,-1.67527 -1.05579,-2.88431 -2.3224,-3.65986 -3.14283,-1.92419 -6.39629,-3.70163 -9.59471,-5.5324 -1.11506,-0.63811 -4.41791,-1.97443 -3.59805,-3.7417 0.94968,-2.04753 3.87575,0.24101 5.00916,0.91045 3.26446,1.92814 6.53824,3.89212 9.87778,5.6879 1.38797,0.7462 3.0971,1.22795 4.36851,-0.0522 1.0795,-1.08684 0.77442,-2.92777 -0.21928,-3.94716 -2.13953,-2.19569 -5.75705,-3.51931 -8.38257,-5.0752 -0.97225,-0.5763 -2.9876,-1.45598 -2.57556,-2.91253 0.53312,-1.88497 2.66898,-0.68326 3.70445,-0.0999 2.08139,1.17292 4.1402,2.39183 6.20889,3.58789 1.13228,0.65447 2.31027,1.48957 3.66889,1.51412 1.89032,0.0341 3.2845,-1.7986 2.5829,-3.60849 -0.40753,-1.05128 -1.37838,-1.69136 -2.30096,-2.25298 -1.21186,-0.73773 -2.47509,-1.39051 -3.66748,-2.16154 -1.04224,-0.67366 -2.98534,-2.97208 -0.55372,-3.40727 0.889,-0.15917 1.8003,0.51252 2.52815,0.92569 1.7018,0.9652 3.39231,1.9479 5.08,2.93709 3.65111,2.14037 7.33354,4.23164 11.00666,6.33363 3.87604,2.21855 7.7439,4.50398 10.23903,8.34672 1.31092,2.01873 2.08872,4.19326 2.74291,6.49111 0.43124,1.51412 0.64037,3.26221 1.77462,4.44246 0.98015,1.01967 2.3828,1.62927 3.58789,2.33567 1.9208,1.12607 4.03408,2.79259 6.20889,3.35449 1.40772,0.36379 2.85891,-0.27573 3.3892,-1.67019 0.60565,-1.59286 -0.45945,-2.85101 -1.70462,-3.69739 -2.15223,-1.46304 -5.87587,-2.50642 -7.26553,-4.8006 -0.82465,-1.36144 -1.04168,-3.26023 -1.57423,-4.76222 -0.85316,-2.40594 -2.14122,-4.77068 -3.72675,-6.77333 -3.05392,-3.85741 -7.22347,-6.18829 -11.41363,-8.58661 -4.05497,-2.32128 -8.07804,-4.699 -12.13555,-7.01576 -4.43428,-2.53154 -10.47073,-6.29723 -14.47716,-0.7637 -0.56585,0.78148 -0.85908,1.60472 -1.04506,2.53718 m -51.364451,6.20889 c -0.01976,-1.39051 -0.209973,-2.69776 -0.859367,-3.95083 -2.313657,-4.46334 -8.005515,-4.44359 -11.55841,-1.68486 -5.004364,3.88507 -10.898462,8.49742 -14.016792,14.10236 -1.237855,2.22504 -2.027428,4.61602 -2.714921,7.05555 -0.352383,1.25025 -0.492308,2.81968 -1.278975,3.88705 -1.726804,2.34272 -5.389625,3.14141 -7.630303,4.92816 -1.284742,1.02447 -1.860271,2.71921 -0.717787,4.10887 0.803625,0.97762 2.06036,1.1749 3.216557,0.79107 1.979591,-0.65729 3.857159,-2.04583 5.644444,-3.10162 1.205794,-0.71233 2.582587,-1.31967 3.625652,-2.2685 1.128325,-1.02616 1.399032,-2.42118 1.781246,-3.82947 0.565347,-2.08309 1.100469,-4.18197 1.848894,-6.20889 1.870569,-5.06617 6.3338,-8.38962 10.241985,-11.83781 1.301891,-1.14865 3.045742,-3.33333 4.794673,-3.72759 1.32588,-0.29916 2.178191,1.11675 1.607255,2.24564 -1.016,2.00886 -3.523544,2.96446 -4.401255,5.13531 -1.013008,2.50614 1.303867,5.20672 3.925993,4.62929 2.158436,-0.47498 4.327313,-2.159 6.208889,-3.27518 3.455811,-2.04978 6.954802,-4.03606 10.442221,-6.03194 1.253349,-0.71713 4.642274,-3.51931 5.96646,-1.94536 1.302738,1.54884 -1.247704,2.86907 -2.297571,3.47783 -2.680264,1.55391 -6.112651,2.93962 -8.382564,5.06278 -1.075266,1.00584 -1.222869,2.79767 -0.219287,3.92515 1.207347,1.35692 2.983654,0.85372 4.368518,0.11684 3.353647,-1.78449 6.585655,-3.82242 9.877777,-5.71782 1.154571,-0.66464 3.399649,-2.52307 4.672471,-1.24545 1.719862,1.72579 -1.871415,3.31188 -2.979137,3.94603 -3.383845,1.93717 -6.880013,3.76202 -10.156895,5.87587 -1.420989,0.91694 -2.652889,2.37095 -1.787878,4.1433 0.694831,1.42438 2.370384,1.74216 3.760329,1.23811 2.848468,-1.0335 5.559213,-3.13662 8.184444,-4.64453 1.056075,-0.60678 2.712155,-1.85956 3.822982,-0.68637 1.435382,1.51582 -1.37668,2.95205 -2.411871,3.54895 -2.50698,1.44611 -5.297876,2.72542 -7.611251,4.46899 -1.09474,0.82522 -1.954107,2.01676 -1.4224,3.43041 1.561253,4.14951 6.5278,0.16707 8.751428,-1.08402 0.983545,-0.55315 3.013569,-1.55843 3.441418,0.26134 0.253153,1.07668 -0.997656,1.88976 -1.749213,2.38845 -2.349218,1.55899 -4.90982,2.81968 -7.336649,4.25309 -3.27406,1.93378 -6.576342,3.82749 -9.877777,5.71387 -3.227211,1.84432 -6.402211,3.70811 -10.16,4.18592 -2.580075,0.32794 -5.119228,-0.0325 -7.619999,-0.65222 -1.879854,-0.46595 -3.994009,-1.31515 -5.926666,-0.69568 -1.803175,0.57828 -3.447683,1.8336 -5.08,2.76776 -1.435072,0.82126 -3.230344,1.55758 -4.376138,2.77763 -1.1522,1.22682 -1.094655,3.3909 0.468263,4.27764 1.252474,0.71063 2.750199,0.16482 3.907875,-0.45127 2.059799,-1.09616 4.923056,-3.74566 7.337777,-3.64857 1.316793,0.0531 2.65859,0.59887 3.951111,0.84666 2.398607,0.45946 4.898249,0.68834 7.337777,0.45579 8.310598,-0.79276 15.547057,-6.37963 22.577777,-10.42726 2.258907,-1.30048 4.524869,-2.58713 6.773333,-3.90567 1.738768,-1.01996 3.509428,-1.92504 4.627028,-3.6768 1.19352,-1.87056 1.33153,-4.40548 0.62456,-6.488 -0.3096,-0.9113 -1.14102,-1.84207 -1.13989,-2.82222 0.002,-1.84545 1.40151,-3.34095 1.19097,-5.36223 -0.18146,-1.74385 -1.81553,-3.4036 -1.68571,-5.08 0.0745,-0.96209 0.63528,-1.86464 0.79474,-2.82222 0.36181,-2.17254 -0.3381,-4.49777 -1.7907,-6.14567 -0.91214,-1.03462 -2.139245,-1.72014 -3.467665,-2.05853 -0.859931,-0.21928 -1.952977,-0.14365 -2.661073,-0.74704 -0.694549,-0.59125 -1.010638,-1.60246 -1.562382,-2.31986 -1.170658,-1.52259 -2.914791,-2.4782 -4.807655,-2.74574 -2.427111,-0.34319 -4.454031,0.76115 -6.491111,1.92278 -3.114322,1.77574 -6.244166,4.04452 -9.595555,5.32073 z"
       id="path939"
       inkscape:export-xdpi="93.309799"
       inkscape:export-ydpi="93.309799" />
  </g>
</svg>
