<svg width="65" height="65" xmlns="http://www.w3.org/2000/svg">

 <g>
  <title>background</title>
  <rect fill="none" id="canvas_background" height="67" width="67" y="-1" x="-1"/>
 </g>
 <g>
  <title>Layer 1</title>
  <path fill="#484848" transform="rotate(-90, 31.1445, 32.5)" id="svg_1" d="m54.143761,43.498905l0,-12l-22,0l0,-10l7,0l0,-16l-16,0l0,16l7,0l0,10l-21.999999,0l0,12l-7,0l0,16l15.999999,0l0,-16l-6.999999,0l0,-10l19.999999,0l0,10l-7,0l0,16l16,0l0,-16l-7,0l0,-10l20,0l0,10l-7,0l0,16l16,0l0,-16l-7,0zm-29,-36l12,0l0,12l-12,0l0,-12zm-9.999999,50l-12,0l0,-12l12,0l0,12zm21.999999,0l-12,0l0,-12l12,0l0,12zm22,0l-12,0l0,-12l12,0l0,12z"/>
 </g>
</svg>