<svg width="368" height="430.99999999999994" xmlns="http://www.w3.org/2000/svg">

 <g>
  <title>background</title>
  <rect fill="none" id="canvas_background" height="433" width="370" y="-1" x="-1"/>
 </g>
 <g>
  <title>Layer 1</title>
  <path fill="#484848" id="svg_2" d="m85.217903,240.807068c-0.199997,0 -0.399994,-0.100006 -0.600006,-0.100006l-0.599991,0.100006c-24.5,1.5 -43.900002,21.899994 -43.900002,46.800018c0,12.099976 4.599998,23.099976 12.099998,31.399963l4.699997,4.900024c7.100006,7.799988 20.400009,23.700012 27.100006,40.399994c0.199997,0.5 0.399994,1.100006 0.599991,1.600006l0.600006,-1.700012c6.699997,-16.699982 20,-32.599976 27,-40.299988l4.699997,-4.899994c7.5,-8.300018 12.100014,-19.300018 12.100014,-31.399994c0,-24.900024 -19.300011,-45.300018 -43.800011,-46.800018z"/>
  <path fill="#484848" id="svg_3" d="m108.217903,342.907074c-3.5,4.600006 -7.100006,9.899994 -10.100006,15.399994c2.900009,3.200012 4.5,7.5 4.5,11.899994c0,9.5 -7.299988,17.300018 -16.599991,18l-4.300003,-0.199982c-8.600006,-1.399994 -15.100006,-8.800018 -15.100006,-17.800018c0,-4.399994 1.600006,-8.599976 4.400009,-11.899994l0,0c-3,-5.5 -6.600006,-10.699982 -10.100006,-15.399994c-7.899994,6.799988 -12.5,16.799988 -12.5,27.299988c0,20 16.199997,36.200012 36.100006,36.200012c19.899994,0 36.099991,-16.200012 36.099991,-36.200012c0.100006,-10.5 -4.5,-20.5 -12.399994,-27.299988z"/>
  <path fill="#484848" id="svg_4" d="m293.317902,105.607048l0,31.299995c0,10 -8.100006,18.100006 -18.100006,18.100006c-10,0 -18.099976,-8.100006 -18.099976,-18.100006l0,-31.299995c-10.800018,6.300003 -18,17.899994 -18,31.299995c0,10.299988 4.299988,19.5 11.199982,26.100006l-37.200012,52.700012c-4.299988,-1.800018 -9.100006,-2.800018 -14,-2.800018c-6,0 -11.699982,1.5 -16.799988,4.100006l-73.999992,-45.899994c-2.599991,-17.400024 -17.600006,-30.800018 -35.700012,-30.800018c-19.899994,0 -36.099983,16.200012 -36.099983,36.100006c0,17 11.900002,31.299988 27.799995,35.100006l2.100006,24.100006c5.300003,-2.200012 11.099991,-3.5 17.199997,-3.899994l0.699997,0l-1.800003,-20.600006c10.5,-2.900024 19.100006,-10.5 23.400009,-20.400024l62.79998,39.000031c-3.5,5.599976 -5.600006,12.099976 -5.600006,19.299988c0,19.899994 16.200012,36.100006 36.100006,36.100006c19.899994,0 36.100006,-16.200012 36.100006,-36.100006c0,-8.399994 -2.899994,-16.100006 -7.700012,-22.299988l38.700012,-54.900024c2.899994,0.800018 5.899994,1.200012 9,1.200012c19.899994,0 36.100006,-16.200012 36.100006,-36.100006c-0.100006,-13.399986 -7.300018,-25.099983 -18.100006,-31.299995zm-220.799995,88.799995c-9.900009,0 -18,-8.099976 -18,-18c0,-10 8.099991,-18 18,-18c10,0 18,8.100006 18,18c0,9.900024 -8,18 -18,18zm126.499977,72.600006c-9.899994,0 -18,-8.100006 -18,-18c0,-10 8.100006,-18 18,-18c10,0 18,8.100006 18,18c0,9.900024 -8.099976,18 -18,18z"/>
  <path fill="#484848" id="svg_5" d="m283.817902,28.20705c-1.100006,-3.699997 -4.5,-6.5 -8.600006,-6.5c-5,0 -9.099976,4.099998 -9.099976,9.099998l0,106.000019c0,5 4.099976,9.099976 9.099976,9.099976c5,0 9.100006,-4.099976 9.100006,-9.099976l0,-66.70002c19.899994,0.800003 32.5,-21.999996 54.800018,-13.299999c0,-16.799995 0,-25.099998 0,-41.899998c-22.600037,-8.700001 -35.200012,14.399998 -55.300018,13.299999z"/>
 </g>
</svg>