<svg xmlns="http://www.w3.org/2000/svg" width="600.013" height="600.013" viewBox="0 0 512 512">
  <defs>
    <style>
      .cls-1 {
        fill: #a7a3a0;
      }

      .cls-1, .cls-2 {
        fill-rule: evenodd;
      }

      .cls-2 {
        fill: #434343;
      }
    </style>
  </defs>
  <path id="Color_Fill_1" data-name="Color Fill 1" class="cls-1" d="M412,377l-61-1c0.717-43.492,11.434-148.759-22-156-15.277-3.309-28.937,3.522-34,11-13.362,19.734-6.531,112.19-6,146H229c0.579-47.283,10.7-130.773-15-154l2-3c15.119-6.746,21.893-23.08,32-35l2,2,10,7c14.723-30.54,93.055-23.768,119-8C424.574,213.7,412.689,304.446,412,377Zm-245,0-61-1c-0.2-38.222-6.75-110.119,2-142h1a183.417,183.417,0,0,0,60,6C163.2,281.157,166.96,332.389,167,377Z"/>
  <path id="Color_Fill_2" data-name="Color Fill 2" class="cls-2" d="M106,198l-62-2-1,53c3.305,16.707,14.459,52.164,6,74l-1-2c-19.663-27.558-9.221-81.6-7-124H32l-1-2,1-2,61-32c53.709-23.474,119.319-39.6,191-44l1,2-1,2-60,42,2,2,22,20c-24.129,45.589-77.589,65.777-141,49Q106.5,216,106,198Z"/>
</svg>
