<svg width="80" height="80" xmlns="http://www.w3.org/2000/svg">
 <title/>

 <g>
  <title>background</title>
  <rect fill="none" id="canvas_background" height="82" width="82" y="-1" x="-1"/>
 </g>
 <g>
  <title>Layer 1</title>
  <path id="svg_4" d="m73.47021,41.15396l-66.94072,0a3.86196,3 0 0 0 0,6l66.94072,0a3.86196,3 0 0 0 0,-6z" fill="#484848"/>
  <g id="svg_15">
   <g class="currentLayer" id="svg_14" transform="matrix(1.27909, 0, 0, 1.27909, 13.9615, 4.70974)">
    <title>Layer 1</title>
    <path d="m31.64389,9.23267l-9.40495,0l0,-9.40495c0,-1.03831 -0.84269,-1.88099 -1.88099,-1.88099s-1.881,0.84268 -1.881,1.88099l0,9.40495l-9.40495,0c-1.03831,0 -1.88099,0.84268 -1.88099,1.88099s0.84268,1.88099 1.88099,1.88099l9.40495,0l0,9.40496c0,1.0383 0.84269,1.88099 1.88099,1.88099s1.88099,-0.84269 1.88099,-1.88099l0,-9.40496l9.40496,0c1.03831,0 1.88099,-0.84268 1.88099,-1.88099s-0.84269,-1.88099 -1.88099,-1.88099z" id="svg_10" fill="#484848"/>
   </g>
  </g>
  <path id="svg_16" d="m73.47021,54.48567l-66.94072,0a3.86196,3 0 0 0 0,6l66.94072,0a3.86196,3 0 0 0 0,-6z" fill="#484848"/>
  <path id="svg_17" d="m73.47021,68.29352l-66.94072,0a3.86196,3 0 0 0 0,6l66.94072,0a3.86196,3 0 0 0 0,-6z" fill="#484848"/>
 </g>
</svg>