<svg width="80" height="80" xmlns="http://www.w3.org/2000/svg">
 <title/>

 <g>
  <title>background</title>
  <rect x="-1" y="-1" width="82" height="82" id="canvas_background" fill="none"/>
 </g>
 <g>
  <title>Layer 1</title>
  <path fill="#484848" d="m73.4711,3.77932l-66.94072,0a3.86196,3 0 0 0 0,6l66.94072,0a3.86196,3 0 0 0 0,-6z" id="svg_4"/>
  <g id="svg_15">
   <g transform="matrix(1.27909, 0, 0, 1.27909, 13.9615, 4.70974)" id="svg_14" class="currentLayer">
    <title>Layer 1</title>
    <path fill="#484848" id="svg_10" d="m32.05717,39.34707l-9.40495,0l0,-9.40495c0,-1.03831 -0.84269,-1.88099 -1.88099,-1.88099s-1.881,0.84268 -1.881,1.88099l0,9.40495l-9.40495,0c-1.03831,0 -1.88099,0.84268 -1.88099,1.88099s0.84268,1.88099 1.88099,1.88099l9.40495,0l0,9.40496c0,1.0383 0.84269,1.88099 1.88099,1.88099s1.88099,-0.84269 1.88099,-1.88099l0,-9.40496l9.40496,0c1.03831,0 1.88099,-0.84268 1.88099,-1.88099s-0.84269,-1.88099 -1.88099,-1.88099z"/>
   </g>
  </g>
  <path fill="#484848" d="m73.4711,17.11103l-66.94072,0a3.86196,3 0 0 0 0,6l66.94072,0a3.86196,3 0 0 0 0,-6z" id="svg_16"/>
  <path fill="#484848" d="m73.4711,30.91888l-66.94072,0a3.86196,3 0 0 0 0,6l66.94072,0a3.86196,3 0 0 0 0,-6z" id="svg_17"/>
 </g>
</svg>