<!-- <svg height="46" style="" version="1.1" width="46" xml:space="preserve" xmlns="http://www.w3.org/2000/svg" xmlns:xlink="http://www.w3.org/1999/xlink">
<rect id="backgroundrect" width="100%" height="100%" x="0" y="0" fill="none" stroke="none" style="" class=""/>
<g class="currentLayer" style=""><title>Layer 1</title><path fill="none" stroke="#484848" stroke-opacity="1" stroke-width="2" stroke-dasharray="none" stroke-linejoin="round" stroke-linecap="butt" stroke-dashoffset="" fill-rule="nonzero" opacity="1" marker-start="" marker-mid="" marker-end="" d="M1.5013264417648315,23.192480087280273 C1.5013264417648315,11.208752632141113 11.208137512207031,1.501944124698639 23.191865921020508,1.501944124698639 C35.17559814453125,1.501944124698639 44.88240432739258,11.208752632141113 44.88240432739258,23.192480087280273 C44.88240432739258,35.17620849609375 35.17559814453125,44.883018493652344 23.191865921020508,44.883018493652344 C11.208137512207031,44.883018493652344 1.5013264417648315,35.17620849609375 1.5013264417648315,23.192480087280273 z" id="svg_2" class=""/><path d="M34.67527770996094,21.36471191048622 H25.270326614379883 V11.959757000207901 c0,-1.0383069515228271 -0.8426839113235474,-1.8809908628463745 -1.8809908628463745,-1.8809908628463745 s-1.8809908628463745,0.8426839113235474 -1.8809908628463745,1.8809908628463745 v9.404953956604004 H12.103388786315918 c-1.0383069515228271,0 -1.8809908628463745,0.8426839113235474 -1.8809908628463745,1.8809908628463745 s0.8426839113235474,1.8809908628463745 1.8809908628463745,1.8809908628463745 h9.404953956604004 v9.404953956604004 c0,1.0383069515228271 0.8426839113235474,1.8809908628463745 1.8809908628463745,1.8809908628463745 s1.8809908628463745,-0.8426839113235474 1.8809908628463745,-1.8809908628463745 V25.12669387459755 h9.404953956604004 c1.0383069515228271,0 1.8809908628463745,-0.8426839113235474 1.8809908628463745,-1.8809908628463745 S35.713584899902344,21.36471191048622 34.67527770996094,21.36471191048622 z" id="svg_1" class="" stroke="none" fill="#484848" fill-opacity="1"/>
</g></svg> -->

<svg width="46" height="46" xmlns="http://www.w3.org/2000/svg">

 <g class="currentLayer">
  <title>Layer 1</title>
  <path id="svg_2" d="m1.50133,23.19248c0,-11.98373 9.70681,-21.69054 21.69054,-21.69054c11.98373,0 21.69053,9.70681 21.69053,21.69054c0,11.98373 -9.7068,21.69054 -21.69053,21.69054c-11.98373,0 -21.69054,-9.70681 -21.69054,-21.69054z" fill-rule="nonzero" stroke-linejoin="round" stroke-width="2" fill="#484848"/>
  <path fill="#ffffff" id="svg_1" d="m34.67528,21.36471l-9.40495,0l0,-9.40495c0,-1.03831 -0.84269,-1.88099 -1.88099,-1.88099s-1.881,0.84268 -1.881,1.88099l0,9.40495l-9.40495,0c-1.03831,0 -1.88099,0.84268 -1.88099,1.88099s0.84268,1.88099 1.88099,1.88099l9.40495,0l0,9.40496c0,1.0383 0.84269,1.88099 1.88099,1.88099s1.88099,-0.84269 1.88099,-1.88099l0,-9.40496l9.40496,0c1.03831,0 1.88099,-0.84268 1.88099,-1.88099s-0.84269,-1.88099 -1.88099,-1.88099z"/>
 </g>
 <g>
  <title>Layer 2</title>
  <rect fill="none" y="0" x="0" height="100%" width="100%" id="backgroundrect"/>
 </g>
 <g>
  <title>background</title>
  <rect fill="none" id="canvas_background" height="602" width="802" y="-1" x="-1"/>
 </g>
</svg>