<svg width="45" height="42" xmlns="http://www.w3.org/2000/svg">
 <title/>

 <g>
  <title>background</title>
  <rect x="-1" y="-1" width="47" height="44" id="canvas_background" fill="none"/>
 </g>
 <g>
  <title>Layer 1</title>
  <path class="cls-1" d="m8.94166,39.35078l-4.51405,0a1.80562,2 0 0 1 -1.80562,-2l0,-33a1.80562,2 0 0 1 1.80562,-2l36.11244,0a1.80562,2 0 0 1 1.80562,2l0,33a1.80562,2 0 0 1 -1.80562,2l-4.51405,0s-27.08433,0.02 -27.08433,0z" id="svg_1" fill="none" stroke="#484848" stroke-linecap="round" stroke-linejoin="round" stroke-width="3px"/>
  <line class="cls-1" x1="3.1155" x2="42.01682" y1="20.15482" y2="20.15482" id="svg_2" fill="none" stroke="#484848" stroke-linecap="round" stroke-linejoin="round" stroke-width="3px"/>
  <rect id="svg_4" height="8.71139" width="6.57895" y="7.18421" x="6.79276" stroke-opacity="null" stroke-width="NaN" stroke="#484848" fill="#484848"/>
  <g id="svg_14">
   <rect transform="matrix(0.403567, 0, 0, 0.404995, 5.91153, 4.26991)" fill="none" y="49.59481" x="29.37732" height="42" width="45" id="svg_11"/>
   <g transform="matrix(0.403567, 0, 0, 0.404995, 5.91153, 4.26991)" id="svg_13" class="currentLayer">
    <title>Layer 1</title>
    <path fill="#484848" id="svg_10" d="m54.1157,61.27024l-9.40495,0l0,-9.40495c0,-1.03831 -0.84268,-1.88099 -1.88099,-1.88099s-1.88099,0.84268 -1.88099,1.88099l0,9.40495l-9.40496,0c-1.0383,0 -1.88099,0.84269 -1.88099,1.88099s0.84269,1.88099 1.88099,1.88099l9.40496,0l0,9.40496c0,1.0383 0.84268,1.88099 1.88099,1.88099s1.88099,-0.84269 1.88099,-1.88099l0,-9.40495l9.40495,0c1.03831,0 1.88099,-0.84269 1.88099,-1.881s-0.84268,-1.88099 -1.88099,-1.88099z"/>
   </g>
  </g>
  <rect id="svg_16" height="8.71139" width="21.36325" y="7.18421" x="16.69182" stroke-opacity="null" stroke-width="NaN" stroke="#484848" fill="#484848"/>
 </g>
</svg>