<svg xmlns="http://www.w3.org/2000/svg" width="96" height="96" viewBox="0 0 96 96">
  <metadata><?xpacket begin="﻿" id="W5M0MpCehiHzreSzNTczkc9d"?>
<x:xmpmeta xmlns:x="adobe:ns:meta/" x:xmptk="Adobe XMP Core 5.6-c140 79.160451, 2017/05/06-01:08:21        ">
   <rdf:RDF xmlns:rdf="http://www.w3.org/1999/02/22-rdf-syntax-ns#">
      <rdf:Description rdf:about=""/>
   </rdf:RDF>
</x:xmpmeta>
                                                                                                    
                                                                                                    
                                                                                                    
                                                                                                    
                                                                                                    
                                                                                                    
                                                                                                    
                                                                                                    
                                                                                                    
                                                                                                    
                                                                                                    
                                                                                                    
                                                                                                    
                                                                                                    
                                                                                                    
                                                                                                    
                                                                                                    
                                                                                                    
                                                                                                    
                                                                                                    
                           
<?xpacket end="w"?></metadata>
<defs>
    <style>
      .cls-1 {
        fill: #383838;
        fill-rule: evenodd;
      }
    </style>
  </defs>
  <path class="cls-1" d="M50,1A48,48,0,1,1,2,49,48,48,0,0,1,50,1ZM24.191,41.344a32.226,32.226,0,0,1,2.531-5.932,30.2,30.2,0,0,1,3.6-4.853l-2-9.032a23.547,23.547,0,0,1,4-2.966,37.4,37.4,0,0,1,5.328-2.427l6.794,6.2a28.28,28.28,0,0,1,6.128-.674,31.747,31.747,0,0,1,6.128.809L63.355,16a44.026,44.026,0,0,1,5.062,2.427,34.046,34.046,0,0,1,4.263,2.966l-2,9.167a30.952,30.952,0,0,1,3.73,4.988,28.857,28.857,0,0,1,2.4,5.662L85.6,44.04A40.172,40.172,0,0,1,86,49.7a34.023,34.023,0,0,1-.533,5.258l-8.659,2.7a24.752,24.752,0,0,1-2.131,5.258,41.244,41.244,0,0,1-4,5.662l2,8.9a32.2,32.2,0,0,1-4.129,2.966A45.084,45.084,0,0,1,63.355,83l-6.794-6.336a35.654,35.654,0,0,1-5.994.674,36.718,36.718,0,0,1-6.261-.539L37.512,83a33.458,33.458,0,0,1-4.129-2.022c-2.5-1.464-5.062-3.37-5.062-3.37l2-9.167a25.925,25.925,0,0,1-3.6-4.718,32.692,32.692,0,0,1-2.531-5.932L15.4,54.96A38.792,38.792,0,0,1,15,49.7a47.92,47.92,0,0,1,.4-5.662ZM50.5,36.626A12.875,12.875,0,1,1,37.779,49.5,12.8,12.8,0,0,1,50.5,36.626Z" transform="translate(-2 -1)"/>
</svg>
