<?xml version="1.0" encoding="UTF-8" standalone="no"?>
<svg
   xmlns:dc="http://purl.org/dc/elements/1.1/"
   xmlns:cc="http://creativecommons.org/ns#"
   xmlns:rdf="http://www.w3.org/1999/02/22-rdf-syntax-ns#"
   xmlns:svg="http://www.w3.org/2000/svg"
   xmlns="http://www.w3.org/2000/svg"
   version="1.1"
   id="svg2"
   viewBox="0 0 400 400.00001"
   height="400"
   width="400">
  <defs
     id="defs4" />
  <metadata
     id="metadata7">
    <rdf:RDF>
      <cc:Work
         rdf:about="">
        <dc:format>image/svg+xml</dc:format>
        <dc:type
           rdf:resource="http://purl.org/dc/dcmitype/StillImage" />
        <dc:title></dc:title>
      </cc:Work>
    </rdf:RDF>
  </metadata>
  <g
     transform="translate(0,-652.36216)"
     id="layer1">
    <path
       id="path4688"
       d="m 160.61425,957.40782 -10.10152,42.93148 -86.368043,8.0812 -11.616755,45.4569 310.116828,-1.0101 -20.70812,-46.467 -99.50003,-6.56603 -11.61675,-47.47721 z"
       style="opacity:1;fill:#ffc197;fill-opacity:1;stroke:#000000;stroke-width:1;stroke-linecap:butt;stroke-linejoin:miter;stroke-miterlimit:4;stroke-dasharray:none;stroke-dashoffset:0;stroke-opacity:1" />
    <path
       id="path4684"
       d="M 120.20815,689.21233 C 55.129511,736.99511 30.30587,864.72335 80.307127,928.1134 127.02742,987.34394 247.47736,991.35567 306.07663,943.84604 364.72437,896.29708 382.88664,779.77139 337.39095,719.5169 293.34494,661.18236 179.12759,645.95183 120.20815,689.21233 Z"
       style="opacity:1;fill:#ffc197;fill-opacity:1;stroke:#000000;stroke-width:1;stroke-linecap:butt;stroke-linejoin:miter;stroke-miterlimit:4;stroke-dasharray:none;stroke-dashoffset:0;stroke-opacity:1" />
    <path
       id="path4690"
       d="m 63.134534,1005.8952 -13.131983,51.0127 315.672669,-3.0305 -22.22335,-50.5076 -81.31728,-4.04063 -30.80966,21.21323 -70.71068,3.5355 -15.65736,-24.74873 z"
       style="opacity:1;fill:#f60000;fill-opacity:1;stroke:#000000;stroke-width:1;stroke-linecap:butt;stroke-linejoin:miter;stroke-miterlimit:4;stroke-dasharray:none;stroke-dashoffset:0;stroke-opacity:1" />
    <path
       id="path4694"
       d="m 144.45182,796.79357 40.4061,7.07106 -8.08122,32.32488 -44.44671,-6.06091 z"
       style="opacity:1;fill:#ffffff;fill-opacity:1;stroke:#000000;stroke-width:1;stroke-linecap:butt;stroke-linejoin:miter;stroke-miterlimit:4;stroke-dasharray:none;stroke-dashoffset:0;stroke-opacity:1" />
    <path
       id="path4696"
       d="m 244.45692,805.88494 1.01015,38.38579 54.54824,-8.08122 -6.06092,-33.33503 z"
       style="opacity:1;fill:#ffffff;fill-opacity:1;stroke:#000000;stroke-width:1;stroke-linecap:butt;stroke-linejoin:miter;stroke-miterlimit:4;stroke-dasharray:none;stroke-dashoffset:0;stroke-opacity:1" />
    <path
       id="path4700"
       d="m 259.23495,816.85092 2.85715,10.71429 13.57143,0 -4.28572,-11.42858 z"
       style="opacity:1;fill:#000000;fill-opacity:1;stroke:#000000;stroke-width:1;stroke-linecap:butt;stroke-linejoin:miter;stroke-miterlimit:4;stroke-dasharray:none;stroke-dashoffset:0;stroke-opacity:1" />
    <path
       id="path4702"
       d="m 157.0921,810.42235 -5,10.71429 14.28571,3.57143 4.28572,-11.42857 z"
       style="opacity:1;fill:#000000;fill-opacity:1;stroke:#000000;stroke-width:1;stroke-linecap:butt;stroke-linejoin:miter;stroke-miterlimit:4;stroke-dasharray:none;stroke-dashoffset:0;stroke-opacity:1" />
    <path
       id="path4704"
       d="m 169.20055,906.9002 67.17515,4.0406 -2.02031,20.70813 -66.16499,-7.07106 z"
       style="opacity:1;fill:#ed8968;fill-opacity:1;stroke:#000000;stroke-width:1;stroke-linecap:butt;stroke-linejoin:miter;stroke-miterlimit:4;stroke-dasharray:none;stroke-dashoffset:0;stroke-opacity:1" />
    <path
       id="path4706"
       d="m 49.497474,794.77327 23.233509,-102.02542 14.142136,17.1726 14.142131,-33.33504 19.1929,7.07107 25.25382,-21.2132 8.08122,8.08122 26.26396,-14.14213 32.32488,2.0203 27.27412,-3.03046 12.12183,10.10153 43.43656,-10.10153 9.09137,35.35534 58.58885,2.0203 4.04062,114.14724 -15.15229,16.16244 -11.11168,-68.69036 -43.43656,10.10152 -84.85281,-24.24366 -52.52794,15.15229 -61.619304,7.07107 -43.436559,47.47717 z"
       style="opacity:1;fill:#000000;fill-opacity:1;stroke:#000000;stroke-width:1;stroke-linecap:butt;stroke-linejoin:miter;stroke-miterlimit:4;stroke-dasharray:none;stroke-dashoffset:0;stroke-opacity:1" />
    <path
       id="path4712"
       d="m 179.80716,910.9408 -2.02032,12.12183 43.94164,2.02031 1.51523,-11.11167 z"
       style="opacity:1;fill:#b20000;fill-opacity:1;stroke:#000000;stroke-width:1;stroke-linecap:butt;stroke-linejoin:miter;stroke-miterlimit:4;stroke-dasharray:none;stroke-dashoffset:0;stroke-opacity:1" />
  </g>
</svg>
