<svg enable-background="new 0 0 500 500" height="436" version="1.1" width="436" xml:space="preserve" xmlns="http://www.w3.org/2000/svg" xmlns:xlink="http://www.w3.org/1999/xlink" style=""><rect id="backgroundrect" width="100%" height="100%" x="0" y="0" fill="none" stroke="none" style="" class=""/>
<g class="currentLayer" style=""><title>Layer 1</title><path clip-rule="evenodd" fill="#484848" d="M4.992000579833984,216.5 c0,117.93199920654297 95.5739974975586,213.50799560546875 213.50799560546875,213.50799560546875 c117.93199920654297,0 213.50799560546875,-95.57599639892578 213.50799560546875,-213.50799560546875 c0,-117.93000030517578 -95.57599639892578,-213.50999450683594 -213.50799560546875,-213.50999450683594 C100.56599426269531,2.9910011291503906 4.992000579833984,98.57099914550781 4.992000579833984,216.5 zM50.417999267578125,216.5 c0,-10.904999732971191 0.9929999709129333,-21.534000396728516 3,-31.798999786376953 h43.606998443603516 c-0.8159999847412109,8.996999740600586 -1.180999994277954,18.08300018310547 -1.180999994277954,27.256000518798828 c0,9.173999786376953 0.36500000953674316,18.260000228881836 1.180999994277954,27.257999420166016 H51.875 C50.87200164794922,231.76199340820312 50.417999267578125,224.2239990234375 50.417999267578125,216.5 zM69.22899627685547,139.2740020751953 c13.253999710083008,-25.711999893188477 32.97800064086914,-47.518001556396484 57.04999923706055,-63.32400131225586 c-9.536999702453613,20.07900047302246 -16.981000900268555,41.249000549316406 -22.163000106811523,63.32400131225586 H69.22899627685547 zM194.4199981689453,50.144996643066406 l1.3660000562667847,-0.18199999630451202 v89.31199645996094 h-44.70000076293945 C160.08200073242188,106.74800109863281 174.89199829101562,76.58499908447266 194.4199981689453,50.144996643066406 zM241.21499633789062,49.96299743652344 l1.2690000534057617,0.18199999630451202 c19.53700065612793,26.44099998474121 34.433998107910156,56.60300064086914 43.42900085449219,89.12999725341797 h-44.696998596191406 V49.96299743652344 zM310.6210021972656,75.95099639892578 c24.083999633789062,15.805999755859375 43.887001037597656,37.611000061035156 57.150001525878906,63.32400131225586 h-34.97800064086914 C327.7049865722656,117.19999694824219 320.1629943847656,96.02999877929688 310.6210021972656,75.95099639892578 zM383.5820007324219,184.7010040283203 c1.9980000257492065,10.265000343322754 2.999000072479248,20.895000457763672 2.999000072479248,31.798999786376953 c0,7.7230000495910645 -0.5509999990463257,15.26099967956543 -1.5429999828338623,22.71500015258789 h-44.97700119018555 c0.7300000190734863,-8.998000144958496 1.093999981880188,-18.083999633789062 1.093999981880188,-27.257999420166016 c0,-9.173999786376953 -0.3630000054836273,-18.260000228881836 -1.093999981880188,-27.256000518798828 H383.5820007324219 zM372.22601318359375,284.64300537109375 c-14.267000198364258,32.073001861572266 -38.250999450683594,58.875999450683594 -68.22899627685547,76.58599853515625 c12.725000381469727,-23.892000198364258 22.437000274658203,-49.595001220703125 28.79800033569336,-76.58599853515625 H372.22601318359375 zM133.00399780273438,361.22900390625 c-29.979000091552734,-17.709999084472656 -53.9630012512207,-44.51300048828125 -68.2300033569336,-76.58599853515625 h39.43000030517578 C110.56500244140625,311.6340026855469 120.28199768066406,337.4330139160156 133.00399780273438,361.22900390625 zM142.63999938964844,184.7010040283203 h53.145999908447266 v54.51499938964844 H142.63999938964844 c-0.9139999747276306,-8.998000144958496 -1.3660000562667847,-18.083999633789062 -1.3660000562667847,-27.257999420166016 C141.2740020751953,202.78399658203125 141.7270050048828,193.697998046875 142.63999938964844,184.7010040283203 zM241.21499633789062,184.7010040283203 h53.145999908447266 c0.9129999876022339,8.996999740600586 1.3669999837875366,18.08300018310547 1.3669999837875366,27.256000518798828 c0,9.173999786376953 -0.45399999618530273,18.260000228881836 -1.3669999837875366,27.257999420166016 h-53.145999908447266 V184.7010040283203 zM151.08599853515625,284.64300537109375 h44.70000076293945 v90.85399627685547 C175.61000061035156,348.60400390625 160.25999450683594,317.89599609375 151.08599853515625,284.64300537109375 zM241.21499633789062,284.64300537109375 h44.696998596191406 c-9.173999786376953,33.25400161743164 -24.5310001373291,63.96099853515625 -44.696998596191406,90.85399627685547 V284.64300537109375 z" fill-rule="evenodd" id="svg_1" class=""/><path fill="#484848" fill-opacity="1" stroke="#484848" stroke-opacity="1" stroke-width="39" stroke-dasharray="none" stroke-linejoin="miter" stroke-linecap="butt" stroke-dashoffset="" fill-rule="nonzero" opacity="1" marker-start="" marker-mid="" marker-end="" d="M19.904685974121094,415.1238410240694 L415.14288330078125,19.885758949180854 " id="svg_2" class=""/></g><defs><marker id="DotS" refX="0" refY="0" orient="auto" inkscape:stockid="DotS" xmlns:inkscape="http://www.inkscape.org/namespaces/inkscape" overflow="visible">
            <path transform="scale(.2) translate(7.4 1)" d="M-2.5-1c0 2.76-2.24 5-5 5s-5-2.24-5-5 2.24-5 5-5 5 2.24 5 5z" fill-rule="evenodd" stroke="#000" stroke-width="1pt" style="fill: rgb(109, 109, 109); stroke: rgb(109, 109, 109); stroke-dasharray: none;"/>
        </marker></defs></svg>