<svg enable-background="new 0 0 32 32" version="1.1" xml:space="preserve" xmlns="http://www.w3.org/2000/svg" xmlns:xlink="http://www.w3.org/1999/xlink" width="42" height="45">
<rect id="backgroundrect" width="100%" height="100%" x="0" y="0" fill="none" stroke="none" style="" class=""/>
<g class="currentLayer" style="">
<g class="" id="svg_1">
<path d="M38.61538314819336,6.4358978271484375 h-9.65384578704834 V4.82692289352417 c0,-2.6612436771392822 -2.165679454803467,-4.82692289352417 -4.82692289352417,-4.82692289352417 h-6.435897350311279 c-2.6612436771392822,0 -4.82692289352417,2.165679454803467 -4.82692289352417,4.82692289352417 v1.6089743375778198 H3.2179489135742188 C1.4432501792907715,6.4358978271484375 0,7.879147529602051 0,9.65384578704834 v1.6089743375778198 c0,0.8881537914276123 0.7208205461502075,1.6089743375778198 1.6089743375778198,1.6089743375778198 h38.61538314819336 c0.8881537914276123,0 1.6089743375778198,-0.7208205461502075 1.6089743375778198,-1.6089743375778198 V9.65384578704834 C41.83333206176758,7.879147529602051 40.39008331298828,6.4358978271484375 38.61538314819336,6.4358978271484375 zM16.08974266052246,4.82692289352417 c0,-0.8865448832511902 0.7224294543266296,-1.6089743375778198 1.6089743375778198,-1.6089743375778198 h6.435897350311279 c0.8865448832511902,0 1.6089743375778198,0.7224294543266296 1.6089743375778198,1.6089743375778198 v1.6089743375778198 h-9.65384578704834 V4.82692289352417 z" fill="#484848" id="XMLID_246_" class=""/>
<path d="M4.82692289352417,16.08974266052246 v24.134614944458008 c0,2.6612436771392822 2.165679454803467,4.82692289352417 4.82692289352417,4.82692289352417 h22.5256404876709 c2.6612436771392822,0 4.82692289352417,-2.165679454803467 4.82692289352417,-4.82692289352417 V16.08974266052246 H4.82692289352417 zM26.881135940551758,32.65091323852539 c0.6291089653968811,0.6291089653968811 0.6291089653968811,1.645980715751648 0,2.275089740753174 s-1.645980715751648,0.6291089653968811 -2.275089740753174,0 L20.91666603088379,31.23662567138672 l-3.689378023147583,3.689378023147583 c-0.6291089653968811,0.6291089653968811 -1.645980715751648,0.6291089653968811 -2.275089740753174,0 s-0.6291089653968811,-1.645980715751648 0,-2.275089740753174 L18.641576766967773,28.961538314819336 l-3.689378023147583,-3.689378023147583 c-0.6291089653968811,-0.6291089653968811 -0.6291089653968811,-1.645980715751648 0,-2.275089740753174 s1.645980715751648,-0.6291089653968811 2.275089740753174,0 L20.91666603088379,26.68644905090332 l3.689378023147583,-3.689378023147583 c0.6291089653968811,-0.6291089653968811 1.645980715751648,-0.6291089653968811 2.275089740753174,0 s0.6291089653968811,1.645980715751648 0,2.275089740753174 L23.191755294799805,28.961538314819336 L26.881135940551758,32.65091323852539 z" fill="#484848" id="XMLID_249_" class=""/>
</g></g></svg>