<svg data-name="Layer 1" xmlns="http://www.w3.org/2000/svg" width="44" height="44" style="">
<rect id="backgroundrect" width="100%" height="100%" x="0" y="0" fill="none" stroke="none" style="" class=""/>
<g class="currentLayer" style="">
<path d="M30.924419403076172,-0.00014162063598632812 H3.1982765197753906 a3.1997859477996826,3.186645269393921 0 0 0 -3.1997859477996826,3.186645269393921 V30.798778533935547 a3.1997859477996826,3.186645269393921 0 0 0 3.1997859477996826,3.186645269393921 H30.924419403076172 a3.1997859477996826,3.186645269393921 0 0 0 3.1997859477996826,-3.186645269393921 V3.1865053176879883 A3.1997859477996826,3.186645269393921 0 0 0 30.924419403076172,-0.00014162063598632812 z" fill="#484848" id="svg_1" class="" transform="rotate(-179.577, 17.0607, 16.9926)"/>
<path d="M43.82860565185547,16.623519897460938 v-3.2644546031951904 A4.3760175704956055,4.3580474853515625 0 0 0 39.46897888183594,9.001017570495605 h-26.22332763671875 A4.392407417297363,4.3743696212768555 0 0 0 8.86963176727295,13.359066009521484 v26.115636825561523 a4.3760175704956055,4.3580474853515625 0 0 0 4.3760175704956055,4.341724395751953 h3.2779159545898438 V23.15243148803711 a6.5558319091796875,6.528909206390381 0 0 1 6.5558319091796875,-6.528909206390381 z" fill="#484848" id="svg_2" class="" transform="rotate(-179.577, 26.3494, 26.4086)"/>
</g></svg>