<svg enable-background="new 0 0 19 19" height="48" version="1.1" width="47" xml:space="preserve" xmlns="http://www.w3.org/2000/svg" xmlns:xlink="http://www.w3.org/1999/xlink" style="">
<rect id="backgroundrect" width="100%" height="100%" x="0" y="0" fill="none" stroke="none" style="" class=""/>
<g class="currentLayer" style="">
<g class=""><path d="M3.3573875427246094,30.601993560791016 C2.9697113037109375,31.000659942626953 2.6705360412597656,31.45566177368164 2.4092750549316406,31.932327270507812 L2.2365074157714844,31.754657745361328 L2.13116455078125,32.508663177490234 C1.7097740173339844,33.52699279785156 1.5622901916503906,34.644989013671875 1.6802787780761719,35.76732635498047 l-1.6813230514526367,12.115999221801758 l11.786116600036621,-1.7289998531341553 c1.0913851261138916,0.12133333086967468 2.178556442260742,-0.03033333271741867 3.168809175491333,-0.4636666476726532 l0.7332085371017456,-0.10399999469518661 l-0.1727675348520279,-0.17766666412353516 c0.4593087434768677,-0.26866665482521057 0.9059760570526123,-0.5763332843780518 1.2936495542526245,-0.9749999046325684 l21.292543411254883,-21.896331787109375 l-13.446370124816895,-13.827665328979492 L3.3573875427246094,30.601993560791016 z" fill="#484848" id="svg_2" class=""/>
<path d="M44.41284942626953,5.979996204376221 l-3.6660428047180176,-3.7699997425079346 c-2.7010726928710938,-2.7776663303375244 -6.898059844970703,-2.9639997482299805 -9.375798225402832,-0.4203333258628845 l-3.3584322929382324,3.4536664485931396 l13.446370124816895,13.827665328979492 l3.3584322929382324,-3.4579997062683105 C47.29512023925781,13.073662757873535 47.113922119140625,8.757662773132324 44.41284942626953,5.979996204376221 z" fill="#484848" id="svg_3" class=""/>
</g></g></svg>