<?xml version="1.0" encoding="UTF-8" standalone="no"?>
<svg
   xmlns:dc="http://purl.org/dc/elements/1.1/"
   xmlns:cc="http://creativecommons.org/ns#"
   xmlns:rdf="http://www.w3.org/1999/02/22-rdf-syntax-ns#"
   xmlns:svg="http://www.w3.org/2000/svg"
   xmlns="http://www.w3.org/2000/svg"
   version="1.1"
   id="svg2"
   viewBox="0 0 32 32.000001"
   height="32"
   width="32">
  <defs
     id="defs4" />
  <metadata
     id="metadata7">
    <rdf:RDF>
      <cc:Work
         rdf:about="">
        <dc:format>image/svg+xml</dc:format>
        <dc:type
           rdf:resource="http://purl.org/dc/dcmitype/StillImage" />
        <dc:title></dc:title>
      </cc:Work>
    </rdf:RDF>
  </metadata>
  <g
     transform="translate(0,-1020.3622)"
     id="layer1">
    <path
       id="path4166"
       d="m 15.488553,1020.628 a 15.752846,15.752846 0 0 0 -6.9158753,1.8568 c -0.6164203,2.548 -1.1917595,4.9407 -1.350423,5.0994 -0.1588876,0.1589 -2.5572287,0.7355 -5.1094339,1.3529 a 15.752846,15.752846 0 0 0 -1.84171411,6.9184 c 1.89819871,1.8076 3.68078631,3.502 3.73885591,3.7187 0.058089,0.2168 -0.6402995,2.5788 -1.3806557,5.0943 a 15.752846,15.752846 0 0 0 5.0741618,5.0616 c 2.5113343,-0.7391 4.8677553,-1.4362 5.0842403,-1.3781 0.216982,0.058 1.913515,1.8455 3.723738,3.7464 a 15.752846,15.752846 0 0 0 6.915875,-1.8594 c 0.61642,-2.548 1.19176,-4.9432 1.350424,-5.1019 0.158887,-0.1588 2.557228,-0.7329 5.109433,-1.3504 a 15.752846,15.752846 0 0 0 1.841714,-6.9184 c -1.898198,-1.8076 -3.680785,-3.502 -3.738855,-3.7187 -0.05809,-0.2168 0.640299,-2.5788 1.380655,-5.0943 a 15.752846,15.752846 0 0 0 -5.074161,-5.0616 c -2.511335,0.7392 -4.867756,1.4362 -5.08424,1.3782 -0.216928,-0.058 -1.914043,-1.8436 -3.723739,-3.7439 z M 16,1030.7083 a 5.654193,5.654193 0 0 1 5.653633,5.6536 A 5.654193,5.654193 0 0 1 16,1042.0156 5.654193,5.654193 0 0 1 10.346367,1036.3619 5.654193,5.654193 0 0 1 16,1030.7083 Z"
       style="fill:#000000;fill-opacity:1;stroke:none" />
  </g>
</svg>
