<svg width="14.999999999999998" height="18.000000000000004" xmlns="http://www.w3.org/2000/svg">

 <g>
  <title>background</title>
  <rect fill="none" id="canvas_background" height="20" width="17" y="-1" x="-1"/>
 </g>
 <g>
  <title>Layer 1</title>
  <path id="svg_1" fill="black" d="m6.623337,1.458727c0.7928,-0.12249 1.6052,-0.0289 2.3483,0.27137c0.7433,0.30033 1.3903,0.79669 1.8674,1.43731c0.477299,0.640861 0.7654,1.400502 0.8295,2.195212c0.0641,0.7947 -0.098501,1.590199 -0.468201,2.2978c-0.3694,0.707397 -0.930401,1.297997 -1.617901,1.708996c-0.182299,0.1089 -0.380399,0.2111 -0.539899,0.2934c-0.0458,0.023701 -0.0884,0.0457 -0.1266,0.065701c-0.1952,0.1026 -0.322,0.177601 -0.4159,0.2514c-0.0848,0.0665 -0.1213,0.115999 -0.1423,0.1572c-0.0202,0.0399 -0.0529,0.125101 -0.0529,0.3011l0,1.253502c0,0.3314 -0.2687,0.599998 -0.599999,0.599998l-0.8,0c-0.3314,0 -0.6,-0.268599 -0.6,-0.599998l0,-1.253502c0,-0.441799 0.0863,-0.845699 0.2699,-1.2071c0.183,-0.360199 0.4353,-0.624199 0.6902,-0.824299c0.2456,-0.1929 0.5091,-0.337598 0.720901,-0.448797c0.0653,-0.0343 0.125099,-0.0652 0.1809,-0.094c0.1456,-0.0752 0.2656,-0.1373 0.3894,-0.2113c0.374801,-0.224 0.675401,-0.542701 0.871501,-0.9182c0.195999,-0.375299 0.281,-0.7942 0.2474,-1.2111c-0.033701,-0.417 -0.185001,-0.819 -0.440001,-1.16138c-0.2552,-0.342642 -0.6049,-0.612842 -1.0127,-0.777612c-0.4079,-0.164829 -0.8559,-0.21678 -1.2936,-0.14915c-0.4377,0.06763 -0.8451,0.25167 -1.1779,0.52892c-0.1745,0.145371 -0.324699,0.313241 -0.4474,0.497641c-0.183499,0.275881 -0.5176,0.45258 -0.832,0.34788l-0.759,-0.25283c-0.3144,-0.104711 -0.488,-0.447072 -0.3401,-0.743603c0.2646,-0.53037 0.6383,-1.002359 1.0983,-1.38565c0.6146,-0.51207 1.3598,-0.8464 2.1527,-0.96891z"/>
  <path id="svg_2" fill="black" d="m6.545647,14.458516c0,-0.2761 0.2239,-0.5 0.5,-0.5l0.6476,0c0.2761,0 0.500001,0.2239 0.500001,0.5l0,0.647598c0,0.2761 -0.223901,0.5 -0.500001,0.5l-0.6476,0c-0.2761,0 -0.5,-0.2239 -0.5,-0.5l0,-0.647598z"/>
 </g>
</svg>