<svg xmlns="http://www.w3.org/2000/svg" width="96" height="96" viewBox="0 0 96 96">
  <metadata><?xpacket begin="﻿" id="W5M0MpCehiHzreSzNTczkc9d"?>
<x:xmpmeta xmlns:x="adobe:ns:meta/" x:xmptk="Adobe XMP Core 5.6-c140 79.160451, 2017/05/06-01:08:21        ">
   <rdf:RDF xmlns:rdf="http://www.w3.org/1999/02/22-rdf-syntax-ns#">
      <rdf:Description rdf:about=""/>
   </rdf:RDF>
</x:xmpmeta>
                                                                                                    
                                                                                                    
                                                                                                    
                                                                                                    
                                                                                                    
                                                                                                    
                                                                                                    
                                                                                                    
                                                                                                    
                                                                                                    
                                                                                                    
                                                                                                    
                                                                                                    
                                                                                                    
                                                                                                    
                                                                                                    
                                                                                                    
                                                                                                    
                                                                                                    
                                                                                                    
                           
<?xpacket end="w"?></metadata>
<defs>
    <style>
      .cls-1 {
        fill: #383838;
        fill-rule: evenodd;
      }
    </style>
  </defs>
  <path id="_" data-name="?" class="cls-1" d="M50,1A48,48,0,1,1,2,49,48,48,0,0,1,50,1Zm4.365,59.3v-1.62c-0.09-4.05,1.26-7.56,4.59-11.25,3.42-3.78,7.65-8.28,7.65-15.119,0-7.47-5.4-14.039-17.279-14.039A30.872,30.872,0,0,0,34.3,21.959l3.06,9.81a16.993,16.993,0,0,1,8.91-2.7c4.5,0.18,6.57,2.25,6.57,5.4,0,3.06-2.34,5.94-5.22,9.36-4.05,4.86-5.58,9.54-5.31,14.129L42.4,60.3h11.97Zm-6.3,20.609a7.82,7.82,0,0,0,8.1-8.19c-0.09-4.77-3.24-8.19-8.1-8.19a7.8,7.8,0,0,0-8.01,8.19A7.8,7.8,0,0,0,48.065,80.906Z" transform="translate(-2 -1)"/>
</svg>
