<svg width="24" height="25" xmlns="http://www.w3.org/2000/svg">

 <g>
  <title>background</title>
  <rect fill="none" id="canvas_background" height="27" width="26" y="-1" x="-1"/>
 </g>
 <g>
  <title>Layer 1</title>
  <path id="svg_2" fill="#484848" d="m21.877037,0.817361l-20,0c-0.553,0 -1,0.522982 -1,1.169982l0,21.059673c0,0.646999 0.447,1.169983 1,1.169983l20,0c0.552999,0 1,-0.522984 1,-1.169983l0,-21.059673c0,-0.647 -0.447001,-1.169982 -1,-1.169982zm0,1.169982l0,16.226478l-3.25,-4.130035c-0.191,-0.252716 -0.462999,-0.396624 -0.75,-0.396624s-0.561001,0.143908 -0.75,0.396624l-2.604,3.451447l-7.896,-10.471339c-0.19,-0.252715 -0.463,-0.396624 -0.75,-0.396624s-0.56,0.143909 -0.75,0.396624l-3.25,4.385092l0,-9.461643l20,0zm-20,11.231826l4,-5.381917l8.066,10.697145l0.58,0.769848l2.762001,3.742771l-15.408001,0l0,-9.827847zm16.74,9.827847l-3.427999,-4.627277l2.688,-3.562595l4,5.12335l0,3.066523l-3.26,0z"/>
  <path id="svg_3" fill="#484848" d="m16.433996,11.191683c1.656,0 3,-1.343 3,-3s-1.344,-3 -3,-3c-1.658001,0 -3,1.343 -3,3s1.341999,3 3,3zm0,-5c1.101999,0 2,0.897 2,2s-0.898001,2 -2,2c-1.104,0 -2,-0.897 -2,-2s0.896,-2 2,-2z"/>
 </g>
</svg>