<!-- <svg xmlns="http://www.w3.org/2000/svg" viewBox="0 0 841.89 595.28">
<defs><style>.cls-1{fill:#1d1d1b;}.cls-2{fill:#fff;}.cls-3{fill:none;stroke:#000;stroke-linecap:round;stroke-miterlimit:10;stroke-width:9px;}</style></defs>
<g id="Camada_1" data-name="Camada 1">
<path class="cls-1" d="M285.84,134.12q12.68,0,27.45,6.44c1,.34,2.34,1.55,4.13,3.62a13.6,13.6,0,0,1,2.1,4.93,10,10,0,0,1,3,5.14,58.79,58.79,0,0,1,.72,10.14c0,2.61,0,5.72-.07,9.35q.58,27.22.58,33.46,0,16.59-8.47,27.81-5.07,5.51-7.1,6.45a32.51,32.51,0,0,1-17.75,5.14h-1.08a36.69,36.69,0,0,1-13.69-2.53q-6.17-3.7-6.16-10.14t6.3-10.14a12.65,12.65,0,0,1,5.22-1.16c.53,0,2.75.38,6.66,1.16,1,0,1.81.07,2.39.07q8,0,9.78-8a7.81,7.81,0,0,0,.51-2.54h-.08q-9.19,3.56-16.22,3.55h-2.9q-8.33,0-17.31-5.07-16-10.71-16-33.46,0-19.41,9.42-31.58Q267.65,134.12,285.84,134.12Zm-15.28,44.4q0,15.57,11.66,15.57h.94a20.19,20.19,0,0,0,12.31-4.2,21.41,21.41,0,0,0,3.12-6.67,51,51,0,0,0,1.74-11.66q0-4.56-.15-11.8a42.72,42.72,0,0,0-14.63-2.9q-9.71,0-12.53,7.32A38.45,38.45,0,0,0,270.56,178.52Z"/>
<path class="cls-1" d="M400.4,132.89A71.72,71.72,0,0,1,426,138q6.58,3.69,6.59,10.57l-.07,1.09q2.89,3,2.89,10a27.87,27.87,0,0,1,.15,4.71c0,3.09,0,6.23-.07,9.42q.57,27.3.58,30.93c0,3.33-1.58,6.3-4.71,8.91a11.84,11.84,0,0,1-6.74,2.17,11.57,11.57,0,0,1-8.62-4l-.14-.07q-10.36,5.15-19.78,5.14H394.1a34.07,34.07,0,0,1-20.93-7.24q-13.05-11-13-31.14,0-23.11,13-35.86Q384,132.88,400.4,132.89ZM382.87,178.3q0,11.52,6.09,14.63a13.33,13.33,0,0,0,6,1.23h.14a19.9,19.9,0,0,0,12.68-4.27,14.28,14.28,0,0,0,2.39-4.35,46,46,0,0,0,2.46-13.9q0-3-.14-14.2a47,47,0,0,0-12.25-1.81q-11.22,0-14.77,8.18A38.33,38.33,0,0,0,382.87,178.3Z"/>
<path class="cls-1" d="M660,134.48h1.81q22.81,0,34.26,15.93a37.67,37.67,0,0,1,6.09,21.15q0,9.57-8.91,12.39,0,.44-42.52,1.59,1.66,3.56,6.52,6.81a12.8,12.8,0,0,0,6.73,1.74h1.31q9.48,0,15.14-4.78a11.76,11.76,0,0,1,5.5-1.59h.73q6.3,0,10.06,6.73a13.15,13.15,0,0,1,.87,4.27v.73q0,9.63-17.53,15.35a53.69,53.69,0,0,1-15.13,2.1q-15.8,0-26.3-10.21a42.44,42.44,0,0,1-7-8.47,52.1,52.1,0,0,1-8-22.53c-.15-1.54-.22-2.77-.22-3.69v-2.9a36.22,36.22,0,0,1,7.89-22.53Q641.46,134.48,660,134.48Zm-12.17,28.39h.07q3.4,0,28-.87v-.21q-4.5-4.57-15.07-4.57-10.29,0-12.82,5C648,162.22,647.89,162.44,647.84,162.87Z"/>
<path class="cls-1" d="M530.31,242.32c-13.54-.09-16.39-42.19-17.16-46.59s-3.54-6.9-7.51-8.28a19.29,19.29,0,0,0-8.45-.6s-4.32,30.79-14.24,30.79c-10.95,0-9.49-41.32-9.14-44.25s1.72-17,8.54-23.73,24.84-7.93,24.84-7.93-.17-.35,1.56-4.14,21.56-4,21.56-4h.22s19.84.19,21.57,4,1.55,4.14,1.55,4.14,18,1.2,24.85,7.93,8.19,20.79,8.54,23.73,1.81,44.25-9.15,44.25c-9.92,0-14.23-30.79-14.23-30.79a19.33,19.33,0,0,0-8.46.6c-4,1.38-6.73,3.88-7.5,8.28s-3.63,46.5-17.17,46.59Z"/>
<circle class="cls-2" cx="530.42" cy="191.03" r="5.82"/>
<path class="cls-1" d="M145.16,252.06h.8q14.11,0,28.24,9.41,5.3,3.91,5.29,9.64,0,6.22-6.3,10.07a13.51,13.51,0,0,1-5.21,1.16,13.18,13.18,0,0,1-8-3.12,27.78,27.78,0,0,0-14.42-4.49q-8.91,0-15.93,7.39a18.46,18.46,0,0,0-4.71,12.31v.44q0,9.48,8.11,15.21a27,27,0,0,0,12.89,3.33,23.26,23.26,0,0,0,13.69-4.64,11.83,11.83,0,0,1,5.87-1.59q5.87,0,9.71,5.72a11.61,11.61,0,0,1,1.52,5.65q0,8-10.8,12.82a43.33,43.33,0,0,1-19.62,4.78h-1.16q-12.47,0-24.77-7.24a50.9,50.9,0,0,1-8.12-7.1,54.14,54.14,0,0,1-5.36-7.75q-4.71-9.78-4.7-18V293.2q0-9.06,5.43-19.19,2-3.84,7.46-9.42a44.77,44.77,0,0,1,30.13-12.53Z"/>
<path class="cls-1" d="M246.1,255.75h2.68q11.45,0,21.3,8.48a42.19,42.19,0,0,1,8,10.64,48.41,48.41,0,0,1,5,21.73q0,16.38-9.56,28.11-5.5,5.79-7.6,6.52a30.32,30.32,0,0,1-16.52,4.92H247.7A39,39,0,0,1,225.46,329q-1.52-.64-7-6.52A40.94,40.94,0,0,1,209.31,296,41.86,41.86,0,0,1,220,267.49q5.57-5.44,8-6.52A35.82,35.82,0,0,1,246.1,255.75Zm-14,40.27a17.78,17.78,0,0,0,5.72,13.69,16.86,16.86,0,0,0,10.72,3.7q7.83,0,10.79-9.71a26,26,0,0,0,1-6.66v-1q0-9.33-5.8-15.21a10.33,10.33,0,0,0-6.88-2.31q-10.14,0-14.27,10.28A26.43,26.43,0,0,0,232.05,296Z"/>
<path class="cls-1" d="M329.37,256.11q5.94,0,9.78,5.8a11.7,11.7,0,0,1,1.52,5.36q-.44,6.66-.43,11.37,0,22.68,6.3,32.23a5.18,5.18,0,0,0,4.34,2.39q4.06,0,7.39-6.52a49.57,49.57,0,0,0,3.77-9.56q2-5.58,3.91-19.26.65-5.81,1-11.59a11.72,11.72,0,0,1,3-6.16,11.47,11.47,0,0,1,8.33-3.62q5.58,0,9.49,5.36c1.25,1.5,1.88,4.73,1.88,9.71q1.59,49.39,1.6,53.3,0,5.94-5.73,9.71a11.7,11.7,0,0,1-5.72,1.52q-6.58,0-10.43-6.95h-.14a28,28,0,0,1-18.4,6.73q-14.42,0-23.54-13.11-9.78-14.77-9.78-44.18,0-13,1.38-15.64Q322.48,256.12,329.37,256.11Z"/>
<path class="cls-1" d="M465.8,256.48h2.68q8.26,0,16.59,6.3,6.81,5.58,6.81,11.08v.8q0,6.3-6.74,10.06a12.49,12.49,0,0,1-4.2.87h-.72q-5,0-9.56-5.14a6,6,0,0,0-3.63-1.23q-2.82,0-4.56,3c-1.21,1.55-2.48,4.37-3.84,8.47a117,117,0,0,0-3.91,31.44c.1,1.79.15,3,.15,3.55,0,1.83-.9,4-2.68,6.44q-3.76,4.07-8.33,4.06h-.8q-6.3,0-10.07-6.74-1.15-1.95-1.16-12.31-1.44-46.22-1.44-49.76,0-4.63,4.92-8.69a11.28,11.28,0,0,1,6.16-2h.5q5.14,0,9.06,4.85A26,26,0,0,1,465.8,256.48Z"/>
<path class="cls-1" d="M660,253.72h1.81q22.81,0,34.26,15.94a37.65,37.65,0,0,1,6.09,21.15q0,9.56-8.91,12.38,0,.44-42.52,1.6,1.66,3.54,6.52,6.81a12.8,12.8,0,0,0,6.73,1.74h1.31q9.48,0,15.14-4.79a11.76,11.76,0,0,1,5.5-1.59h.73q6.3,0,10.06,6.74a13.1,13.1,0,0,1,.87,4.27v.72q0,9.65-17.53,15.36a54.06,54.06,0,0,1-15.13,2.1q-15.8,0-26.3-10.21a42.45,42.45,0,0,1-7-8.48,52,52,0,0,1-8-22.52c-.15-1.55-.22-2.78-.22-3.7v-2.89a36.17,36.17,0,0,1,7.9-22.53Q641.46,253.73,660,253.72Zm-12.17,28.4h.07q3.4,0,28-.87V281q-4.5-4.56-15.07-4.56-10.29,0-12.82,5C648,281.46,647.89,281.68,647.84,282.12Z"/>
<path d="M119,416.8V382.15a6.43,6.43,0,0,1,6.25-6.45c34.05-.76,59.43,10.4,59.43,41.1,0,36.41-23.54,45.51-59.26,45.59a6.44,6.44,0,0,1-6.42-6.45Z"/>
<line class="cls-3" x1="102.14" y1="400.99" x2="119.89" y2="400.99"/>
<line class="cls-3" x1="102.14" y1="437.07" x2="119.89" y2="437.07"/>
<path class="cls-1" d="M675.56,361.76h-156a16.11,16.11,0,1,1,6.56-30.82c.89.39,3.53,1.25,4,1.44a98.6,98.6,0,0,0,25.2,3.77c1,0,2,0,3-.07l1.38-.07q18-.81,26.58-12.25,4.63-7.1,4.64-13.76v-1.3q-.74-15.36-23.69-22.6-17.1-4.85-20.57-7.17c1-1.21,3.36-1.91,7-2.1.53-.05,1.08-.07,1.66-.07a59.24,59.24,0,0,1,13,1.66q8.1,2.4,10.28,2.39h.15a14.17,14.17,0,0,0,5.21-1.44q5.8-3.92,5.8-9.71v-.58c-.25-4.54-2.68-7.94-7.32-10.21Q567,254,555.59,254c-.72,0-1.45,0-2.17.08l-1.45.07q-14.49.65-22.67,10.07-5.87,7.38-5.87,15.35V281q.72,16.08,25.79,23.47,15.35,4.41,18.18,6.3v.14c-1.55,1.45-4.61,2.27-9.2,2.47-.82,0-1.67.07-2.54.07A66.53,66.53,0,0,1,542.77,312a67,67,0,0,0-8.69-1.52h-.14c-.61,0-10-2-14.36-2a37.11,37.11,0,0,0,0,74.21h156a16.11,16.11,0,1,1,0,32.22h-526a10.5,10.5,0,0,0,0,21h526a37.11,37.11,0,1,0,0-74.22Z"/>
</g></svg> -->

<!-- <svg xmlns="http://www.w3.org/2000/svg" width="858" height="392.3333435058594" style=""><rect id="backgroundrect" width="100%" height="100%" x="0" y="0" fill="none" stroke="none" style="" class=""/>
<defs><style>.cls-1{fill:#1d1d1b;}.cls-2{fill:#fff;}.cls-3{fill:none;stroke:#000;stroke-linecap:round;stroke-miterlimit:10;stroke-width:9px;}</style></defs>
<g class="currentLayer" style=""><title>Layer 1</title>
<path class="cls-1" d="M300.8399963378906,38.28666436672211 q12.680000305175781,0 27.450000762939453,6.440000057220459 c1,0.3400000035762787 2.3399999141693115,1.5499999523162842 4.130000114440918,3.619999885559082 a13.600000381469727,13.600000381469727 0 0 1 2.0999999046325684,4.929999828338623 a10,10 0 0 1 3,5.139999866485596 a58.790000915527344,58.790000915527344 0 0 1 0.7200000286102295,10.140000343322754 c0,2.609999895095825 0,5.71999979019165 -0.07000000029802322,9.350000381469727 q0.5799999833106995,27.219999313354492 0.5799999833106995,33.459999084472656 q0,16.59000015258789 -8.470000267028809,27.809999465942383 q-5.070000171661377,5.510000228881836 -7.099999904632568,6.449999809265137 a32.5099983215332,32.5099983215332 0 0 1 -17.75,5.139999866485596 h-1.0800000429153442 a36.689998626708984,36.689998626708984 0 0 1 -13.6899995803833,-2.5299999713897705 q-6.170000076293945,-3.700000047683716 -6.159999847412109,-10.140000343322754 t6.300000190734863,-10.140000343322754 a12.649999618530273,12.649999618530273 0 0 1 5.21999979019165,-1.159999966621399 c0.5299999713897705,0 2.75,0.3799999952316284 6.659999847412109,1.159999966621399 c1,0 1.809999942779541,0.07000000029802322 2.390000104904175,0.07000000029802322 q8,0 9.779999732971191,-8 a7.809999942779541,7.809999942779541 0 0 0 0.5099999904632568,-2.5399999618530273 h-0.07999999821186066 q-9.1899995803833,3.559999942779541 -16.219999313354492,3.549999952316284 h-2.9000000953674316 q-8.329999923706055,0 -17.309999465942383,-5.070000171661377 q-16,-10.710000038146973 -16,-33.459999084472656 q0,-19.40999984741211 9.420000076293945,-31.579999923706055 Q282.6499938964844,38.28666436672211 300.8399963378906,38.28666436672211 zm-15.279999732971191,44.400001525878906 q0,15.569999694824219 11.65999984741211,15.569999694824219 h0.9399999976158142 a20.190000534057617,20.190000534057617 0 0 0 12.3100004196167,-4.199999809265137 a21.40999984741211,21.40999984741211 0 0 0 3.119999885559082,-6.670000076293945 a51,51 0 0 0 1.7400000095367432,-11.65999984741211 q0,-4.559999942779541 -0.15000000596046448,-11.800000190734863 a42.720001220703125,42.720001220703125 0 0 0 -14.630000114440918,-2.9000000953674316 q-9.710000038146973,0 -12.529999732971191,7.320000171661377 A38.45000076293945,38.45000076293945 0 0 0 285.55999755859375,82.68667352199554 z" id="svg_1"/>
<path class="cls-1" d="M415.3999938964844,37.056668639183044 A71.72000122070312,71.72000122070312 0 0 1 441,42.16666924953461 q6.579999923706055,3.690000057220459 6.590000152587891,10.569999694824219 l-0.07000000029802322,1.090000033378601 q2.890000104904175,3 2.890000104904175,10 a27.8700008392334,27.8700008392334 0 0 1 0.15000000596046448,4.710000038146973 c0,3.0899999141693115 0,6.230000019073486 -0.07000000029802322,9.420000076293945 q0.5699999928474426,27.299999237060547 0.5799999833106995,30.93000030517578 c0,3.3299999237060547 -1.5800000429153442,6.300000190734863 -4.710000038146973,8.90999984741211 a11.84000015258789,11.84000015258789 0 0 1 -6.739999771118164,2.1700000762939453 a11.569999694824219,11.569999694824219 0 0 1 -8.619999885559082,-4 l-0.14000000059604645,-0.07000000029802322 q-10.359999656677246,5.150000095367432 -19.780000686645508,5.139999866485596 H409.1000061035156 a34.06999969482422,34.06999969482422 0 0 1 -20.93000030517578,-7.239999771118164 q-13.050000190734863,-11 -13,-31.139999389648438 q0,-23.110000610351562 13,-35.86000061035156 Q399,37.04667413234711 415.3999938964844,37.056668639183044 zM397.8699951171875,82.46667230129242 q0,11.520000457763672 6.090000152587891,14.630000114440918 a13.329999923706055,13.329999923706055 0 0 0 6,1.2300000190734863 h0.14000000059604645 a19.899999618530273,19.899999618530273 0 0 0 12.680000305175781,-4.269999980926514 a14.279999732971191,14.279999732971191 0 0 0 2.390000104904175,-4.349999904632568 a46,46 0 0 0 2.4600000381469727,-13.899999618530273 q0,-3 -0.14000000059604645,-14.199999809265137 a47,47 0 0 0 -12.25,-1.809999942779541 q-11.220000267028809,0 -14.770000457763672,8.180000305175781 A38.33000183105469,38.33000183105469 0 0 0 397.8699951171875,82.46667230129242 z" id="svg_2"/>
<path class="cls-1" d="M675,38.64666497707367 h1.809999942779541 q22.809999465942383,0 34.2599983215332,15.930000305175781 a37.66999816894531,37.66999816894531 0 0 1 6.090000152587891,21.149999618530273 q0,9.569999694824219 -8.90999984741211,12.390000343322754 q0,0.4399999976158142 -42.52000045776367,1.590000033378601 q1.659999966621399,3.559999942779541 6.519999980926514,6.809999942779541 a12.800000190734863,12.800000190734863 0 0 0 6.730000019073486,1.7400000095367432 h1.309999942779541 q9.479999542236328,0 15.140000343322754,-4.78000020980835 a11.760000228881836,11.760000228881836 0 0 1 5.5,-1.590000033378601 h0.7300000190734863 q6.300000190734863,0 10.0600004196167,6.730000019073486 a13.149999618530273,13.149999618530273 0 0 1 0.8700000047683716,4.269999980926514 v0.7300000190734863 q0,9.630000114440918 -17.530000686645508,15.350000381469727 a53.689998626708984,53.689998626708984 0 0 1 -15.130000114440918,2.0999999046325684 q-15.800000190734863,0 -26.299999237060547,-10.210000038146973 a42.439998626708984,42.439998626708984 0 0 1 -7,-8.470000267028809 a52.099998474121094,52.099998474121094 0 0 1 -8,-22.530000686645508 c-0.15000000596046448,-1.5399999618530273 -0.2199999988079071,-2.7699999809265137 -0.2199999988079071,-3.690000057220459 v-2.9000000953674316 a36.220001220703125,36.220001220703125 0 0 1 7.889999866485596,-22.530000686645508 Q656.4600219726562,38.64666497707367 675,38.64666497707367 zm-12.170000076293945,28.389999389648438 h0.07000000029802322 q3.4000000953674316,0 28,-0.8700000047683716 v-0.20999999344348907 q-4.5,-4.570000171661377 -15.069999694824219,-4.570000171661377 q-10.289999961853027,0 -12.819999694824219,5 C663,66.38667047023773 662.8900146484375,66.60667169094086 662.8400268554688,67.0366643667221 z" id="svg_3"/>
<path class="cls-1" d="M545.3099975585938,146.4866842031479 c-13.539999961853027,-0.09000000357627869 -16.389999389648438,-42.189998626708984 -17.15999984741211,-46.59000015258789 s-3.5399999618530273,-6.900000095367432 -7.510000228881836,-8.279999732971191 a19.290000915527344,19.290000915527344 0 0 0 -8.449999809265137,-0.6000000238418579 s-4.320000171661377,30.790000915527344 -14.239999771118164,30.790000915527344 c-10.949999809265137,0 -9.489999771118164,-41.31999969482422 -9.140000343322754,-44.25 s1.7200000286102295,-17 8.539999961853027,-23.729999542236328 s24.84000015258789,-7.929999828338623 24.84000015258789,-7.929999828338623 s-0.17000000178813934,-0.3499999940395355 1.559999942779541,-4.139999866485596 s21.559999465942383,-4 21.559999465942383,-4 h0.2199999988079071 s19.84000015258789,0.1899999976158142 21.56999969482422,4 s1.5499999523162842,4.139999866485596 1.5499999523162842,4.139999866485596 s18,1.2000000476837158 24.850000381469727,7.929999828338623 s8.1899995803833,20.790000915527344 8.539999961853027,23.729999542236328 s1.809999942779541,44.25 -9.149999618530273,44.25 c-9.920000076293945,0 -14.229999542236328,-30.790000915527344 -14.229999542236328,-30.790000915527344 a19.329999923706055,19.329999923706055 0 0 0 -8.460000038146973,0.6000000238418579 c-4,1.3799999952316284 -6.730000019073486,3.880000114440918 -7.5,8.279999732971191 s-3.630000114440918,46.5 -17.170000076293945,46.59000015258789 z" id="svg_4"/>
<circle class="cls-2" cx="545.4199829101562" cy="95.19667053222656" r="5.819999694824219" id="svg_5"/>
<path class="cls-1" d="M160.16000366210938,156.2266744375229 h0.800000011920929 q14.109999656677246,0 28.239999771118164,9.40999984741211 q5.300000190734863,3.9100000858306885 5.289999961853027,9.640000343322754 q0,6.21999979019165 -6.300000190734863,10.069999694824219 a13.510000228881836,13.510000228881836 0 0 1 -5.210000038146973,1.159999966621399 a13.180000305175781,13.180000305175781 0 0 1 -8,-3.119999885559082 a27.780000686645508,27.780000686645508 0 0 0 -14.420000076293945,-4.489999771118164 q-8.90999984741211,0 -15.930000305175781,7.389999866485596 a18.459999084472656,18.459999084472656 0 0 0 -4.710000038146973,12.3100004196167 v0.4399999976158142 q0,9.479999542236328 8.109999656677246,15.210000038146973 a27,27 0 0 0 12.890000343322754,3.3299999237060547 a23.260000228881836,23.260000228881836 0 0 0 13.6899995803833,-4.639999866485596 a11.829999923706055,11.829999923706055 0 0 1 5.869999885559082,-1.590000033378601 q5.869999885559082,0 9.710000038146973,5.71999979019165 a11.609999656677246,11.609999656677246 0 0 1 1.5199999809265137,5.650000095367432 q0,8 -10.800000190734863,12.819999694824219 a43.33000183105469,43.33000183105469 0 0 1 -19.6200008392334,4.78000020980835 h-1.159999966621399 q-12.470000267028809,0 -24.770000457763672,-7.239999771118164 a50.900001525878906,50.900001525878906 0 0 1 -8.119999885559082,-7.099999904632568 a54.13999938964844,54.13999938964844 0 0 1 -5.360000133514404,-7.75 q-4.710000038146973,-9.779999732971191 -4.699999809265137,-18 V197.3666890859604 q0,-9.0600004196167 5.429999828338623,-19.190000534057617 q2,-3.8399999141693115 7.460000038146973,-9.420000076293945 a44.77000045776367,44.77000045776367 0 0 1 30.1299991607666,-12.529999732971191 z" id="svg_6"/>
<path class="cls-1" d="M261.1000061035156,159.91667687892914 h2.680000066757202 q11.449999809265137,0 21.299999237060547,8.479999542236328 a42.189998626708984,42.189998626708984 0 0 1 8,10.640000343322754 a48.40999984741211,48.40999984741211 0 0 1 5,21.729999542236328 q0,16.3799991607666 -9.5600004196167,28.110000610351562 q-5.5,5.789999961853027 -7.599999904632568,6.519999980926514 a30.31999969482422,30.31999969482422 0 0 1 -16.520000457763672,4.920000076293945 H262.70001220703125 A39,39 0 0 1 240.4600067138672,233.16667687892914 q-1.5199999809265137,-0.6399999856948853 -7,-6.519999980926514 A40.939998626708984,40.939998626708984 0 0 1 224.30999755859375,200.16667687892914 A41.86000061035156,41.86000061035156 0 0 1 235,171.65666711330414 q5.570000171661377,-5.440000057220459 8,-6.519999980926514 A35.81999969482422,35.81999969482422 0 0 1 261.1000061035156,159.91667687892914 zm-14,40.27000045776367 a17.780000686645508,17.780000686645508 0 0 0 5.71999979019165,13.6899995803833 a16.860000610351562,16.860000610351562 0 0 0 10.720000267028809,3.700000047683716 q7.829999923706055,0 10.789999961853027,-9.710000038146973 a26,26 0 0 0 1,-6.659999847412109 v-1 q0,-9.329999923706055 -5.800000190734863,-15.210000038146973 a10.329999923706055,10.329999923706055 0 0 0 -6.880000114440918,-2.309999942779541 q-10.140000343322754,0 -14.270000457763672,10.279999732971191 A26.43000030517578,26.43000030517578 0 0 0 247.0500030517578,200.16667687892914 z" id="svg_7"/>
<path class="cls-1" d="M344.3699951171875,160.27666223049164 q5.940000057220459,0 9.779999732971191,5.800000190734863 a11.699999809265137,11.699999809265137 0 0 1 1.5199999809265137,5.360000133514404 q-0.4399999976158142,6.659999847412109 -0.4300000071525574,11.369999885559082 q0,22.68000030517578 6.300000190734863,32.22999954223633 a5.179999828338623,5.179999828338623 0 0 0 4.340000152587891,2.390000104904175 q4.059999942779541,0 7.389999866485596,-6.519999980926514 a49.56999969482422,49.56999969482422 0 0 0 3.7699999809265137,-9.5600004196167 q2,-5.579999923706055 3.9100000858306885,-19.260000228881836 q0.6499999761581421,-5.809999942779541 1,-11.59000015258789 a11.720000267028809,11.720000267028809 0 0 1 3,-6.159999847412109 a11.470000267028809,11.470000267028809 0 0 1 8.329999923706055,-3.619999885559082 q5.579999923706055,0 9.489999771118164,5.360000133514404 c1.25,1.5 1.8799999952316284,4.730000019073486 1.8799999952316284,9.710000038146973 q1.590000033378601,49.38999938964844 1.600000023841858,53.29999923706055 q0,5.940000057220459 -5.730000019073486,9.710000038146973 a11.699999809265137,11.699999809265137 0 0 1 -5.71999979019165,1.5199999809265137 q-6.579999923706055,0 -10.430000305175781,-6.949999809265137 h-0.14000000059604645 a28,28 0 0 1 -18.399999618530273,6.730000019073486 q-14.420000076293945,0 -23.540000915527344,-13.109999656677246 q-9.779999732971191,-14.770000457763672 -9.779999732971191,-44.18000030517578 q0,-13 1.3799999952316284,-15.640000343322754 Q337.4800109863281,160.28667199611664 344.3699951171875,160.27666223049164 z" id="svg_8"/>
<path class="cls-1" d="M480.79998779296875,160.64668786525726 h2.680000066757202 q8.260000228881836,0 16.59000015258789,6.300000190734863 q6.809999942779541,5.579999923706055 6.809999942779541,11.079999923706055 v0.800000011920929 q0,6.300000190734863 -6.739999771118164,10.0600004196167 a12.489999771118164,12.489999771118164 0 0 1 -4.199999809265137,0.8700000047683716 h-0.7200000286102295 q-5,0 -9.5600004196167,-5.139999866485596 a6,6 0 0 0 -3.630000114440918,-1.2300000190734863 q-2.819999933242798,0 -4.559999942779541,3 c-1.2100000381469727,1.5499999523162842 -2.4800000190734863,4.369999885559082 -3.8399999141693115,8.470000267028809 a117,117 0 0 0 -3.9100000858306885,31.440000534057617 c0.10000000149011612,1.7899999618530273 0.15000000596046448,3 0.15000000596046448,3.549999952316284 c0,1.8300000429153442 -0.8999999761581421,4 -2.680000066757202,6.440000057220459 q-3.759999990463257,4.070000171661377 -8.329999923706055,4.059999942779541 h-0.800000011920929 q-6.300000190734863,0 -10.069999694824219,-6.739999771118164 q-1.149999976158142,-1.9500000476837158 -1.159999966621399,-12.3100004196167 q-1.440000057220459,-46.220001220703125 -1.440000057220459,-49.7599983215332 q0,-4.630000114440918 4.920000076293945,-8.6899995803833 a11.279999732971191,11.279999732971191 0 0 1 6.159999847412109,-2 h0.5 q5.139999866485596,0 9.0600004196167,4.849999904632568 A26,26 0 0 1 480.79998779296875,160.64668786525726 z" id="svg_9"/>
<path class="cls-1" d="M675,157.88667809963226 h1.809999942779541 q22.809999465942383,0 34.2599983215332,15.9399995803833 a37.650001525878906,37.650001525878906 0 0 1 6.090000152587891,21.149999618530273 q0,9.5600004196167 -8.90999984741211,12.380000114440918 q0,0.4399999976158142 -42.52000045776367,1.600000023841858 q1.659999966621399,3.5399999618530273 6.519999980926514,6.809999942779541 a12.800000190734863,12.800000190734863 0 0 0 6.730000019073486,1.7400000095367432 h1.309999942779541 q9.479999542236328,0 15.140000343322754,-4.789999961853027 a11.760000228881836,11.760000228881836 0 0 1 5.5,-1.590000033378601 h0.7300000190734863 q6.300000190734863,0 10.0600004196167,6.739999771118164 a13.100000381469727,13.100000381469727 0 0 1 0.8700000047683716,4.269999980926514 v0.7200000286102295 q0,9.649999618530273 -17.530000686645508,15.359999656677246 a54.060001373291016,54.060001373291016 0 0 1 -15.130000114440918,2.0999999046325684 q-15.800000190734863,0 -26.299999237060547,-10.210000038146973 a42.45000076293945,42.45000076293945 0 0 1 -7,-8.479999542236328 a52,52 0 0 1 -8,-22.520000457763672 c-0.15000000596046448,-1.5499999523162842 -0.2199999988079071,-2.7799999713897705 -0.2199999988079071,-3.700000047683716 v-2.890000104904175 a36.16999816894531,36.16999816894531 0 0 1 7.900000095367432,-22.530000686645508 Q656.4600219726562,157.89665734767914 675,157.88667809963226 zm-12.170000076293945,28.399999618530273 h0.07000000029802322 q3.4000000953674316,0 28,-0.8700000047683716 V185.16667687892914 q-4.5,-4.559999942779541 -15.069999694824219,-4.559999942779541 q-10.289999961853027,0 -12.819999694824219,5 C663,185.62666833400726 662.8900146484375,185.8466695547104 662.8400268554688,186.28667199611664 z" id="svg_10"/>

<line class="cls-3" x1="93.8066635131836" y1="306.8233451843262" x2="111.5566635131836" y2="306.8233451843262" id="svg_12"/>
<line class="cls-3" x1="93.8066635131836" y1="342.9033622741699" x2="111.5566635131836" y2="342.9033622741699" id="svg_13"/>
<path class="cls-1" d="M690.5599975585938,265.92668664455414 h-156 a16.110000610351562,16.110000610351562 0 1 1 6.559999942779541,-30.81999969482422 c0.8899999856948853,0.38999998569488525 3.5299999713897705,1.25 4,1.440000057220459 a98.5999984741211,98.5999984741211 0 0 0 25.200000762939453,3.7699999809265137 c1,0 2,0 3,-0.07000000029802322 l1.3799999952316284,-0.07000000029802322 q18,-0.8100000023841858 26.579999923706055,-12.25 q4.630000114440918,-7.099999904632568 4.639999866485596,-13.760000228881836 v-1.2999999523162842 q-0.7400000095367432,-15.359999656677246 -23.690000534057617,-22.600000381469727 q-17.100000381469727,-4.849999904632568 -20.56999969482422,-7.170000076293945 c1,-1.2100000381469727 3.359999895095825,-1.909999966621399 7,-2.0999999046325684 c0.5299999713897705,-0.05000000074505806 1.0800000429153442,-0.07000000029802322 1.659999966621399,-0.07000000029802322 a59.2400016784668,59.2400016784668 0 0 1 13,1.659999966621399 q8.100000381469727,2.4000000953674316 10.279999732971191,2.390000104904175 h0.15000000596046448 a14.170000076293945,14.170000076293945 0 0 0 5.210000038146973,-1.440000057220459 q5.800000190734863,-3.9200000762939453 5.800000190734863,-9.710000038146973 v-0.5799999833106995 c-0.25,-4.539999961853027 -2.680000066757202,-7.940000057220459 -7.320000171661377,-10.210000038146973 Q582,158.16667687892914 570.5900268554688,158.16667687892914 c-0.7200000286102295,0 -1.4500000476837158,0 -2.1700000762939453,0.07999999821186066 l-1.4500000476837158,0.07000000029802322 q-14.489999771118164,0.6499999761581421 -22.670000076293945,10.069999694824219 q-5.869999885559082,7.380000114440918 -5.869999885559082,15.350000381469727 V185.16667687892914 q0.7200000286102295,16.079999923706055 25.790000915527344,23.469999313354492 q15.350000381469727,4.409999847412109 18.18000030517578,6.300000190734863 v0.14000000059604645 c-1.5499999523162842,1.4500000476837158 -4.610000133514404,2.2699999809265137 -9.199999809265137,2.4700000286102295 c-0.8199999928474426,0 -1.6699999570846558,0.07000000029802322 -2.5399999618530273,0.07000000029802322 A66.52999877929688,66.52999877929688 0 0 1 557.77001953125,216.16667687892914 a67,67 0 0 0 -8.6899995803833,-1.5199999809265137 h-0.14000000059604645 c-0.6100000143051147,0 -10,-2 -14.359999656677246,-2 a37.11000061035156,37.11000061035156 0 0 0 0,74.20999908447266 h156 a16.110000610351562,16.110000610351562 0 1 1 0,32.220001220703125 h-526 a10.5,10.5 0 0 0 0,21 h526 a37.11000061035156,37.11000061035156 0 1 0 0,-74.22000122070312 z" id="svg_14"/>
<path d="M110.66666412353516,322.6333312988281 V287.9833526611328 a6.429999828338623,6.429999828338623 0 0 1 6.25,-6.449999809265137 c34.04999923706055,-0.7599999904632568 59.43000030517578,10.399999618530273 59.43000030517578,41.099998474121094 c0,36.40999984741211 -23.540000915527344,45.5099983215332 -59.2599983215332,45.59000015258789 a6.440000057220459,6.440000057220459 0 0 1 -6.420000076293945,-6.449999809265137 z" id="svg_11" class="" transform="translate(2.5, 1.66667)"/></g></svg> -->


<svg xmlns="http://www.w3.org/2000/svg" width="839.6666671037674" height="373.6666671037674" style=""><rect id="backgroundrect" width="100%" height="100%" x="0" y="0" fill="none" stroke="none" style="" class=""/>
<defs><style>.cls-1{fill:#1d1d1b;}.cls-2{fill:#fff;}.cls-3{fill:none;stroke:#000;stroke-linecap:round;stroke-miterlimit:10;stroke-width:9px;}</style></defs>
<g class="currentLayer" style=""><title>Layer 1</title>
<path class="cls-1" d="M61.67333984375,24.119997024536133 q12.680000305175781,0 27.450000762939453,6.440000057220459 c1,0.3400000035762787 2.3399999141693115,1.5499999523162842 4.130000114440918,3.619999885559082 a13.600000381469727,13.600000381469727 0 0 1 2.0999999046325684,4.929999828338623 a10,10 0 0 1 3,5.139999866485596 a58.790000915527344,58.790000915527344 0 0 1 0.7200000286102295,10.140000343322754 c0,2.609999895095825 0,5.71999979019165 -0.07000000029802322,9.350000381469727 q0.5799999833106995,27.219999313354492 0.5799999833106995,33.459999084472656 q0,16.59000015258789 -8.470000267028809,27.809999465942383 q-5.070000171661377,5.510000228881836 -7.099999904632568,6.449999809265137 a32.5099983215332,32.5099983215332 0 0 1 -17.75,5.139999866485596 h-1.0800000429153442 a36.689998626708984,36.689998626708984 0 0 1 -13.6899995803833,-2.5299999713897705 q-6.170000076293945,-3.700000047683716 -6.159999847412109,-10.140000343322754 t6.300000190734863,-10.140000343322754 a12.649999618530273,12.649999618530273 0 0 1 5.21999979019165,-1.159999966621399 c0.5299999713897705,0 2.75,0.3799999952316284 6.659999847412109,1.159999966621399 c1,0 1.809999942779541,0.07000000029802322 2.390000104904175,0.07000000029802322 q8,0 9.779999732971191,-8 a7.809999942779541,7.809999942779541 0 0 0 0.5099999904632568,-2.5399999618530273 h-0.07999999821186066 q-9.1899995803833,3.559999942779541 -16.219999313354492,3.549999952316284 h-2.9000000953674316 q-8.329999923706055,0 -17.309999465942383,-5.070000171661377 q-16,-10.710000038146973 -16,-33.459999084472656 q0,-19.40999984741211 9.420000076293945,-31.579999923706055 Q43.48333740234375,24.119997024536133 61.67333984375,24.119997024536133 zm-15.279999732971191,44.400001525878906 q0,15.569999694824219 11.65999984741211,15.569999694824219 h0.9399999976158142 a20.190000534057617,20.190000534057617 0 0 0 12.3100004196167,-4.199999809265137 a21.40999984741211,21.40999984741211 0 0 0 3.119999885559082,-6.670000076293945 a51,51 0 0 0 1.7400000095367432,-11.65999984741211 q0,-4.559999942779541 -0.15000000596046448,-11.800000190734863 a42.720001220703125,42.720001220703125 0 0 0 -14.630000114440918,-2.9000000953674316 q-9.710000038146973,0 -12.529999732971191,7.320000171661377 A38.45000076293945,38.45000076293945 0 0 0 46.393341064453125,68.52000999450684 z" id="svg_1"/>
<path class="cls-1" d="M176.23333740234375,22.89000129699707 A71.72000122070312,71.72000122070312 0 0 1 201.83334350585938,28.000001907348633 q6.579999923706055,3.690000057220459 6.590000152587891,10.569999694824219 l-0.07000000029802322,1.090000033378601 q2.890000104904175,3 2.890000104904175,10 a27.8700008392334,27.8700008392334 0 0 1 0.15000000596046448,4.710000038146973 c0,3.0899999141693115 0,6.230000019073486 -0.07000000029802322,9.420000076293945 q0.5699999928474426,27.299999237060547 0.5799999833106995,30.93000030517578 c0,3.3299999237060547 -1.5800000429153442,6.300000190734863 -4.710000038146973,8.90999984741211 a11.84000015258789,11.84000015258789 0 0 1 -6.739999771118164,2.1700000762939453 a11.569999694824219,11.569999694824219 0 0 1 -8.619999885559082,-4 l-0.14000000059604645,-0.07000000029802322 q-10.359999656677246,5.150000095367432 -19.780000686645508,5.139999866485596 H169.933349609375 a34.06999969482422,34.06999969482422 0 0 1 -20.93000030517578,-7.239999771118164 q-13.050000190734863,-11 -13,-31.139999389648438 q0,-23.110000610351562 13,-35.86000061035156 Q159.83334350585938,22.880006790161133 176.23333740234375,22.89000129699707 zM158.70333862304688,68.30000877380371 q0,11.520000457763672 6.090000152587891,14.630000114440918 a13.329999923706055,13.329999923706055 0 0 0 6,1.2300000190734863 h0.14000000059604645 a19.899999618530273,19.899999618530273 0 0 0 12.680000305175781,-4.269999980926514 a14.279999732971191,14.279999732971191 0 0 0 2.390000104904175,-4.349999904632568 a46,46 0 0 0 2.4600000381469727,-13.899999618530273 q0,-3 -0.14000000059604645,-14.199999809265137 a47,47 0 0 0 -12.25,-1.809999942779541 q-11.220000267028809,0 -14.770000457763672,8.180000305175781 A38.33000183105469,38.33000183105469 0 0 0 158.70333862304688,68.30000877380371 z" id="svg_2"/>
<path class="cls-1" d="M435.8333435058594,24.479997634887695 h1.809999942779541 q22.809999465942383,0 34.2599983215332,15.930000305175781 a37.66999816894531,37.66999816894531 0 0 1 6.090000152587891,21.149999618530273 q0,9.569999694824219 -8.90999984741211,12.390000343322754 q0,0.4399999976158142 -42.52000045776367,1.590000033378601 q1.659999966621399,3.559999942779541 6.519999980926514,6.809999942779541 a12.800000190734863,12.800000190734863 0 0 0 6.730000019073486,1.7400000095367432 h1.309999942779541 q9.479999542236328,0 15.140000343322754,-4.78000020980835 a11.760000228881836,11.760000228881836 0 0 1 5.5,-1.590000033378601 h0.7300000190734863 q6.300000190734863,0 10.0600004196167,6.730000019073486 a13.149999618530273,13.149999618530273 0 0 1 0.8700000047683716,4.269999980926514 v0.7300000190734863 q0,9.630000114440918 -17.530000686645508,15.350000381469727 a53.689998626708984,53.689998626708984 0 0 1 -15.130000114440918,2.0999999046325684 q-15.800000190734863,0 -26.299999237060547,-10.210000038146973 a42.439998626708984,42.439998626708984 0 0 1 -7,-8.470000267028809 a52.099998474121094,52.099998474121094 0 0 1 -8,-22.530000686645508 c-0.15000000596046448,-1.5399999618530273 -0.2199999988079071,-2.7699999809265137 -0.2199999988079071,-3.690000057220459 v-2.9000000953674316 a36.220001220703125,36.220001220703125 0 0 1 7.889999866485596,-22.530000686645508 Q417.2933654785156,24.479997634887695 435.8333435058594,24.479997634887695 zm-12.170000076293945,28.389999389648438 h0.07000000029802322 q3.4000000953674316,0 28,-0.8700000047683716 v-0.20999999344348907 q-4.5,-4.570000171661377 -15.069999694824219,-4.570000171661377 q-10.289999961853027,0 -12.819999694824219,5 C423.8333435058594,52.22000694274902 423.7233581542969,52.44000816345215 423.6733703613281,52.8700008392334 z" id="svg_3"/>
<path class="cls-1" d="M306.1433410644531,132.32001304626465 c-13.539999961853027,-0.09000000357627869 -16.389999389648438,-42.189998626708984 -17.15999984741211,-46.59000015258789 s-3.5399999618530273,-6.900000095367432 -7.510000228881836,-8.279999732971191 a19.290000915527344,19.290000915527344 0 0 0 -8.449999809265137,-0.6000000238418579 s-4.320000171661377,30.790000915527344 -14.239999771118164,30.790000915527344 c-10.949999809265137,0 -9.489999771118164,-41.31999969482422 -9.140000343322754,-44.25 s1.7200000286102295,-17 8.539999961853027,-23.729999542236328 s24.84000015258789,-7.929999828338623 24.84000015258789,-7.929999828338623 s-0.17000000178813934,-0.3499999940395355 1.559999942779541,-4.139999866485596 s21.559999465942383,-4 21.559999465942383,-4 h0.2199999988079071 s19.84000015258789,0.1899999976158142 21.56999969482422,4 s1.5499999523162842,4.139999866485596 1.5499999523162842,4.139999866485596 s18,1.2000000476837158 24.850000381469727,7.929999828338623 s8.1899995803833,20.790000915527344 8.539999961853027,23.729999542236328 s1.809999942779541,44.25 -9.149999618530273,44.25 c-9.920000076293945,0 -14.229999542236328,-30.790000915527344 -14.229999542236328,-30.790000915527344 a19.329999923706055,19.329999923706055 0 0 0 -8.460000038146973,0.6000000238418579 c-4,1.3799999952316284 -6.730000019073486,3.880000114440918 -7.5,8.279999732971191 s-3.630000114440918,46.5 -17.170000076293945,46.59000015258789 z" id="svg_4"/>
<circle class="cls-2" cx="306.2533264160156" cy="81.03000450134277" r="5.8199920654296875" id="svg_5"/>
<path class="cls-1" d="M236.82666015625,138.72667503356934 h0.800000011920929 q14.109999656677246,0 28.239999771118164,9.40999984741211 q5.300000190734863,3.9100000858306885 5.289999961853027,9.640000343322754 q0,6.21999979019165 -6.300000190734863,10.069999694824219 a13.510000228881836,13.510000228881836 0 0 1 -5.210000038146973,1.159999966621399 a13.180000305175781,13.180000305175781 0 0 1 -8,-3.119999885559082 a27.780000686645508,27.780000686645508 0 0 0 -14.420000076293945,-4.489999771118164 q-8.90999984741211,0 -15.930000305175781,7.389999866485596 a18.459999084472656,18.459999084472656 0 0 0 -4.710000038146973,12.3100004196167 v0.4399999976158142 q0,9.479999542236328 8.109999656677246,15.210000038146973 a27,27 0 0 0 12.890000343322754,3.3299999237060547 a23.260000228881836,23.260000228881836 0 0 0 13.6899995803833,-4.639999866485596 a11.829999923706055,11.829999923706055 0 0 1 5.869999885559082,-1.590000033378601 q5.869999885559082,0 9.710000038146973,5.71999979019165 a11.609999656677246,11.609999656677246 0 0 1 1.5199999809265137,5.650000095367432 q0,8 -10.800000190734863,12.819999694824219 a43.33000183105469,43.33000183105469 0 0 1 -19.6200008392334,4.78000020980835 h-1.159999966621399 q-12.470000267028809,0 -24.770000457763672,-7.239999771118164 a50.900001525878906,50.900001525878906 0 0 1 -8.119999885559082,-7.099999904632568 a54.13999938964844,54.13999938964844 0 0 1 -5.360000133514404,-7.75 q-4.710000038146973,-9.779999732971191 -4.699999809265137,-18 V179.86668968200684 q0,-9.0600004196167 5.429999828338623,-19.190000534057617 q2,-3.8399999141693115 7.460000038146973,-9.420000076293945 a44.77000045776367,44.77000045776367 0 0 1 30.1299991607666,-12.529999732971191 z" id="svg_6"/>
<path class="cls-1" d="M337.76666259765625,142.4166774749756 h2.680000066757202 q11.449999809265137,0 21.299999237060547,8.479999542236328 a42.189998626708984,42.189998626708984 0 0 1 8,10.640000343322754 a48.40999984741211,48.40999984741211 0 0 1 5,21.729999542236328 q0,16.3799991607666 -9.5600004196167,28.110000610351562 q-5.5,5.789999961853027 -7.599999904632568,6.519999980926514 a30.31999969482422,30.31999969482422 0 0 1 -16.520000457763672,4.920000076293945 H339.3666687011719 A39,39 0 0 1 317.1266784667969,215.6666774749756 q-1.5199999809265137,-0.6399999856948853 -7,-6.519999980926514 A40.939998626708984,40.939998626708984 0 0 1 300.9766540527344,182.6666774749756 A41.86000061035156,41.86000061035156 0 0 1 311.6666564941406,154.1566677093506 q5.570000171661377,-5.440000057220459 8,-6.519999980926514 A35.81999969482422,35.81999969482422 0 0 1 337.76666259765625,142.4166774749756 zm-14,40.27000045776367 a17.780000686645508,17.780000686645508 0 0 0 5.71999979019165,13.6899995803833 a16.860000610351562,16.860000610351562 0 0 0 10.720000267028809,3.700000047683716 q7.829999923706055,0 10.789999961853027,-9.710000038146973 a26,26 0 0 0 1,-6.659999847412109 v-1 q0,-9.329999923706055 -5.800000190734863,-15.210000038146973 a10.329999923706055,10.329999923706055 0 0 0 -6.880000114440918,-2.309999942779541 q-10.140000343322754,0 -14.270000457763672,10.279999732971191 A26.43000030517578,26.43000030517578 0 0 0 323.7166748046875,182.6666774749756 z" id="svg_7"/>
<path class="cls-1" d="M421.0366516113281,142.7766628265381 q5.940000057220459,0 9.779999732971191,5.800000190734863 a11.699999809265137,11.699999809265137 0 0 1 1.5199999809265137,5.360000133514404 q-0.4399999976158142,6.659999847412109 -0.4300000071525574,11.369999885559082 q0,22.68000030517578 6.300000190734863,32.22999954223633 a5.179999828338623,5.179999828338623 0 0 0 4.340000152587891,2.390000104904175 q4.059999942779541,0 7.389999866485596,-6.519999980926514 a49.56999969482422,49.56999969482422 0 0 0 3.7699999809265137,-9.5600004196167 q2,-5.579999923706055 3.9100000858306885,-19.260000228881836 q0.6499999761581421,-5.809999942779541 1,-11.59000015258789 a11.720000267028809,11.720000267028809 0 0 1 3,-6.159999847412109 a11.470000267028809,11.470000267028809 0 0 1 8.329999923706055,-3.619999885559082 q5.579999923706055,0 9.489999771118164,5.360000133514404 c1.25,1.5 1.8799999952316284,4.730000019073486 1.8799999952316284,9.710000038146973 q1.590000033378601,49.38999938964844 1.600000023841858,53.29999923706055 q0,5.940000057220459 -5.730000019073486,9.710000038146973 a11.699999809265137,11.699999809265137 0 0 1 -5.71999979019165,1.5199999809265137 q-6.579999923706055,0 -10.430000305175781,-6.949999809265137 h-0.14000000059604645 a28,28 0 0 1 -18.399999618530273,6.730000019073486 q-14.420000076293945,0 -23.540000915527344,-13.109999656677246 q-9.779999732971191,-14.770000457763672 -9.779999732971191,-44.18000030517578 q0,-13 1.3799999952316284,-15.640000343322754 Q414.14666748046875,142.7866725921631 421.0366516113281,142.7766628265381 z" id="svg_8"/>
<path class="cls-1" d="M557.4666748046875,143.1466884613037 h2.680000066757202 q8.260000228881836,0 16.59000015258789,6.300000190734863 q6.809999942779541,5.579999923706055 6.809999942779541,11.079999923706055 v0.800000011920929 q0,6.300000190734863 -6.739999771118164,10.0600004196167 a12.489999771118164,12.489999771118164 0 0 1 -4.199999809265137,0.8700000047683716 h-0.7200000286102295 q-5,0 -9.5600004196167,-5.139999866485596 a6,6 0 0 0 -3.630000114440918,-1.2300000190734863 q-2.819999933242798,0 -4.559999942779541,3 c-1.2100000381469727,1.5499999523162842 -2.4800000190734863,4.369999885559082 -3.8399999141693115,8.470000267028809 a117,117 0 0 0 -3.9100000858306885,31.440000534057617 c0.10000000149011612,1.7899999618530273 0.15000000596046448,3 0.15000000596046448,3.549999952316284 c0,1.8300000429153442 -0.8999999761581421,4 -2.680000066757202,6.440000057220459 q-3.759999990463257,4.070000171661377 -8.329999923706055,4.059999942779541 h-0.800000011920929 q-6.300000190734863,0 -10.069999694824219,-6.739999771118164 q-1.149999976158142,-1.9500000476837158 -1.159999966621399,-12.3100004196167 q-1.440000057220459,-46.220001220703125 -1.440000057220459,-49.7599983215332 q0,-4.630000114440918 4.920000076293945,-8.6899995803833 a11.279999732971191,11.279999732971191 0 0 1 6.159999847412109,-2 h0.5 q5.139999866485596,0 9.0600004196167,4.849999904632568 A26,26 0 0 1 557.4666748046875,143.1466884613037 z" id="svg_9"/>
<path class="cls-1" d="M751.6666870117188,140.3866786956787 h1.809999942779541 q22.809999465942383,0 34.2599983215332,15.9399995803833 a37.650001525878906,37.650001525878906 0 0 1 6.090000152587891,21.149999618530273 q0,9.5600004196167 -8.90999984741211,12.380000114440918 q0,0.4399999976158142 -42.52000045776367,1.600000023841858 q1.659999966621399,3.5399999618530273 6.519999980926514,6.809999942779541 a12.800000190734863,12.800000190734863 0 0 0 6.730000019073486,1.7400000095367432 h1.309999942779541 q9.479999542236328,0 15.140000343322754,-4.789999961853027 a11.760000228881836,11.760000228881836 0 0 1 5.5,-1.590000033378601 h0.7300000190734863 q6.300000190734863,0 10.0600004196167,6.739999771118164 a13.100000381469727,13.100000381469727 0 0 1 0.8700000047683716,4.269999980926514 v0.7200000286102295 q0,9.649999618530273 -17.530000686645508,15.359999656677246 a54.060001373291016,54.060001373291016 0 0 1 -15.130000114440918,2.0999999046325684 q-15.800000190734863,0 -26.299999237060547,-10.210000038146973 a42.45000076293945,42.45000076293945 0 0 1 -7,-8.479999542236328 a52,52 0 0 1 -8,-22.520000457763672 c-0.15000000596046448,-1.5499999523162842 -0.2199999988079071,-2.7799999713897705 -0.2199999988079071,-3.700000047683716 v-2.890000104904175 a36.16999816894531,36.16999816894531 0 0 1 7.900000095367432,-22.530000686645508 Q733.126708984375,140.3966579437256 751.6666870117188,140.3866786956787 zm-12.170000076293945,28.399999618530273 h0.07000000029802322 q3.4000000953674316,0 28,-0.8700000047683716 V167.6666774749756 q-4.5,-4.559999942779541 -15.069999694824219,-4.559999942779541 q-10.289999961853027,0 -12.819999694824219,5 C739.6666870117188,168.1266689300537 739.5567016601562,168.34667015075684 739.5067138671875,168.7866725921631 z" id="svg_10"/>

<line class="cls-3" x1="170.47332763671875" y1="289.3233242034912" x2="188.22332763671875" y2="289.3233242034912" id="svg_12"/>
<line class="cls-3" x1="170.47332763671875" y1="325.40334129333496" x2="188.22332763671875" y2="325.40334129333496" id="svg_13"/>
<path class="cls-1" d="M767.2266845703125,248.4266872406006 h-156 a16.110000610351562,16.110000610351562 0 1 1 6.559999942779541,-30.81999969482422 c0.8899999856948853,0.38999998569488525 3.5299999713897705,1.25 4,1.440000057220459 a98.5999984741211,98.5999984741211 0 0 0 25.200000762939453,3.7699999809265137 c1,0 2,0 3,-0.07000000029802322 l1.3799999952316284,-0.07000000029802322 q18,-0.8100000023841858 26.579999923706055,-12.25 q4.630000114440918,-7.099999904632568 4.639999866485596,-13.760000228881836 v-1.2999999523162842 q-0.7400000095367432,-15.359999656677246 -23.690000534057617,-22.600000381469727 q-17.100000381469727,-4.849999904632568 -20.56999969482422,-7.170000076293945 c1,-1.2100000381469727 3.359999895095825,-1.909999966621399 7,-2.0999999046325684 c0.5299999713897705,-0.05000000074505806 1.0800000429153442,-0.07000000029802322 1.659999966621399,-0.07000000029802322 a59.2400016784668,59.2400016784668 0 0 1 13,1.659999966621399 q8.100000381469727,2.4000000953674316 10.279999732971191,2.390000104904175 h0.15000000596046448 a14.170000076293945,14.170000076293945 0 0 0 5.210000038146973,-1.440000057220459 q5.800000190734863,-3.9200000762939453 5.800000190734863,-9.710000038146973 v-0.5799999833106995 c-0.25,-4.539999961853027 -2.680000066757202,-7.940000057220459 -7.320000171661377,-10.210000038146973 Q658.6666870117188,140.6666774749756 647.2567138671875,140.6666774749756 c-0.7200000286102295,0 -1.4500000476837158,0 -2.1700000762939453,0.07999999821186066 l-1.4500000476837158,0.07000000029802322 q-14.489999771118164,0.6499999761581421 -22.670000076293945,10.069999694824219 q-5.869999885559082,7.380000114440918 -5.869999885559082,15.350000381469727 V167.6666774749756 q0.7200000286102295,16.079999923706055 25.790000915527344,23.469999313354492 q15.350000381469727,4.409999847412109 18.18000030517578,6.300000190734863 v0.14000000059604645 c-1.5499999523162842,1.4500000476837158 -4.610000133514404,2.2699999809265137 -9.199999809265137,2.4700000286102295 c-0.8199999928474426,0 -1.6699999570846558,0.07000000029802322 -2.5399999618530273,0.07000000029802322 A66.52999877929688,66.52999877929688 0 0 1 634.4367065429688,198.6666774749756 a67,67 0 0 0 -8.6899995803833,-1.5199999809265137 h-0.14000000059604645 c-0.6100000143051147,0 -10,-2 -14.359999656677246,-2 a37.11000061035156,37.11000061035156 0 0 0 0,74.20999908447266 h156 a16.110000610351562,16.110000610351562 0 1 1 0,32.220001220703125 h-526 a10.5,10.5 0 0 0 0,21 h526 a37.11000061035156,37.11000061035156 0 1 0 0,-74.22000122070312 z" id="svg_14"/>
<path d="M189.8333282470703,306.7999782562256 V272.1499843597412 a6.429999828338623,6.429999828338623 0 0 1 6.25,-6.449999809265137 c34.04999923706055,-0.7599999904632568 59.43000030517578,10.399999618530273 59.43000030517578,41.099998474121094 c0,36.40999984741211 -23.540000915527344,45.5099983215332 -59.2599983215332,45.59000015258789 a6.440000057220459,6.440000057220459 0 0 1 -6.420000076293945,-6.449999809265137 z" id="svg_11" class=""/></g></svg>