<svg xmlns="http://www.w3.org/2000/svg" viewBox="0 0 841.89 595.28">
<defs><style>.cls-1{fill:#1d1d1b;}.cls-2{fill:#fff;}.cls-3{fill:none;stroke:#000;stroke-linecap:round;stroke-miterlimit:10;stroke-width:9px;}</style></defs>
<g id="Camada_1" data-name="Camada 1">
<path class="cls-1" d="M285.84,134.12q12.68,0,27.45,6.44c1,.34,2.34,1.55,4.13,3.62a13.6,13.6,0,0,1,2.1,4.93,10,10,0,0,1,3,5.14,58.79,58.79,0,0,1,.72,10.14c0,2.61,0,5.72-.07,9.35q.58,27.22.58,33.46,0,16.59-8.47,27.81-5.07,5.51-7.1,6.45a32.51,32.51,0,0,1-17.75,5.14h-1.08a36.69,36.69,0,0,1-13.69-2.53q-6.17-3.7-6.16-10.14t6.3-10.14a12.65,12.65,0,0,1,5.22-1.16c.53,0,2.75.38,6.66,1.16,1,0,1.81.07,2.39.07q8,0,9.78-8a7.81,7.81,0,0,0,.51-2.54h-.08q-9.19,3.56-16.22,3.55h-2.9q-8.33,0-17.31-5.07-16-10.71-16-33.46,0-19.41,9.42-31.58Q267.65,134.12,285.84,134.12Zm-15.28,44.4q0,15.57,11.66,15.57h.94a20.19,20.19,0,0,0,12.31-4.2,21.41,21.41,0,0,0,3.12-6.67,51,51,0,0,0,1.74-11.66q0-4.56-.15-11.8a42.72,42.72,0,0,0-14.63-2.9q-9.71,0-12.53,7.32A38.45,38.45,0,0,0,270.56,178.52Z"/>
<path class="cls-1" d="M400.4,132.89A71.72,71.72,0,0,1,426,138q6.58,3.69,6.59,10.57l-.07,1.09q2.89,3,2.89,10a27.87,27.87,0,0,1,.15,4.71c0,3.09,0,6.23-.07,9.42q.57,27.3.58,30.93c0,3.33-1.58,6.3-4.71,8.91a11.84,11.84,0,0,1-6.74,2.17,11.57,11.57,0,0,1-8.62-4l-.14-.07q-10.36,5.15-19.78,5.14H394.1a34.07,34.07,0,0,1-20.93-7.24q-13.05-11-13-31.14,0-23.11,13-35.86Q384,132.88,400.4,132.89ZM382.87,178.3q0,11.52,6.09,14.63a13.33,13.33,0,0,0,6,1.23h.14a19.9,19.9,0,0,0,12.68-4.27,14.28,14.28,0,0,0,2.39-4.35,46,46,0,0,0,2.46-13.9q0-3-.14-14.2a47,47,0,0,0-12.25-1.81q-11.22,0-14.77,8.18A38.33,38.33,0,0,0,382.87,178.3Z"/>
<path class="cls-1" d="M660,134.48h1.81q22.81,0,34.26,15.93a37.67,37.67,0,0,1,6.09,21.15q0,9.57-8.91,12.39,0,.44-42.52,1.59,1.66,3.56,6.52,6.81a12.8,12.8,0,0,0,6.73,1.74h1.31q9.48,0,15.14-4.78a11.76,11.76,0,0,1,5.5-1.59h.73q6.3,0,10.06,6.73a13.15,13.15,0,0,1,.87,4.27v.73q0,9.63-17.53,15.35a53.69,53.69,0,0,1-15.13,2.1q-15.8,0-26.3-10.21a42.44,42.44,0,0,1-7-8.47,52.1,52.1,0,0,1-8-22.53c-.15-1.54-.22-2.77-.22-3.69v-2.9a36.22,36.22,0,0,1,7.89-22.53Q641.46,134.48,660,134.48Zm-12.17,28.39h.07q3.4,0,28-.87v-.21q-4.5-4.57-15.07-4.57-10.29,0-12.82,5C648,162.22,647.89,162.44,647.84,162.87Z"/>
<path class="cls-1" d="M530.31,242.32c-13.54-.09-16.39-42.19-17.16-46.59s-3.54-6.9-7.51-8.28a19.29,19.29,0,0,0-8.45-.6s-4.32,30.79-14.24,30.79c-10.95,0-9.49-41.32-9.14-44.25s1.72-17,8.54-23.73,24.84-7.93,24.84-7.93-.17-.35,1.56-4.14,21.56-4,21.56-4h.22s19.84.19,21.57,4,1.55,4.14,1.55,4.14,18,1.2,24.85,7.93,8.19,20.79,8.54,23.73,1.81,44.25-9.15,44.25c-9.92,0-14.23-30.79-14.23-30.79a19.33,19.33,0,0,0-8.46.6c-4,1.38-6.73,3.88-7.5,8.28s-3.63,46.5-17.17,46.59Z"/>
<circle class="cls-2" cx="530.42" cy="191.03" r="5.82"/>
<path class="cls-1" d="M145.16,252.06h.8q14.11,0,28.24,9.41,5.3,3.91,5.29,9.64,0,6.22-6.3,10.07a13.51,13.51,0,0,1-5.21,1.16,13.18,13.18,0,0,1-8-3.12,27.78,27.78,0,0,0-14.42-4.49q-8.91,0-15.93,7.39a18.46,18.46,0,0,0-4.71,12.31v.44q0,9.48,8.11,15.21a27,27,0,0,0,12.89,3.33,23.26,23.26,0,0,0,13.69-4.64,11.83,11.83,0,0,1,5.87-1.59q5.87,0,9.71,5.72a11.61,11.61,0,0,1,1.52,5.65q0,8-10.8,12.82a43.33,43.33,0,0,1-19.62,4.78h-1.16q-12.47,0-24.77-7.24a50.9,50.9,0,0,1-8.12-7.1,54.14,54.14,0,0,1-5.36-7.75q-4.71-9.78-4.7-18V293.2q0-9.06,5.43-19.19,2-3.84,7.46-9.42a44.77,44.77,0,0,1,30.13-12.53Z"/>
<path class="cls-1" d="M246.1,255.75h2.68q11.45,0,21.3,8.48a42.19,42.19,0,0,1,8,10.64,48.41,48.41,0,0,1,5,21.73q0,16.38-9.56,28.11-5.5,5.79-7.6,6.52a30.32,30.32,0,0,1-16.52,4.92H247.7A39,39,0,0,1,225.46,329q-1.52-.64-7-6.52A40.94,40.94,0,0,1,209.31,296,41.86,41.86,0,0,1,220,267.49q5.57-5.44,8-6.52A35.82,35.82,0,0,1,246.1,255.75Zm-14,40.27a17.78,17.78,0,0,0,5.72,13.69,16.86,16.86,0,0,0,10.72,3.7q7.83,0,10.79-9.71a26,26,0,0,0,1-6.66v-1q0-9.33-5.8-15.21a10.33,10.33,0,0,0-6.88-2.31q-10.14,0-14.27,10.28A26.43,26.43,0,0,0,232.05,296Z"/>
<path class="cls-1" d="M329.37,256.11q5.94,0,9.78,5.8a11.7,11.7,0,0,1,1.52,5.36q-.44,6.66-.43,11.37,0,22.68,6.3,32.23a5.18,5.18,0,0,0,4.34,2.39q4.06,0,7.39-6.52a49.57,49.57,0,0,0,3.77-9.56q2-5.58,3.91-19.26.65-5.81,1-11.59a11.72,11.72,0,0,1,3-6.16,11.47,11.47,0,0,1,8.33-3.62q5.58,0,9.49,5.36c1.25,1.5,1.88,4.73,1.88,9.71q1.59,49.39,1.6,53.3,0,5.94-5.73,9.71a11.7,11.7,0,0,1-5.72,1.52q-6.58,0-10.43-6.95h-.14a28,28,0,0,1-18.4,6.73q-14.42,0-23.54-13.11-9.78-14.77-9.78-44.18,0-13,1.38-15.64Q322.48,256.12,329.37,256.11Z"/>
<path class="cls-1" d="M465.8,256.48h2.68q8.26,0,16.59,6.3,6.81,5.58,6.81,11.08v.8q0,6.3-6.74,10.06a12.49,12.49,0,0,1-4.2.87h-.72q-5,0-9.56-5.14a6,6,0,0,0-3.63-1.23q-2.82,0-4.56,3c-1.21,1.55-2.48,4.37-3.84,8.47a117,117,0,0,0-3.91,31.44c.1,1.79.15,3,.15,3.55,0,1.83-.9,4-2.68,6.44q-3.76,4.07-8.33,4.06h-.8q-6.3,0-10.07-6.74-1.15-1.95-1.16-12.31-1.44-46.22-1.44-49.76,0-4.63,4.92-8.69a11.28,11.28,0,0,1,6.16-2h.5q5.14,0,9.06,4.85A26,26,0,0,1,465.8,256.48Z"/>
<path class="cls-1" d="M660,253.72h1.81q22.81,0,34.26,15.94a37.65,37.65,0,0,1,6.09,21.15q0,9.56-8.91,12.38,0,.44-42.52,1.6,1.66,3.54,6.52,6.81a12.8,12.8,0,0,0,6.73,1.74h1.31q9.48,0,15.14-4.79a11.76,11.76,0,0,1,5.5-1.59h.73q6.3,0,10.06,6.74a13.1,13.1,0,0,1,.87,4.27v.72q0,9.65-17.53,15.36a54.06,54.06,0,0,1-15.13,2.1q-15.8,0-26.3-10.21a42.45,42.45,0,0,1-7-8.48,52,52,0,0,1-8-22.52c-.15-1.55-.22-2.78-.22-3.7v-2.89a36.17,36.17,0,0,1,7.9-22.53Q641.46,253.73,660,253.72Zm-12.17,28.4h.07q3.4,0,28-.87V281q-4.5-4.56-15.07-4.56-10.29,0-12.82,5C648,281.46,647.89,281.68,647.84,282.12Z"/>
<path d="M119,416.8V382.15a6.43,6.43,0,0,1,6.25-6.45c34.05-.76,59.43,10.4,59.43,41.1,0,36.41-23.54,45.51-59.26,45.59a6.44,6.44,0,0,1-6.42-6.45Z"/>
<line class="cls-3" x1="102.14" y1="400.99" x2="119.89" y2="400.99"/>
<line class="cls-3" x1="102.14" y1="437.07" x2="119.89" y2="437.07"/>
<path class="cls-1" d="M675.56,361.76h-156a16.11,16.11,0,1,1,6.56-30.82c.89.39,3.53,1.25,4,1.44a98.6,98.6,0,0,0,25.2,3.77c1,0,2,0,3-.07l1.38-.07q18-.81,26.58-12.25,4.63-7.1,4.64-13.76v-1.3q-.74-15.36-23.69-22.6-17.1-4.85-20.57-7.17c1-1.21,3.36-1.91,7-2.1.53-.05,1.08-.07,1.66-.07a59.24,59.24,0,0,1,13,1.66q8.1,2.4,10.28,2.39h.15a14.17,14.17,0,0,0,5.21-1.44q5.8-3.92,5.8-9.71v-.58c-.25-4.54-2.68-7.94-7.32-10.21Q567,254,555.59,254c-.72,0-1.45,0-2.17.08l-1.45.07q-14.49.65-22.67,10.07-5.87,7.38-5.87,15.35V281q.72,16.08,25.79,23.47,15.35,4.41,18.18,6.3v.14c-1.55,1.45-4.61,2.27-9.2,2.47-.82,0-1.67.07-2.54.07A66.53,66.53,0,0,1,542.77,312a67,67,0,0,0-8.69-1.52h-.14c-.61,0-10-2-14.36-2a37.11,37.11,0,0,0,0,74.21h156a16.11,16.11,0,1,1,0,32.22h-526a10.5,10.5,0,0,0,0,21h526a37.11,37.11,0,1,0,0-74.22Z"/>
</g></svg>