<svg xmlns="http://www.w3.org/2000/svg" width="1315.9999957084656" height="329.8571400642395" style=""><rect id="backgroundrect" width="100%" height="100%" x="0" y="0" fill="none" stroke="none" style="" class=""/>
<defs><style>.cls-1{fill:#1d1d1b;}.cls-2{fill:#fff;}.cls-3{fill:none;stroke:#000;stroke-linecap:round;stroke-miterlimit:10;stroke-width:9px;}</style></defs>
<g class="currentLayer" style=""><title>Layer 1</title>
<path class="cls-1" d="M99.07487487792969,64.34431457519531 q12.680000305175781,0 27.450000762939453,6.440000057220459 c1,0.3400000035762787 2.3399999141693115,1.5499999523162842 4.130000114440918,3.619999885559082 a13.600000381469727,13.600000381469727 0 0 1 2.0999999046325684,4.929999828338623 a10,10 0 0 1 3,5.139999866485596 a58.790000915527344,58.790000915527344 0 0 1 0.7200000286102295,10.140000343322754 c0,2.609999895095825 0,5.71999979019165 -0.07000000029802322,9.350000381469727 q0.5799999833106995,27.219999313354492 0.5799999833106995,33.459999084472656 q0,16.59000015258789 -8.470000267028809,27.809999465942383 q-5.070000171661377,5.510000228881836 -7.099999904632568,6.449999809265137 a32.5099983215332,32.5099983215332 0 0 1 -17.75,5.139999866485596 h-1.0800000429153442 a36.689998626708984,36.689998626708984 0 0 1 -13.6899995803833,-2.5299999713897705 q-6.170000076293945,-3.700000047683716 -6.159999847412109,-10.140000343322754 t6.300000190734863,-10.140000343322754 a12.649999618530273,12.649999618530273 0 0 1 5.21999979019165,-1.159999966621399 c0.5299999713897705,0 2.75,0.3799999952316284 6.659999847412109,1.159999966621399 c1,0 1.809999942779541,0.07000000029802322 2.390000104904175,0.07000000029802322 q8,0 9.779999732971191,-8 a7.809999942779541,7.809999942779541 0 0 0 0.5099999904632568,-2.5399999618530273 h-0.07999999821186066 q-9.1899995803833,3.559999942779541 -16.219999313354492,3.549999952316284 h-2.9000000953674316 q-8.329999923706055,0 -17.309999465942383,-5.070000171661377 q-16,-10.710000038146973 -16,-33.459999084472656 q0,-19.40999984741211 9.420000076293945,-31.579999923706055 Q80.88487243652344,64.34431457519531 99.07487487792969,64.34431457519531 zm-15.279999732971191,44.400001525878906 q0,15.569999694824219 11.65999984741211,15.569999694824219 h0.9399999976158142 a20.190000534057617,20.190000534057617 0 0 0 12.3100004196167,-4.199999809265137 a21.40999984741211,21.40999984741211 0 0 0 3.119999885559082,-6.670000076293945 a51,51 0 0 0 1.7400000095367432,-11.65999984741211 q0,-4.559999942779541 -0.15000000596046448,-11.800000190734863 a42.720001220703125,42.720001220703125 0 0 0 -14.630000114440918,-2.9000000953674316 q-9.710000038146973,0 -12.529999732971191,7.320000171661377 A38.45000076293945,38.45000076293945 0 0 0 83.79487609863281,108.74432373046875 z" id="svg_1"/>
<path class="cls-1" d="M213.63734436035156,63.11431884765625 A71.72000122070312,71.72000122070312 0 0 1 239.2383270263672,68.22431945800781 q6.579999923706055,3.690000057220459 6.590000152587891,10.569999694824219 l-0.07000000029802322,1.090000033378601 q2.890000104904175,3 2.890000104904175,10 a27.8700008392334,27.8700008392334 0 0 1 0.15000000596046448,4.710000038146973 c0,3.0899999141693115 0,6.230000019073486 -0.07000000029802322,9.420000076293945 q0.5699999928474426,27.299999237060547 0.5799999833106995,30.93000030517578 c0,3.3299999237060547 -1.5800000429153442,6.300000190734863 -4.710000038146973,8.90999984741211 a11.84000015258789,11.84000015258789 0 0 1 -6.739999771118164,2.1700000762939453 a11.569999694824219,11.569999694824219 0 0 1 -8.619999885559082,-4 l-0.14000000059604645,-0.07000000029802322 q-10.359999656677246,5.150000095367432 -19.780000686645508,5.139999866485596 H207.33714294433594 a34.06999969482422,34.06999969482422 0 0 1 -20.93000030517578,-7.239999771118164 q-13.050000190734863,-11 -13,-31.139999389648438 q0,-23.110000610351562 13,-35.86000061035156 Q197.23680114746094,63.10432434082031 213.63734436035156,63.11431884765625 zM196.1067352294922,108.52432250976562 q0,11.520000457763672 6.090000152587891,14.630000114440918 a13.329999923706055,13.329999923706055 0 0 0 6,1.2300000190734863 h0.14000000059604645 a19.899999618530273,19.899999618530273 0 0 0 12.680000305175781,-4.269999980926514 a14.279999732971191,14.279999732971191 0 0 0 2.390000104904175,-4.349999904632568 a46,46 0 0 0 2.4600000381469727,-13.899999618530273 q0,-3 -0.14000000059604645,-14.199999809265137 a47,47 0 0 0 -12.25,-1.809999942779541 q-11.220000267028809,0 -14.770000457763672,8.180000305175781 A38.33000183105469,38.33000183105469 0 0 0 196.1067352294922,108.52432250976562 z" id="svg_2"/>
<path class="cls-1" d="M473.24156188964844,64.70431518554688 h1.809999942779541 q22.809999465942383,0 34.2599983215332,15.930000305175781 a37.66999816894531,37.66999816894531 0 0 1 6.090000152587891,21.149999618530273 q0,9.569999694824219 -8.90999984741211,12.390000343322754 q0,0.4399999976158142 -42.52000045776367,1.590000033378601 q1.659999966621399,3.559999942779541 6.519999980926514,6.809999942779541 a12.800000190734863,12.800000190734863 0 0 0 6.730000019073486,1.7400000095367432 h1.309999942779541 q9.479999542236328,0 15.140000343322754,-4.78000020980835 a11.760000228881836,11.760000228881836 0 0 1 5.5,-1.590000033378601 h0.7300000190734863 q6.300000190734863,0 10.0600004196167,6.730000019073486 a13.149999618530273,13.149999618530273 0 0 1 0.8700000047683716,4.269999980926514 v0.7300000190734863 q0,9.630000114440918 -17.530000686645508,15.350000381469727 a53.689998626708984,53.689998626708984 0 0 1 -15.130000114440918,2.0999999046325684 q-15.800000190734863,0 -26.299999237060547,-10.210000038146973 a42.439998626708984,42.439998626708984 0 0 1 -7,-8.470000267028809 a52.099998474121094,52.099998474121094 0 0 1 -8,-22.530000686645508 c-0.15000000596046448,-1.5399999618530273 -0.2199999988079071,-2.7699999809265137 -0.2199999988079071,-3.690000057220459 v-2.9000000953674316 a36.220001220703125,36.220001220703125 0 0 1 7.889999866485596,-22.530000686645508 Q454.7015838623047,64.70431518554688 473.24156188964844,64.70431518554688 zm-12.170000076293945,28.389999389648438 h0.07000000029802322 q3.4000000953674316,0 28,-0.8700000047683716 v-0.20999999344348907 q-4.5,-4.570000171661377 -15.069999694824219,-4.570000171661377 q-10.289999961853027,0 -12.819999694824219,5 C461.24156188964844,92.44432067871094 461.13157653808594,92.66432189941406 461.0815887451172,93.09431457519531 z" id="svg_3"/>
<path class="cls-1" d="M343.5515594482422,172.54432678222656 c-13.539999961853027,-0.09000000357627869 -16.389999389648438,-42.189998626708984 -17.15999984741211,-46.59000015258789 s-3.5399999618530273,-6.900000095367432 -7.510000228881836,-8.279999732971191 a19.290000915527344,19.290000915527344 0 0 0 -8.449999809265137,-0.6000000238418579 s-4.320000171661377,30.790000915527344 -14.239999771118164,30.790000915527344 c-10.949999809265137,0 -9.489999771118164,-41.31999969482422 -9.140000343322754,-44.25 s1.7200000286102295,-17 8.539999961853027,-23.729999542236328 s24.84000015258789,-7.929999828338623 24.84000015258789,-7.929999828338623 s-0.17000000178813934,-0.3499999940395355 1.559999942779541,-4.139999866485596 s21.559999465942383,-4 21.559999465942383,-4 h0.2199999988079071 s19.84000015258789,0.1899999976158142 21.56999969482422,4 s1.5499999523162842,4.139999866485596 1.5499999523162842,4.139999866485596 s18,1.2000000476837158 24.850000381469727,7.929999828338623 s8.1899995803833,20.790000915527344 8.539999961853027,23.729999542236328 s1.809999942779541,44.25 -9.149999618530273,44.25 c-9.920000076293945,0 -14.229999542236328,-30.790000915527344 -14.229999542236328,-30.790000915527344 a19.329999923706055,19.329999923706055 0 0 0 -8.460000038146973,0.6000000238418579 c-4,1.3799999952316284 -6.730000019073486,3.880000114440918 -7.5,8.279999732971191 s-3.630000114440918,46.5 -17.170000076293945,46.59000015258789 z" id="svg_4"/>
<circle class="cls-2" cx="343.65489196777344" cy="121.25431823730469" r="5.819999694824219" id="svg_5"/>
<path class="cls-1" d="M659.2213592529297,63.27606201171875 h0.800000011920929 q14.109999656677246,0 28.239999771118164,9.40999984741211 q5.300000190734863,3.9100000858306885 5.289999961853027,9.640000343322754 q0,6.21999979019165 -6.300000190734863,10.069999694824219 a13.510000228881836,13.510000228881836 0 0 1 -5.210000038146973,1.159999966621399 a13.180000305175781,13.180000305175781 0 0 1 -8,-3.119999885559082 a27.780000686645508,27.780000686645508 0 0 0 -14.420000076293945,-4.489999771118164 q-8.90999984741211,0 -15.930000305175781,7.389999866485596 a18.459999084472656,18.459999084472656 0 0 0 -4.710000038146973,12.3100004196167 v0.4399999976158142 q0,9.479999542236328 8.109999656677246,15.210000038146973 a27,27 0 0 0 12.890000343322754,3.3299999237060547 a23.260000228881836,23.260000228881836 0 0 0 13.6899995803833,-4.639999866485596 a11.829999923706055,11.829999923706055 0 0 1 5.869999885559082,-1.590000033378601 q5.869999885559082,0 9.710000038146973,5.71999979019165 a11.609999656677246,11.609999656677246 0 0 1 1.5199999809265137,5.650000095367432 q0,8 -10.800000190734863,12.819999694824219 a43.33000183105469,43.33000183105469 0 0 1 -19.6200008392334,4.78000020980835 h-1.159999966621399 q-12.470000267028809,0 -24.770000457763672,-7.239999771118164 a50.900001525878906,50.900001525878906 0 0 1 -8.119999885559082,-7.099999904632568 a54.13999938964844,54.13999938964844 0 0 1 -5.360000133514404,-7.75 q-4.710000038146973,-9.779999732971191 -4.699999809265137,-18 V104.41607666015625 q0,-9.0600004196167 5.429999828338623,-19.190000534057617 q2,-3.8399999141693115 7.460000038146973,-9.420000076293945 a44.77000045776367,44.77000045776367 0 0 1 30.1299991607666,-12.529999732971191 z" id="svg_6"/>
<path class="cls-1" d="M760.1613616943359,66.966064453125 h2.680000066757202 q11.449999809265137,0 21.299999237060547,8.479999542236328 a42.189998626708984,42.189998626708984 0 0 1 8,10.640000343322754 a48.40999984741211,48.40999984741211 0 0 1 5,21.729999542236328 q0,16.3799991607666 -9.5600004196167,28.110000610351562 q-5.5,5.789999961853027 -7.599999904632568,6.519999980926514 a30.31999969482422,30.31999969482422 0 0 1 -16.520000457763672,4.920000076293945 H761.7613372802734 A39,39 0 0 1 739.5213470458984,140.216064453125 q-1.5199999809265137,-0.6399999856948853 -7,-6.519999980926514 A40.939998626708984,40.939998626708984 0 0 1 723.3713836669922,107.216064453125 A41.86000061035156,41.86000061035156 0 0 1 734.0613250732422,78.7060546875 q5.570000171661377,-5.440000057220459 8,-6.519999980926514 A35.81999969482422,35.81999969482422 0 0 1 760.1613616943359,66.966064453125 zm-14,40.27000045776367 a17.780000686645508,17.780000686645508 0 0 0 5.71999979019165,13.6899995803833 a16.860000610351562,16.860000610351562 0 0 0 10.720000267028809,3.700000047683716 q7.829999923706055,0 10.789999961853027,-9.710000038146973 a26,26 0 0 0 1,-6.659999847412109 v-1 q0,-9.329999923706055 -5.800000190734863,-15.210000038146973 a10.329999923706055,10.329999923706055 0 0 0 -6.880000114440918,-2.309999942779541 q-10.140000343322754,0 -14.270000457763672,10.279999732971191 A26.43000030517578,26.43000030517578 0 0 0 746.1113739013672,107.216064453125 z" id="svg_7"/>
<path class="cls-1" d="M843.4313201904297,67.3260498046875 q5.940000057220459,0 9.779999732971191,5.800000190734863 a11.699999809265137,11.699999809265137 0 0 1 1.5199999809265137,5.360000133514404 q-0.4399999976158142,6.659999847412109 -0.4300000071525574,11.369999885559082 q0,22.68000030517578 6.300000190734863,32.22999954223633 a5.179999828338623,5.179999828338623 0 0 0 4.340000152587891,2.390000104904175 q4.059999942779541,0 7.389999866485596,-6.519999980926514 a49.56999969482422,49.56999969482422 0 0 0 3.7699999809265137,-9.5600004196167 q2,-5.579999923706055 3.9100000858306885,-19.260000228881836 q0.6499999761581421,-5.809999942779541 1,-11.59000015258789 a11.720000267028809,11.720000267028809 0 0 1 3,-6.159999847412109 a11.470000267028809,11.470000267028809 0 0 1 8.329999923706055,-3.619999885559082 q5.579999923706055,0 9.489999771118164,5.360000133514404 c1.25,1.5 1.8799999952316284,4.730000019073486 1.8799999952316284,9.710000038146973 q1.590000033378601,49.38999938964844 1.600000023841858,53.29999923706055 q0,5.940000057220459 -5.730000019073486,9.710000038146973 a11.699999809265137,11.699999809265137 0 0 1 -5.71999979019165,1.5199999809265137 q-6.579999923706055,0 -10.430000305175781,-6.949999809265137 h-0.14000000059604645 a28,28 0 0 1 -18.399999618530273,6.730000019073486 q-14.420000076293945,0 -23.540000915527344,-13.109999656677246 q-9.779999732971191,-14.770000457763672 -9.779999732971191,-44.18000030517578 q0,-13 1.3799999952316284,-15.640000343322754 Q836.5413665771484,67.3360595703125 843.4313201904297,67.3260498046875 z" id="svg_8"/>
<path class="cls-1" d="M979.8613739013672,67.69607543945312 h2.680000066757202 q8.260000228881836,0 16.59000015258789,6.300000190734863 q6.809999942779541,5.579999923706055 6.809999942779541,11.079999923706055 v0.800000011920929 q0,6.300000190734863 -6.739999771118164,10.0600004196167 a12.489999771118164,12.489999771118164 0 0 1 -4.199999809265137,0.8700000047683716 h-0.7200000286102295 q-5,0 -9.5600004196167,-5.139999866485596 a6,6 0 0 0 -3.630000114440918,-1.2300000190734863 q-2.819999933242798,0 -4.559999942779541,3 c-1.2100000381469727,1.5499999523162842 -2.4800000190734863,4.369999885559082 -3.8399999141693115,8.470000267028809 a117,117 0 0 0 -3.9100000858306885,31.440000534057617 c0.10000000149011612,1.7899999618530273 0.15000000596046448,3 0.15000000596046448,3.549999952316284 c0,1.8300000429153442 -0.8999999761581421,4 -2.680000066757202,6.440000057220459 q-3.759999990463257,4.070000171661377 -8.329999923706055,4.059999942779541 h-0.800000011920929 q-6.300000190734863,0 -10.069999694824219,-6.739999771118164 q-1.149999976158142,-1.9500000476837158 -1.159999966621399,-12.3100004196167 q-1.440000057220459,-46.220001220703125 -1.440000057220459,-49.7599983215332 q0,-4.630000114440918 4.920000076293945,-8.6899995803833 a11.279999732971191,11.279999732971191 0 0 1 6.159999847412109,-2 h0.5 q5.139999866485596,0 9.0600004196167,4.849999904632568 A26,26 0 0 1 979.8613739013672,67.69607543945312 z" id="svg_9"/>
<path class="cls-1" d="M1174.0613250732422,64.93606567382812 h1.809999942779541 q22.809999465942383,0 34.2599983215332,15.9399995803833 a37.650001525878906,37.650001525878906 0 0 1 6.090000152587891,21.149999618530273 q0,9.5600004196167 -8.90999984741211,12.380000114440918 q0,0.4399999976158142 -42.52000045776367,1.600000023841858 q1.659999966621399,3.5399999618530273 6.519999980926514,6.809999942779541 a12.800000190734863,12.800000190734863 0 0 0 6.730000019073486,1.7400000095367432 h1.309999942779541 q9.479999542236328,0 15.140000343322754,-4.789999961853027 a11.760000228881836,11.760000228881836 0 0 1 5.5,-1.590000033378601 h0.7300000190734863 q6.300000190734863,0 10.0600004196167,6.739999771118164 a13.100000381469727,13.100000381469727 0 0 1 0.8700000047683716,4.269999980926514 v0.7200000286102295 q0,9.649999618530273 -17.530000686645508,15.359999656677246 a54.060001373291016,54.060001373291016 0 0 1 -15.130000114440918,2.0999999046325684 q-15.800000190734863,0 -26.299999237060547,-10.210000038146973 a42.45000076293945,42.45000076293945 0 0 1 -7,-8.479999542236328 a52,52 0 0 1 -8,-22.520000457763672 c-0.15000000596046448,-1.5499999523162842 -0.2199999988079071,-2.7799999713897705 -0.2199999988079071,-3.700000047683716 v-2.890000104904175 a36.16999816894531,36.16999816894531 0 0 1 7.900000095367432,-22.530000686645508 Q1155.5214080810547,64.94606018066406 1174.0613250732422,64.93606567382812 zm-12.170000076293945,28.399999618530273 h0.07000000029802322 q3.4000000953674316,0 28,-0.8700000047683716 V92.216064453125 q-4.5,-4.559999942779541 -15.069999694824219,-4.559999942779541 q-10.289999961853027,0 -12.819999694824219,5 C1162.0613250732422,92.67605590820312 1161.9513397216797,92.89605712890625 1161.9012908935547,93.3360595703125 z" id="svg_10"/>



<path class="cls-1" d="M1189.6212615966797,172.97607421875 h-156 a16.110000610351562,16.110000610351562 0 1 1 6.559999942779541,-30.81999969482422 c0.8899999856948853,0.38999998569488525 3.5299999713897705,1.25 4,1.440000057220459 a98.5999984741211,98.5999984741211 0 0 0 25.200000762939453,3.7699999809265137 c1,0 2,0 3,-0.07000000029802322 l1.3799999952316284,-0.07000000029802322 q18,-0.8100000023841858 26.579999923706055,-12.25 q4.630000114440918,-7.099999904632568 4.639999866485596,-13.760000228881836 v-1.2999999523162842 q-0.7400000095367432,-15.359999656677246 -23.690000534057617,-22.600000381469727 q-17.100000381469727,-4.849999904632568 -20.56999969482422,-7.170000076293945 c1,-1.2100000381469727 3.359999895095825,-1.909999966621399 7,-2.0999999046325684 c0.5299999713897705,-0.05000000074505806 1.0800000429153442,-0.07000000029802322 1.659999966621399,-0.07000000029802322 a59.2400016784668,59.2400016784668 0 0 1 13,1.659999966621399 q8.100000381469727,2.4000000953674316 10.279999732971191,2.390000104904175 h0.15000000596046448 a14.170000076293945,14.170000076293945 0 0 0 5.210000038146973,-1.440000057220459 q5.800000190734863,-3.9200000762939453 5.800000190734863,-9.710000038146973 v-0.5799999833106995 c-0.25,-4.539999961853027 -2.680000066757202,-7.940000057220459 -7.320000171661377,-10.210000038146973 Q1081.0613250732422,65.216064453125 1069.6512908935547,65.216064453125 c-0.7200000286102295,0 -1.4500000476837158,0 -2.1700000762939453,0.07999999821186066 l-1.4500000476837158,0.07000000029802322 q-14.489999771118164,0.6499999761581421 -22.670000076293945,10.069999694824219 q-5.869999885559082,7.380000114440918 -5.869999885559082,15.350000381469727 V92.216064453125 q0.7200000286102295,16.079999923706055 25.790000915527344,23.469999313354492 q15.350000381469727,4.409999847412109 18.18000030517578,6.300000190734863 v0.14000000059604645 c-1.5499999523162842,1.4500000476837158 -4.610000133514404,2.2699999809265137 -9.199999809265137,2.4700000286102295 c-0.8199999928474426,0 -1.6699999570846558,0.07000000029802322 -2.5399999618530273,0.07000000029802322 A66.52999877929688,66.52999877929688 0 0 1 1056.8313446044922,123.216064453125 a67,67 0 0 0 -8.6899995803833,-1.5199999809265137 h-0.14000000059604645 c-0.6100000143051147,0 -10,-2 -14.359999656677246,-2 a37.11000061035156,37.11000061035156 0 0 0 0,74.20999908447266 h156 a16.110000610351562,16.110000610351562 0 1 1 0,32.220001220703125 h-526 a10.5,10.5 0 0 0 0,21 h526 a37.11000061035156,37.11000061035156 0 1 0 0,-74.22000122070312 z" id="svg_14"/><path d="M612.4592132568359,232.10105895996094 V197.45103454589844 a6.429999828338623,6.429999828338623 0 0 1 6.25,-6.449999809265137 c34.04999923706055,-0.7599999904632568 59.43000030517578,10.399999618530273 59.43000030517578,41.099998474121094 c0,36.40999984741211 -23.540000915527344,45.5099983215332 -59.2599983215332,45.59000015258789 a6.440000057220459,6.440000057220459 0 0 1 -6.420000076293945,-6.449999809265137 z" id="svg_11" class=""/><line class="cls-3" x1="595.5992279052734" y1="216.29107475280762" x2="613.3492279052734" y2="216.29107475280762" id="svg_12"/><line class="cls-3" x1="595.5992279052734" y1="252.37109184265137" x2="613.3492279052734" y2="252.37109184265137" id="svg_13"/>
<path fill="" fill-opacity="1" stroke="none" stroke-opacity="1" stroke-width="1" stroke-dasharray="none" stroke-linejoin="miter" stroke-linecap="butt" stroke-dashoffset="" fill-rule="nonzero" opacity="1" marker-start="" marker-mid="" marker-end="" d="M672.4465789794922,240.1844024658203 L409.58946228027344,238.75584411621094 " id="svg_15" class=""/><path fill="" fill-opacity="1" stroke="none" stroke-opacity="1" stroke-width="1" stroke-dasharray="none" stroke-linejoin="miter" stroke-linecap="butt" stroke-dashoffset="" fill-rule="nonzero" opacity="1" marker-start="" marker-mid="" marker-end="" d="M395.3037567138672,237.32725524902344 L603.8751678466797,330.1844024658203 " id="svg_18" class=""/><path fill="" fill-opacity="1" stroke="none" stroke-opacity="1" stroke-width="1" stroke-dasharray="none" stroke-linejoin="miter" stroke-linecap="butt" stroke-dashoffset="" fill-rule="nonzero" opacity="1" marker-start="" marker-mid="" marker-end="" d="M603.8751678466797,330.1844024658203 L478.16087341308594,327.32725524902344 " id="svg_20" class=""/><path fill="" fill-opacity="1" stroke="none" stroke-opacity="1" stroke-width="1" stroke-dasharray="none" stroke-linejoin="miter" stroke-linecap="butt" stroke-dashoffset="" fill-rule="nonzero" opacity="1" marker-start="" marker-mid="" marker-end="" d="M448.16087341308594,254.47010803222656 L776.7323455810547,250.1844024658203 " id="svg_16" class=""/><path fill="" fill-opacity="1" stroke="none" stroke-opacity="1" stroke-width="1" stroke-dasharray="none" stroke-linejoin="miter" stroke-linecap="butt" stroke-dashoffset="" fill-rule="nonzero" opacity="1" marker-start="" marker-mid="" marker-end="" d="M531.0180511474609,278.75584411621094 L535.3037567138672,245.89869689941406 " id="svg_21" class=""/><path fill="" fill-opacity="1" stroke="none" stroke-opacity="1" stroke-width="1" stroke-dasharray="none" stroke-linejoin="miter" stroke-linecap="butt" stroke-dashoffset="" fill-rule="nonzero" opacity="1" marker-start="" marker-mid="" marker-end="" d="M533.8751678466797,247.32725524902344 L712.4465789794922,258.75584411621094 " id="svg_23" class=""/><rect fill="" style="color: rgb(0, 0, 0);" stroke-dashoffset="" fill-rule="nonzero" id="svg_22" x="1003" y="313" width="0" height="2"/></g></svg>