<svg enable-background="new 0 0 26 26" version="1.1" xml:space="preserve" xmlns="http://www.w3.org/2000/svg" xmlns:xlink="http://www.w3.org/1999/xlink" width="47" height="47" style="">
<rect id="backgroundrect" width="100%" height="100%" x="0" y="0" fill="none" stroke="none" style="" class=""/>
<g class="currentLayer" style="">
<path d="M46.5,23.25 c0,-12.819854736328125 -10.42919921875,-23.25 -23.25,-23.25 S0,10.430145263671875 0,23.25 c0,6.555736541748047 2.7380905151367188,12.474903106689453 7.117687225341797,16.705615997314453 c0.10252765566110611,0.13351060450077057 0.22397616505622864,0.24171455204486847 0.36611929535865784,0.3328896164894104 C11.632450103759766,44.13027572631836 17.16291046142578,46.5 23.25,46.5 s11.617549896240234,-2.3697242736816406 15.766193389892578,-6.211494445800781 c0.1421433389186859,-0.09117507189512253 0.26359182596206665,-0.19937902688980103 0.36611929535865784,-0.3328896164894104 C43.76190948486328,35.72490310668945 46.5,29.805736541748047 46.5,23.25 zM23.25,2.90625 c11.21820068359375,0 20.34375,9.126495361328125 20.34375,20.34375 c0,4.756477355957031 -1.6532135009765625,9.127204895019531 -4.3986358642578125,12.595405578613281 c-1.2603683471679688,-4.064563751220703 -4.858531951904297,-7.246467590332031 -9.742015838623047,-8.710590362548828 c2.6613426208496094,-1.9260292053222656 4.402065277099609,-5.046440124511719 4.402065277099609,-8.572467803955078 c0,-5.839935302734375 -4.7567138671875,-10.590972900390625 -10.60516357421875,-10.590972900390625 s-10.60516357421875,4.75103759765625 -10.60516357421875,10.590972900390625 c0,3.5260276794433594 1.74072265625,6.6464385986328125 4.402065277099609,8.572467803955078 c-4.88348388671875,1.4641228914260864 -8.481647491455078,4.646026611328125 -9.742015838623047,8.710590362548828 C4.5594635009765625,32.37720489501953 2.90625,28.00647735595703 2.90625,23.25 C2.90625,12.032745361328125 12.03179931640625,2.90625 23.25,2.90625 zM15.55108642578125,18.562347412109375 c0,-4.237335205078125 3.45306396484375,-7.684722900390625 7.69891357421875,-7.684722900390625 s7.69891357421875,3.4473876953125 7.69891357421875,7.684722900390625 S27.495849609375,26.2470703125 23.25,26.2470703125 S15.55108642578125,22.7996826171875 15.55108642578125,18.562347412109375 zM9.747100830078125,38.424442291259766 C10.183937072753906,33.096435546875 15.833953857421875,29.1533203125 23.25,29.1533203125 s13.066062927246094,3.943115234375 13.502899169921875,9.271121978759766 C33.1566276550293,41.62822341918945 28.434207916259766,43.59375 23.25,43.59375 S13.343372344970703,41.62822341918945 9.747100830078125,38.424442291259766 z" fill="#484848" id="svg_1" class="" fill-opacity="1"/>
</g></svg>