<svg enable-background="new 0 0 26 26" version="1.1" xml:space="preserve" xmlns="http://www.w3.org/2000/svg" xmlns:xlink="http://www.w3.org/1999/xlink" width="26" height="26" style="">
<rect id="backgroundrect" width="100%" height="100%" x="0" y="0" fill="none" stroke="none"/>
<g class="currentLayer" style=""><title>Layer 1</title>
<path d="M25,13 c0,-6.61669921875 -5.3828125,-12 -12,-12 S1,6.38330078125 1,13 c0,3.38360595703125 1.4132080078125,6.43865966796875 3.67364501953125,8.62225341796875 c0.05291749909520149,0.0689086988568306 0.1156006008386612,0.12475589662790298 0.18896479904651642,0.1718139946460724 C7.00384521484375,23.77691650390625 9.8582763671875,25 13,25 s5.99615478515625,-1.22308349609375 8.13739013671875,-3.2059326171875 c0.07336430251598358,-0.0470581017434597 0.1360473930835724,-0.10290530323982239 0.18896479904651642,-0.1718139946460724 C23.5867919921875,19.43865966796875 25,16.38360595703125 25,13 zM13,2.5 c5.7900390625,0 10.5,4.71044921875 10.5,10.5 c0,2.4549560546875 -0.853271484375,4.7108154296875 -2.270263671875,6.5008544921875 c-0.6505126953125,-2.09783935546875 -2.50762939453125,-3.7401123046875 -5.02813720703125,-4.49578857421875 c1.37359619140625,-0.99407958984375 2.27203369140625,-2.6046142578125 2.27203369140625,-4.42449951171875 c0,-3.01416015625 -2.455078125,-5.46630859375 -5.4736328125,-5.46630859375 s-5.4736328125,2.4521484375 -5.4736328125,5.46630859375 c0,1.81988525390625 0.8984375,3.430419921875 2.27203369140625,4.42449951171875 c-2.5205078125,0.7556763291358948 -4.37762451171875,2.39794921875 -5.02813720703125,4.49578857421875 C3.353271484375,17.7108154296875 2.5,15.4549560546875 2.5,13 C2.5,7.21044921875 7.2099609375,2.5 13,2.5 zM9.0263671875,10.58056640625 c0,-2.18701171875 1.7822265625,-3.96630859375 3.9736328125,-3.96630859375 s3.9736328125,1.779296875 3.9736328125,3.96630859375 S15.19140625,14.546875 13,14.546875 S9.0263671875,12.767578125 9.0263671875,10.58056640625 zM6.03076171875,20.83197021484375 C6.2562255859375,18.08203125 9.17236328125,16.046875 13,16.046875 s6.7437744140625,2.03515625 6.96923828125,4.78509521484375 C18.11309814453125,22.48553466796875 15.67572021484375,23.5 13,23.5 S7.88690185546875,22.48553466796875 6.03076171875,20.83197021484375 z" fill="#484848" id="svg_1" class="" fill-opacity="1" stroke="#484848" stroke-opacity="1"/>
</g></svg>