<?xml version="1.0" encoding="UTF-8" standalone="no"?>
<svg
   xmlns:dc="http://purl.org/dc/elements/1.1/"
   xmlns:cc="http://creativecommons.org/ns#"
   xmlns:rdf="http://www.w3.org/1999/02/22-rdf-syntax-ns#"
   xmlns:svg="http://www.w3.org/2000/svg"
   xmlns="http://www.w3.org/2000/svg"
   width="32"
   height="32"
   viewBox="0 0 31.999999 31.999998"
   id="svg4221"
   version="1.1">
  <defs
     id="defs4223" />
  <metadata
     id="metadata4226">
    <rdf:RDF>
      <cc:Work
         rdf:about="">
        <dc:format>image/svg+xml</dc:format>
        <dc:type
           rdf:resource="http://purl.org/dc/dcmitype/StillImage" />
        <dc:title></dc:title>
      </cc:Work>
    </rdf:RDF>
  </metadata>
  <g
     id="layer1"
     transform="translate(0,-1020.3622)">
    <path
       style="fill:#8d7710;fill-opacity:1;fill-rule:evenodd;stroke:#000000;stroke-width:1px;stroke-linecap:butt;stroke-linejoin:miter;stroke-opacity:1"
       d="m 1.8099726,1051.369 28.2499974,0 c 0,0 1.24052,-6.3184 -1.5,-9 -2.263374,-2.2147 -8.249999,-2.5 -8.249999,-2.5 0,0 -0.625446,-3.2095 -0.25,-4.75 0.730839,-2.9985 4.063946,-7.3768 -0.5,-11.75 -2.287241,-2.1916 -7.184076,-1.9113 -9.499999,0.25 -3.209776,2.9955 -2.808634,9.0034 -0.2499999,11.25 1.2539659,1.1011 0.2499999,5 0.2499999,5 0,0 -5.6718207,0.9145 -7.2499995,3 -1.7214798,2.275 -0.9999999,8.5 -0.9999999,8.5 z"
       id="path4184-9" />
    <path
       style="fill:none;fill-rule:evenodd;stroke:#000000;stroke-width:1px;stroke-linecap:butt;stroke-linejoin:miter;stroke-opacity:1"
       d="m 25.68497,1050.994 -1.875,-5.75"
       id="path4194-8" />
    <path
       style="fill:none;fill-rule:evenodd;stroke:#000000;stroke-width:1px;stroke-linecap:butt;stroke-linejoin:miter;stroke-opacity:1"
       d="m 6.3099721,1050.994 2.4999997,-5.75"
       id="path4196-2" />
  </g>
</svg>
