<svg width="273" height="273" xmlns="http://www.w3.org/2000/svg">

 <g>
  <title>background</title>
  <rect fill="none" id="canvas_background" height="275" width="275" y="-1" x="-1"/>
 </g>
 <g>
  <title>Layer 1</title>
  <polygon id="svg_10" points="211.87532806396484,15.32278823852539 202.6620101928711,15.32278823852539 202.6620101928711,98.52064895629883 70.29825592041016,98.52064895629883 70.29825592041016,15.32278823852539 16.480140686035156,15.32278823852539 16.480140686035156,255.3227882385254 55.88439178466797,255.3227882385254 55.88439178466797,132.0438575744629 217.07585906982422,132.0438575744629 217.07585906982422,255.3227882385254 256.4801254272461,255.3227882385254 256.4801254272461,54.27052688598633 " fill="#484848"/>
  <path id="svg_11" fill="#484848" d="m192.660492,15.322788l-112.363747,0l0,73.197857l112.363747,0l0,-73.197857zm-16.511505,59.75787l-9.999969,0l0,-35.569073l9.999969,0l0,35.569073z"/>
  <path id="svg_12" fill="#484848" d="m65.882866,255.322784l141.191475,0l0,-113.278931l-141.191475,0l0,113.278931zm18.674133,-92.9104l103.842659,0l0,10l-103.842659,0l0,-10zm0,28.891205l103.842659,0l0,10l-103.842659,0l0,-10zm0,28.894409l103.842659,0l0,10l-103.842659,0l0,-10z"/>
 </g>
</svg>