<svg width="32" height="32" xmlns="http://www.w3.org/2000/svg">

 <title/>
 <g>
  <title>background</title>
  <rect fill="none" id="canvas_background" height="402" width="582" y="-1" x="-1"/>
 </g>
 <g>
  <title>Layer 1</title>
  <path fill="#484848" id="svg_1" d="m4,16a7,7 0 0 1 7,-7l8.360001,0l-1.52,0.39l-1.26,1.259999a2,2 0 1 0 2.83,2.83l5,-5a2,2 0 0 0 0,-2.829999l-5,-5a2,2 0 0 0 -2.83,2.83l1.17,1.17l1.549999,0.35l-8.299999,0a11,11 0 0 0 -8.22,18.309999a2,2 0 0 0 3,-2.66a7,7 0 0 1 -1.78,-4.65z" class="cls-1"/>
  <path fill="#484848" id="svg_2" d="m29.18,8.64a2,2 0 0 0 -3,2.679999a7,7 0 0 1 -5.18,11.68l-8,0l1.24,-0.42l1.16,-1.16a2,2 0 0 0 -2.83,-2.83l-5,5a2,2 0 0 0 0,2.83l5,5a2,2 0 0 0 2.83,-2.83l-1.219999,-1.219999l-1.18,-0.370001l8,0a11,11 0 0 0 8.18,-18.36z" class="cls-1"/>
 </g>
</svg>