<svg xmlns="http://www.w3.org/2000/svg" width="96" height="96" viewBox="0 0 96 96">
  <metadata><?xpacket begin="﻿" id="W5M0MpCehiHzreSzNTczkc9d"?>
<x:xmpmeta xmlns:x="adobe:ns:meta/" x:xmptk="Adobe XMP Core 5.6-c140 79.160451, 2017/05/06-01:08:21        ">
   <rdf:RDF xmlns:rdf="http://www.w3.org/1999/02/22-rdf-syntax-ns#">
      <rdf:Description rdf:about=""/>
   </rdf:RDF>
</x:xmpmeta>
                                                                                                    
                                                                                                    
                                                                                                    
                                                                                                    
                                                                                                    
                                                                                                    
                                                                                                    
                                                                                                    
                                                                                                    
                                                                                                    
                                                                                                    
                                                                                                    
                                                                                                    
                                                                                                    
                                                                                                    
                                                                                                    
                                                                                                    
                                                                                                    
                                                                                                    
                                                                                                    
                           
<?xpacket end="w"?></metadata>
<defs>
    <style>
      .cls-1 {
        fill: #383838;
        fill-rule: evenodd;
      }
    </style>
  </defs>
  <path class="cls-1" d="M50,1A48,48,0,1,1,2,49,48,48,0,0,1,50,1ZM22.084,26.063v20.91a3.011,3.011,0,0,0,0,1.349,4.689,4.689,0,0,0,.674,1.349l26.947,26.98A4.651,4.651,0,0,0,52.4,78a4.756,4.756,0,0,0,2.695-1.349L76.653,55.067A4.717,4.717,0,0,0,78,52.369a4.706,4.706,0,0,0-1.347-2.7L50.379,23.365s-0.78-.43-1.347-0.675a18.9,18.9,0,0,0-2.021-.675H26.126a3.646,3.646,0,0,0-3.368,1.349A3.58,3.58,0,0,0,22.084,26.063Zm9.435,0.686A4.722,4.722,0,1,1,26.8,31.47,4.721,4.721,0,0,1,31.519,26.749Z" transform="translate(-2 -1)"/>
</svg>
