<svg width="32" height="32" viewBox="0 0 32 32" fill="none" xmlns="http://www.w3.org/2000/svg">
<path d="M9.51929 2.85718H2.51929V9.85718H9.51929V2.85718Z" fill="#484848"/>
<path d="M9.51929 12.3572H2.51929V19.3572H9.51929V12.3572Z" fill="#484848"/>
<path d="M9.51929 22.3572H2.51929V29.3572H9.51929V22.3572Z" fill="#484848"/>
<path d="M19.8577 6.28137H12.8577V13.2814H19.8577V6.28137Z" fill="#484848"/>
<path d="M19.8135 17.8572H12.8135V24.8572H19.8135V17.8572Z" fill="#484848"/>
<path d="M30.3577 11.606H23.3577V18.606H30.3577V11.606Z" fill="#484848"/>
<path d="M8.89111 4.26172H11.0566V14.7358H9.02369" stroke="#484848"/>
<path d="M11.366 9.21143H13.0453" stroke="#484848"/>
<path d="M9.02368 17.0337H11.1892V27.5078H9.15626" stroke="#484848"/>
<path d="M11.4985 21.9834H13.1779" stroke="#484848"/>
<path d="M19.4094 10.272H21.5749V20.746H19.542" stroke="#484848"/>
<path d="M21.8843 15.2217H23.5637" stroke="#484848"/>
</svg>
