<svg width="25" height="15" xmlns="http://www.w3.org/2000/svg">

 <g>
  <title>background</title>
  <rect fill="none" id="canvas_background" height="17" width="27" y="-1" x="-1"/>
 </g>
 <g>
  <title>Layer 1</title>
  <path id="svg_2" fill="#484848" d="m24.30584,6.995133c-2.594721,-4.335946 -6.262691,-6.269541 -11.893541,-6.269541s-9.298832,1.933595 -11.893552,6.269541c-0.09028,0.15076 -0.10975,0.31897 -0.08851,0.48047c-0.02124,0.1615 -0.00177,0.32971 0.08851,0.48047c2.594719,4.335912 6.262692,6.26947 11.893552,6.26947s9.29882,-1.933558 11.893541,-6.26947c0.090279,-0.15076 0.109749,-0.31897 0.088509,-0.48047c0.02124,-0.1615 0.00177,-0.32971 -0.088509,-0.48047zm-11.893541,4.980446c-2.48145,0 -4.5,-2.018526 -4.5,-4.499976s2.01855,-4.500004 4.5,-4.500004s4.49999,2.018554 4.49999,4.500004s-2.01854,4.499976 -4.49999,4.499976zm-10.427192,-4.499976c1.30469,-2.09558 3.202342,-4.163703 7.019723,-4.932746c-1.56433,1.083994 -2.59253,2.889536 -2.59253,4.932746s1.0282,3.848736 2.59253,4.932709c-3.81738,-0.769027 -5.715033,-2.837129 -7.019723,-4.932709zm13.834657,4.932709c1.564325,-1.083973 2.592525,-2.889499 2.592525,-4.932709s-1.0282,-3.848752 -2.592525,-4.932746c3.817375,0.769043 5.715025,2.837166 7.019716,4.932746c-1.304691,2.09558 -3.202341,4.163682 -7.019716,4.932709z"/>
  <path id="svg_3" fill="#484848" d="m14.524598,6.606463l-0.1123,0.01367c-0.74805,0 -1.37012,-0.58887 -1.41504,-1.34082c-0.01269,-0.20019 -0.10449,-0.38769 -0.25586,-0.51953c-0.15234,-0.13184 -0.350579,-0.188479 -0.550779,-0.18262c-1.511721,0.11621 -2.695311,1.38965 -2.695311,2.89844c0,1.6084 1.30859,2.91699 2.91699,2.91699s2.91699,-1.30859 2.91699,-2.91699c0,-0.06055 -0.00586,-0.12012 -0.01465,-0.1748c-0.03027,-0.40821 -0.41308,-0.71875 -0.79004,-0.69434z"/>
 </g>
</svg>