<svg width="87" height="91" viewBox="0 0 87 91" fill="none" xmlns="http://www.w3.org/2000/svg">
<path d="M62.7523 9.73032C58.722 13.1274 55.0832 16.6988 51.859 20.286C46.5771 13.6766 40.0279 6.97214 32.6107 0.718262C13.5718 16.7657 0.0588379 37.6747 0.0588379 50.2846C0.0588379 72.6827 19.4912 90.8388 43.4614 90.8388C67.4316 90.8388 86.8639 72.6827 86.8639 50.2846C86.8639 40.9082 76.7922 21.5692 62.7523 9.73032ZM58.9797 69.6904C54.7829 72.3588 49.6075 73.9412 44.0155 73.9412C30.0357 73.9412 18.6599 65.5382 18.6599 51.8951C18.6599 45.0991 23.3703 39.111 32.7638 28.8809C34.1066 30.2856 51.9133 50.9429 51.9133 50.9429L63.2735 39.1709C64.0757 40.3766 64.8061 41.5559 65.4572 42.6859C70.7565 51.8722 68.5205 63.6266 58.9797 69.6904Z" fill="#666666"/>
</svg>
