<svg xmlns="http://www.w3.org/2000/svg" version="1.0" viewBox="0 0 512.000000 512.000000">
    <g transform="translate(0.000000,512.000000) scale(0.100000,-0.100000)" fill="currentColor" stroke="none">
        <path d="M2315 5109 c-884 -91 -1661 -631 -2049 -1423 -93 -188 -137 -308 -186 -500 -61 -240 -74 -355 -74 -626 0 -271 13 -386 74 -626 49 -192 93 -312 186 -500 247 -505 662 -920 1169 -1169 187 -92 307 -136 499 -185 238 -60 356 -74 621 -74 357 -1 625 48 935 171 593 234 1086 688 1364 1257 123 250 200 497 242 771 26 168 26 541 0 710 -23 151 -83 391 -131 521 -57 154 -176 389 -268 526 -416 623 -1037 1019 -1777 1133 -126 19 -477 28 -605 14z m436 -609 c469 -48 904 -262 1225 -603 657 -698 712 -1751 132 -2520 -80 -107 -271 -296 -378 -376 -783 -582 -1858 -505 -2546 183 -288 288 -472 640 -546 1046 -30 165 -30 495 0 660 56 308 182 598 367 845 78 104 268 295 372 373 399 301 888 441 1374 392z"/>
        <path d="M2377 4199 c-560 -65 -1052 -412 -1298 -914 -176 -362 -215 -776 -109 -1164 211 -769 962 -1283 1755 -1201 738 75 1324 622 1462 1363 21 115 24 417 5 527 -91 516 -379 932 -825 1188 -286 163 -661 240 -990 201z m283 -335 c16 -16 101 -175 190 -354 89 -179 163 -326 164 -326 0 -1 163 -25 361 -54 198 -28 374 -58 391 -65 61 -25 94 -96 79 -171 -7 -40 10 -22 -347 -372 l-206 -203 59 -342 c67 -380 70 -438 28 -483 -38 -40 -77 -57 -124 -52 -29 4 -143 58 -368 177 l-327 172 -324 -171 c-179 -94 -340 -174 -359 -177 -46 -7 -97 11 -130 45 -50 52 -49 74 19 469 l62 362 -207 203 c-356 350 -339 332 -346 372 -15 78 23 154 88 175 18 5 192 33 387 61 195 29 356 53 357 53 0 1 74 148 163 327 89 179 171 336 183 349 32 34 55 41 120 38 49 -3 63 -8 87 -33z"/>
        <path d="M2435 3173 c-97 -192 -126 -241 -150 -255 -19 -11 -123 -31 -280 -53 -138 -20 -252 -39 -254 -41 -3 -2 79 -85 182 -185 146 -141 189 -189 198 -219 10 -33 6 -73 -31 -289 -24 -138 -41 -253 -38 -256 2 -3 108 49 234 115 160 84 239 120 263 120 34 0 93 -28 360 -169 74 -39 137 -69 139 -66 3 3 -14 118 -38 256 -37 216 -41 257 -31 289 9 31 51 77 198 219 103 99 185 182 182 185 -2 2 -116 21 -254 41 -153 22 -262 43 -280 53 -24 14 -53 63 -150 255 -66 130 -122 237 -125 237 -3 0 -59 -107 -125 -237z"/>
    </g>
</svg>