<svg xmlns="http://www.w3.org/2000/svg" version="1.0" viewBox="0 0 512.000000 512.000000">

 <g transform="translate(0.000000,512.000000) scale(0.100000,-0.100000)" fill="currentColor" stroke="none">
  <path d="M3605 4951 c-91 -23 -173 -90 -215 -176 -20 -43 -25 -68 -28 -172 l-4 -123 -267 0 c-295 0 -338 -6 -442 -61 -70 -38 -157 -126 -193 -197 -56 -111 -56 -109 -56 -834 l0 -668 -319 0 -319 0 -4 123 c-4 116 -6 125 -38 185 -36 68 -78 109 -150 144 l-45 23 -565 0 -565 0 -50 -25 c-64 -31 -124 -91 -155 -155 l-25 -50 0 -405 c0 -400 0 -406 23 -450 35 -72 75 -114 144 -151 l63 -34 565 0 565 0 51 27 c76 40 107 70 144 140 32 60 34 69 38 186 l4 122 319 0 319 0 0 -668 c0 -725 0 -723 56 -834 36 -71 123 -159 193 -197 104 -55 147 -61 442 -61 l267 0 4 -122 c4 -100 9 -132 26 -168 34 -71 75 -113 144 -151 l63 -34 565 0 565 0 63 34 c70 38 100 69 140 145 l27 51 0 405 0 405 -34 63 c-37 69 -79 109 -151 144 l-45 23 -565 0 -565 0 -50 -25 c-64 -31 -124 -92 -155 -155 -20 -43 -25 -68 -28 -173 l-4 -123 -268 3 c-253 3 -270 4 -296 24 -15 11 -37 33 -48 48 -21 27 -21 39 -24 697 l-2 669 319 0 319 0 4 -122 c4 -100 9 -132 26 -168 34 -71 75 -113 144 -151 l63 -34 565 0 565 0 51 27 c76 40 107 70 145 140 l34 63 0 405 0 405 -34 63 c-37 69 -79 109 -151 144 l-45 23 -565 0 -565 0 -50 -25 c-64 -31 -124 -92 -155 -155 -20 -43 -25 -68 -28 -172 l-4 -123 -319 0 -319 0 2 669 c3 658 3 670 24 697 11 15 33 37 48 48 26 20 43 21 295 24 l269 3 4 -123 c4 -100 9 -132 26 -168 34 -71 75 -113 144 -151 l63 -34 565 0 565 0 63 34 c70 38 100 69 140 145 l27 51 0 405 0 405 -34 63 c-37 69 -79 109 -151 144 -45 23 -46 23 -590 25 -300 1 -558 -2 -575 -6z"/>
 </g>
</svg>