<svg xmlns="http://www.w3.org/2000/svg" viewBox="0 0 240 240" fill="none">
 <path d="M199.901 136.6H106.451H39.7002C25.0151 136.6 13 148.615 13 163.3C13 177.985 25.0151 190 39.7002 190H106.451H199.901C214.586 190 226.601 177.985 226.601 163.3C226.601 148.615 214.586 136.6 199.901 136.6V136.6ZM39.7002 176.65C32.3576 176.65 26.3501 170.643 26.3501 163.3C26.3501 155.958 32.3576 149.95 39.7002 149.95H106.451C113.793 149.95 119.801 155.958 119.801 163.3C119.801 170.643 113.793 176.65 106.451 176.65H39.7002Z" fill="currentColor"/>
 <path d="M67.6805 128L82.9426 85.616L68.361 49.2591H84.7896L93.4414 70.5483L100.441 49.2591H114.925L101.121 90.1849L116.48 128H100.149L90.5251 104.475L82.0677 128H67.6805ZM122.862 128V49.2591H149.304C154.034 49.2591 157.923 50.1664 160.969 51.981C164.015 53.7308 166.283 56.3231 167.774 59.7579C169.264 63.1279 170.009 67.2431 170.009 72.1037C170.009 78.1956 169.005 82.8617 166.996 86.1021C164.987 89.2776 162.265 91.4811 158.83 92.7124C155.395 93.9438 151.539 94.5594 147.262 94.5594H140.263V128H122.862ZM140.263 82.4081H146.096C148.234 82.4081 149.854 82.0192 150.956 81.2415C152.058 80.4638 152.771 79.2973 153.095 77.7419C153.484 76.1866 153.678 74.2099 153.678 71.8121C153.678 69.803 153.516 68.0532 153.192 66.5627C152.933 65.0073 152.252 63.776 151.151 62.8687C150.049 61.9614 148.331 61.5077 145.998 61.5077H140.263V82.4081Z" fill="currentColor"/>
</svg>