<svg width="55" height="46" xmlns="http://www.w3.org/2000/svg">

 <g>
  <title>background</title>
  <rect fill="none" id="canvas_background" height="48" width="57" y="-1" x="-1"/>
 </g>
 <g>
  <title>Layer 1</title>
  <rect id="svg_2" y="20.012833" x="15.652518" width="35" height="7" fill="#484848"/>
  <rect id="svg_3" y="2" x="15.652518" width="35" height="7" fill="#484848"/>
  <rect id="svg_4" y="37.433366" x="15.652518" width="35" height="7" fill="#484848"/>
  <path id="svg_5" fill="#484848" d="m8.652519,40.269001l0,-0.045002c1,-0.221001 1.5,-0.572998 1.914,-1.058998c0.414001,-0.487 0.679,-1.069 0.679,-1.748001c0,-0.787998 -0.292,-1.407001 -0.936,-1.855999s-1.518,-0.674 -2.65,-0.674c-0.784,0 -1.47,0.084999 -2.078,0.254997c-0.605,0.170002 -1.195,0.454002 -1.773,0.854l1.229,1.976002c0.749,-0.470001 1.473,-0.702999 2.172,-0.702999c0.375,0 0.673,0.069 0.895,0.209c0.223001,0.140999 0.333,0.218998 0.333,0.507999c0,0.768002 -0.75,1.015999 -2.253,1.015999l-0.532,0l0,3l0.517,0c0.554,0 1.003,-0.210999 1.347,-0.127998c0.344,0.081001 0.593,0.078999 0.749,0.238998c0.155,0.162003 0.231999,0.331001 0.231999,0.630001c0,0.389999 -0.148,0.645 -0.445,0.826c-0.296999,0.181999 -0.77,0.257999 -1.419,0.257999c-0.419,0 -0.949,-0.067001 -1.446,-0.185001c-0.496,-0.119999 -0.535,-0.306999 -1.535001,-0.550999l0,2.453999c1.000001,0.225002 1.199001,0.380001 1.700001,0.465c0.502,0.084003 1.083,0.127003 1.672,0.127003c1.431,0 2.569,-0.292 3.375,-0.875999c0.805,-0.584003 1.1,-1.385002 1.1,-2.402c0,-1.498001 -0.847,-2.362 -2.847,-2.59z"/>
  <path id="svg_6" fill="#484848" d="m7.652519,25.952999c1.094999,-1.088999 1.943999,-1.825998 2.316,-2.214998s0.639999,-0.76 0.863999,-1.112001c0.225,-0.351999 0.375,-0.709999 0.483001,-1.073999c0.106999,-0.364 0.153,-0.761 0.153,-1.190001c0,-0.573 -0.157001,-1.091 -0.463,-1.552999c-0.308,-0.461 -0.741,-0.816999 -1.298,-1.066999c-0.556,-0.25 -1.188999,-0.374001 -1.897999,-0.374001c-0.563,0 -1.073,0.056999 -1.524,0.172001c-0.452,0.115 -0.87,0.280998 -1.254,0.497999c-0.384,0.216999 -0.859,0.577 -1.422,1.082001l1.625,1.900999c0.443,-0.384001 0.842,-0.674 1.193,-0.872c0.353,-0.197001 0.701,-0.296 1.045,-0.296c0.334,0 0.593,0.083 0.778,0.247s0.277,0.389 0.277,0.674c0,0.229 -0.046,0.448999 -0.139,0.659c-0.092,0.209 -0.256001,0.459999 -0.49,0.751999c-0.234,0.292 -0.772,0.837 -1.536,1.635l-2.710001,2.702l0,1.478001l8.000001,0l0,-2l-4,0l0,-0.047001z"/>
  <path id="svg_7" fill="#484848" d="m6.678519,3.929c0.275,-0.245 0.668,-0.48 0.854,-0.704c-0.03,0.584 0.12,1.228 0.12,1.931l0,5.844l2,0l0,-11l-1.994,0l-3.757,3.064l1.534,1.888l1.243,-1.023z"/>
 </g>
</svg>