<svg width="32" height="32" xmlns="http://www.w3.org/2000/svg">

 <g>
  <title>background</title>
  <rect fill="none" id="canvas_background" height="402" width="582" y="-1" x="-1"/>
 </g>
 <g>
  <title>Layer 1</title>
  <circle id="svg_3" r="0.499999" fill="#484848" cy="3.5" cx="8.078662"/>
  <circle id="svg_4" r="0.5" fill="#484848" cy="3.5" cx="6.078662"/>
  <circle id="svg_5" r="0.5" fill="#484848" cy="3.5" cx="4.078662"/>
  <path id="svg_6" fill="#484848" d="m27.078659,6l-24.999997,0c-0.276,0 -0.5,-0.224 -0.5,-0.5s0.224,-0.5 0.5,-0.5l24.999997,0c0.275999,0 0.5,0.224 0.5,0.5s-0.224001,0.5 -0.5,0.5z"/>
  <path id="svg_7" fill="#484848" d="m26.078659,31l-22.999998,0c-0.826999,0 -1.499999,-0.673 -1.499999,-1.5l0,-27c0,-0.827 0.673,-1.5 1.499999,-1.5l22.999998,0c0.827,0 1.5,0.673 1.5,1.5l0,8c0,0.276 -0.224001,0.5 -0.5,0.5s-0.5,-0.224 -0.5,-0.5l0,-8c0,-0.275 -0.225,-0.5 -0.5,-0.5l-22.999998,0c-0.275,0 -0.5,0.225 -0.5,0.5l0,27c0,0.275 0.225,0.5 0.5,0.5l22.999998,0c0.275,0 0.5,-0.225 0.5,-0.5c0,-0.275999 0.224001,-0.5 0.5,-0.5s0.5,0.224001 0.5,0.5c0,0.827 -0.673,1.5 -1.5,1.5z"/>
  <path id="svg_10" fill="#484848" d="m6.078663,21l-1,0c-0.276,0 -0.5,-0.224001 -0.5,-0.5s0.224,-0.5 0.5,-0.5l1,0c0.276,0 0.5,0.224001 0.5,0.5s-0.224,0.5 -0.5,0.5z"/>
  <path id="svg_12" fill="#484848" d="m6.078663,27l-1,0c-0.276,0 -0.5,-0.224001 -0.5,-0.5s0.224,-0.5 0.5,-0.5l1,0c0.276,0 0.5,0.224001 0.5,0.5s-0.224,0.5 -0.5,0.5z"/>
  <path id="svg_14" fill="#484848" d="m6.078663,25l-1,0c-0.276,0 -0.5,-0.224001 -0.5,-0.5s0.224,-0.5 0.5,-0.5l1,0c0.276,0 0.5,0.224001 0.5,0.5s-0.224,0.5 -0.5,0.5z"/>
  <path id="svg_16" fill="#484848" d="m6.078663,23l-1,0c-0.276,0 -0.5,-0.224001 -0.5,-0.5s0.224,-0.5 0.5,-0.5l1,0c0.276,0 0.5,0.224001 0.5,0.5s-0.224,0.5 -0.5,0.5z"/>
  <path id="svg_18" fill="#484848" d="m15.078659,25l-6.999997,0c-0.275999,0 -0.499999,-0.224001 -0.499999,-0.5s0.224,-0.5 0.499999,-0.5l6.999997,0c0.276,0 0.5,0.224001 0.5,0.5s-0.224,0.5 -0.5,0.5z"/>
  <path id="svg_20" fill="#484848" d="m10.078659,27l-1.999997,0c-0.275999,0 -0.499999,-0.224001 -0.499999,-0.5s0.224,-0.5 0.499999,-0.5l1.999997,0c0.276,0 0.5,0.224001 0.5,0.5s-0.224,0.5 -0.5,0.5z"/>
  <path id="svg_22" fill="#484848" d="m17.078659,27l-2,0c-0.276,0 -0.5,-0.224001 -0.5,-0.5s0.224,-0.5 0.5,-0.5l2,0c0.275999,0 0.5,0.224001 0.5,0.5s-0.224001,0.5 -0.5,0.5z"/>
  <path id="svg_24" fill="#484848" d="m14.078659,23l-5.999997,0c-0.275999,0 -0.499999,-0.224001 -0.499999,-0.5s0.224,-0.5 0.499999,-0.5l5.999997,0c0.276,0 0.5,0.224001 0.5,0.5s-0.224,0.5 -0.5,0.5z"/>
  <path id="svg_26" fill="#484848" d="m13.078659,27l-1,0c-0.276,0 -0.5,-0.224001 -0.5,-0.5s0.224,-0.5 0.5,-0.5l1,0c0.276,0 0.5,0.224001 0.5,0.5s-0.224,0.5 -0.5,0.5z"/>
  <path id="svg_28" fill="#484848" d="m6.078663,19l-1,0c-0.276,0 -0.5,-0.224001 -0.5,-0.5s0.224,-0.5 0.5,-0.5l1,0c0.276,0 0.5,0.224001 0.5,0.5s-0.224,0.5 -0.5,0.5z"/>
  <path id="svg_30" fill="#484848" d="m6.078663,17l-1,0c-0.276,0 -0.5,-0.224001 -0.5,-0.5s0.224,-0.5 0.5,-0.5l1,0c0.276,0 0.5,0.224001 0.5,0.5s-0.224,0.5 -0.5,0.5z"/>
  <path id="svg_32" fill="#484848" d="m6.078663,15l-1,0c-0.276,0 -0.5,-0.224 -0.5,-0.5s0.224,-0.5 0.5,-0.5l1,0c0.276,0 0.5,0.224 0.5,0.5s-0.224,0.5 -0.5,0.5z"/>
  <path id="svg_34" fill="#484848" d="m10.078659,13l-1.999997,0c-0.275999,0 -0.499999,-0.224 -0.499999,-0.5s0.224,-0.5 0.499999,-0.5l1.999997,0c0.276,0 0.5,0.224 0.5,0.5s-0.224,0.5 -0.5,0.5z"/>
  <path id="svg_36" fill="#484848" d="m18.078659,13l-3,0c-0.276,0 -0.5,-0.224 -0.5,-0.5s0.224,-0.5 0.5,-0.5l3,0c0.275999,0 0.5,0.224 0.5,0.5s-0.224001,0.5 -0.5,0.5z"/>
  <path id="svg_38" fill="#484848" d="m24.078659,11l-5,0c-0.275999,0 -0.5,-0.224 -0.5,-0.5s0.224001,-0.5 0.5,-0.5l5,0c0.275999,0 0.5,0.224 0.5,0.5s-0.224001,0.5 -0.5,0.5z"/>
  <path id="svg_40" fill="#484848" d="m14.578659,17l-6.499997,0c-0.275999,0 -0.499999,-0.224001 -0.499999,-0.5s0.224,-0.5 0.499999,-0.5l6.499997,0c0.276,0 0.5,0.224001 0.5,0.5s-0.224,0.5 -0.5,0.5z"/>
  <path id="svg_42" fill="#484848" d="m12.078659,21l-3.999997,0c-0.275999,0 -0.499999,-0.224001 -0.499999,-0.5s0.224,-0.5 0.499999,-0.5l3.999997,0c0.276,0 0.5,0.224001 0.5,0.5s-0.224,0.5 -0.5,0.5z"/>
  <path id="svg_44" fill="#484848" d="m17.078659,11l-3,0c-0.276,0 -0.5,-0.224 -0.5,-0.5s0.224,-0.5 0.5,-0.5l3,0c0.275999,0 0.5,0.224 0.5,0.5s-0.224001,0.5 -0.5,0.5z"/>
  <path id="svg_46" fill="#484848" d="m10.078659,19l-1.999997,0c-0.275999,0 -0.499999,-0.224001 -0.499999,-0.5s0.224,-0.5 0.499999,-0.5l1.999997,0c0.276,0 0.5,0.224001 0.5,0.5s-0.224,0.5 -0.5,0.5z"/>
  <path id="svg_48" fill="#484848" d="m14.078659,21l0,0c-0.276,0 -0.5,-0.224001 -0.5,-0.5s0.224,-0.5 0.5,-0.5l0,0c0.276,0 0.5,0.224001 0.5,0.5s-0.224,0.5 -0.5,0.5z"/>
  <path id="svg_50" fill="#484848" d="m12.078659,11l-3.999997,0c-0.275999,0 -0.499999,-0.224 -0.499999,-0.5s0.224,-0.5 0.499999,-0.5l3.999997,0c0.276,0 0.5,0.224 0.5,0.5s-0.224,0.5 -0.5,0.5z"/>
  <path id="svg_52" fill="#484848" d="m6.078663,13l-1,0c-0.276,0 -0.5,-0.224 -0.5,-0.5s0.224,-0.5 0.5,-0.5l1,0c0.276,0 0.5,0.224 0.5,0.5s-0.224,0.5 -0.5,0.5z"/>
  <path id="svg_54" fill="#484848" d="m6.078663,11l-1,0c-0.276,0 -0.5,-0.224 -0.5,-0.5s0.224,-0.5 0.5,-0.5l1,0c0.276,0 0.5,0.224 0.5,0.5s-0.224,0.5 -0.5,0.5z"/>
  <path id="svg_56" fill="#484848" d="m6.078663,9l-1,0c-0.276,0 -0.5,-0.224 -0.5,-0.5s0.224,-0.5 0.5,-0.5l1,0c0.276,0 0.5,0.224 0.5,0.5s-0.224,0.5 -0.5,0.5z"/>
  <path id="svg_58" fill="#484848" d="m15.578659,15l-7.499997,0c-0.275999,0 -0.499999,-0.224 -0.499999,-0.5s0.224,-0.5 0.499999,-0.5l7.499997,0c0.276,0 0.5,0.224 0.5,0.5s-0.224,0.5 -0.5,0.5z"/>
  <path id="svg_60" fill="#484848" d="m14.078659,19l-2,0c-0.276,0 -0.5,-0.224001 -0.5,-0.5s0.224,-0.5 0.5,-0.5l2,0c0.276,0 0.5,0.224001 0.5,0.5s-0.224,0.5 -0.5,0.5z"/>
  <path id="svg_62" fill="#484848" d="m9.078659,9l-0.999997,0c-0.275999,0 -0.499999,-0.224 -0.499999,-0.5s0.224,-0.5 0.499999,-0.5l0.999997,0c0.276,0 0.5,0.224 0.5,0.5s-0.224,0.5 -0.5,0.5z"/>
  <path id="svg_64" fill="#484848" d="m13.078659,13l-1,0c-0.276,0 -0.5,-0.224 -0.5,-0.5s0.224,-0.5 0.5,-0.5l1,0c0.276,0 0.5,0.224 0.5,0.5s-0.224,0.5 -0.5,0.5z"/>
  <path id="svg_67" fill="#484848" d="m23.578659,28c-4.410999,0 -8,-3.589001 -8,-8s3.589001,-8 8,-8s8,3.589 8,8s-3.589001,8 -8,8zm0,-15c-3.858999,0 -7,3.141001 -7,7s3.141001,7 7,7s7,-3.141001 7,-7s-3.141001,-7 -7,-7z"/>
  <path id="svg_68" fill="#484848" d="m23.079659,23c-0.032999,0 -0.066,-0.003 -0.098999,-0.01c-0.271,-0.053999 -0.447001,-0.316999 -0.393,-0.587999l1,-5c0.054998,-0.272001 0.33,-0.449001 0.587999,-0.393c0.271,0.053999 0.447001,0.316999 0.393,0.587999l-1,5c-0.048,0.239 -0.256001,0.403 -0.489,0.403z"/>
  <path id="svg_69" fill="#484848" d="m26.078659,23c-0.128,0 -0.256001,-0.049 -0.354,-0.146c-0.195,-0.195 -0.195,-0.512001 0,-0.707001l2.146999,-2.146999l-2.146,-2.146c-0.195,-0.195 -0.195,-0.512001 0,-0.707001s0.512001,-0.195 0.707001,0l2.5,2.5c0.195,0.195 0.195,0.512001 0,0.707001l-2.5,2.5c-0.098,0.097 -0.226,0.146 -0.354,0.146z"/>
  <path id="svg_70" fill="#484848" d="m21.078659,23c-0.128,0 -0.256001,-0.049 -0.354,-0.146l-2.5,-2.5c-0.195,-0.195 -0.195,-0.512001 0,-0.707001l2.5,-2.5c0.195,-0.195 0.512001,-0.195 0.707001,0s0.195,0.512001 0,0.707001l-2.146,2.146l2.146,2.146c0.195,0.195 0.195,0.512001 0,0.707001c-0.097,0.098 -0.225,0.146999 -0.353001,0.146999z"/>
 </g>
</svg>