<svg enable-background="new 0 0 512 512" height="412.3333331346512" version="1.1" width="415.66666626930237" xml:space="preserve" xmlns="http://www.w3.org/2000/svg" xmlns:xlink="http://www.w3.org/1999/xlink" style=""><rect id="backgroundrect" width="100%" height="100%" x="0" y="0" fill="none" stroke="none" style="" class=""/><g class="currentLayer" style=""><title>Layer 1</title><path d="M308.747314453125,25.700000286102295 H275.1533203125 H143.51333618164062 h-33.595001220703125 H26.31233024597168 l7.2270002365112305,41.27199935913086 c7.760000228881836,44.32099914550781 41.8380012512207,78.1449966430664 84.52400207519531,86.65599822998047 c10.602999687194824,24.363000869750977 30.766000747680664,43.60499954223633 55.76599884033203,52.96900177001953 c1.0670000314712524,13.22700023651123 10.770000457763672,24.009000778198242 23.465999603271484,26.708999633789062 v56.7140007019043 c-13.133999824523926,2.8369998931884766 -23.038000106811523,14.331000328063965 -23.452999114990234,28.214000701904297 h-35.93000030517578 c-6.431000232696533,0 -11.645000457763672,5.214000225067139 -11.645000457763672,11.645000457763672 V401.2999777793884 h166.13099670410156 v-63.237998962402344 c0,-10.949999809265137 -8.876999855041504,-19.82699966430664 -19.82699966430664,-19.82699966430664 H244.82333374023438 c-0.414000004529953,-13.883000373840332 -10.317999839782715,-25.37700080871582 -23.45199966430664,-28.214000701904297 v-56.75699996948242 c12.574999809265137,-2.763000011444092 22.17099952697754,-13.463000297546387 23.264999389648438,-26.586999893188477 c25.0939998626709,-9.335000038146973 45.33599853515625,-28.618000030517578 55.96699905395508,-53.04800033569336 c42.6870002746582,-8.51099967956543 76.76399993896484,-42.33399963378906 84.52400207519531,-86.65599822998047 l7.2270002365112305,-41.27199935913086 H308.747314453125 zM246.96835327148438,369.3729758262634 c0,4.0229997634887695 -3.260999917984009,7.2829999923706055 -7.2829999923706055,7.2829999923706055 h-60.70399856567383 c-4.020999908447266,0 -7.2820000648498535,-3.259999990463257 -7.2820000648498535,-7.2829999923706055 v-20.57200050354004 c0,-4.020999908447266 3.260999917984009,-7.2829999923706055 7.2820000648498535,-7.2829999923706055 h60.70399856567383 c4.021999835968018,0 7.2829999923706055,3.26200008392334 7.2829999923706055,7.2829999923706055 V369.3729758262634 zM51.27033233642578,63.86800146102905 L47.73933410644531,43.69999837875366 h62.17900085449219 v70.71299743652344 c0,6.511000156402588 0.6370000243186951,12.873000144958496 1.843999981880188,19.030000686645508 C80.93132781982422,123.5279974937439 57.11833953857422,97.27499151229858 51.27033233642578,63.86800146102905 zM252.1883544921875,92.89700078964233 l-15.36400032043457,14.97700023651123 c-1.2970000505447388,1.2640000581741333 -1.8890000581741333,3.0850000381469727 -1.5829999446868896,4.870999813079834 l3.627000093460083,21.14699935913086 c0.7710000276565552,4.494999885559082 -3.946000099182129,7.921999931335449 -7.982999801635742,5.800000190734863 l-18.990999221801758,-9.984999656677246 c-1.6039999723434448,-0.8420000076293945 -3.5190000534057617,-0.8420000076293945 -5.120999813079834,0 l-18.992000579833984,9.984999656677246 c-4.035999774932861,2.121999979019165 -8.753999710083008,-1.305999994277954 -7.98199987411499,-5.800000190734863 l3.627000093460083,-21.14699935913086 c0.3059999942779541,-1.784999966621399 -0.28600001335144043,-3.6059999465942383 -1.5829999446868896,-4.870999813079834 l-15.36400032043457,-14.97700023651123 c-3.2660000324249268,-3.183000087738037 -1.4639999866485596,-8.729000091552734 3.0490000247955322,-9.385000228881836 l21.232999801635742,-3.0850000381469727 c1.7920000553131104,-0.25999999046325684 3.3420000076293945,-1.3860000371932983 4.144000053405762,-3.009999990463257 l9.496000289916992,-19.240999221801758 c2.0179998874664307,-4.089000225067139 7.849999904632568,-4.089000225067139 9.866999626159668,0 l9.496000289916992,19.240999221801758 c0.8019999861717224,1.6239999532699585 2.3519999980926514,2.75 4.14300012588501,3.009999990463257 l21.233999252319336,3.0850000381469727 C253.65234375,84.16799688339233 255.454345703125,89.71400213241577 252.1883544921875,92.89700078964233 zM367.39630126953125,63.86800146102905 c-5.848999977111816,33.40700149536133 -29.660999298095703,59.6609992980957 -60.49300003051758,69.57599639892578 c1.2070000171661377,-6.1579999923706055 1.843999981880188,-12.520000457763672 1.843999981880188,-19.0310001373291 V43.69999837875366 h62.18000030517578 L367.39630126953125,63.86800146102905 z" fill="#484848" id="svg_1" class="selected"/></g></svg>