<svg xmlns="http://www.w3.org/2000/svg" viewBox="0 0 512.000000 512.000000">

 <g transform="translate(0.000000,512.000000) scale(0.100000,-0.100000)" fill="currentColor" stroke="none">
  <path d="M955 5108 c-27 -5 -88 -27 -133 -49 -149 -72 -263 -217 -297 -376 -22 -102 -22 -4144 0 -4246 44 -208 230 -389 439 -426 41 -8 550 -11 1600 -11 1299 0 1552 3 1609 15 203 43 379 219 422 422 12 58 15 332 15 1770 l0 1702 -482 3 -483 3 -50 25 c-73 35 -147 114 -176 185 -23 60 -23 63 -27 528 l-3 467 -1192 -1 c-696 -1 -1213 -5 -1242 -11z m1964 -526 c108 -54 105 -209 -4 -262 -40 -20 -62 -20 -897 -20 l-855 0 -43 23 c-57 30 -83 77 -77 140 5 57 30 95 78 119 32 17 95 18 899 18 804 0 867 -1 899 -18z m-779 -464 c52 -36 73 -71 73 -121 0 -51 -25 -100 -66 -131 -28 -21 -38 -21 -506 -24 l-477 -3 -43 23 c-58 31 -84 77 -78 141 5 57 30 95 78 119 31 16 77 18 510 18 l476 0 33 -22z m1351 -512 c113 -29 218 -61 232 -71 30 -19 67 -89 67 -126 0 -13 -29 -118 -64 -232 -65 -213 -80 -243 -138 -273 -57 -30 -141 -7 -182 49 -12 17 -23 50 -26 82 l-5 54 -500 -276 c-1399 -772 -1346 -743 -1395 -743 -139 0 -202 163 -98 256 20 18 480 273 1600 888 l257 141 -32 13 c-123 52 -143 199 -38 269 50 33 90 29 322 -31z m516 -1042 c15 -11 38 -36 51 -54 l22 -33 -2 -921 -3 -921 -23 -33 c-48 -66 -51 -67 -412 -67 -324 0 -325 0 -363 24 -21 12 -46 40 -57 62 -19 37 -20 63 -20 938 0 613 3 909 11 928 6 15 20 39 32 52 46 49 59 51 409 48 314 -2 328 -3 355 -23z m-1084 -553 c21 -12 46 -40 57 -62 19 -37 20 -61 20 -664 0 -603 -1 -627 -20 -664 -11 -22 -36 -50 -57 -62 -38 -24 -39 -24 -363 -24 -361 0 -364 1 -412 67 l-23 33 -3 638 -2 639 22 39 c24 43 57 68 103 80 16 4 167 7 335 6 301 -2 305 -2 343 -26z m-1071 -603 c67 -51 68 -58 68 -423 0 -319 -1 -328 -22 -367 -12 -21 -38 -49 -58 -61 -34 -21 -43 -22 -360 -22 -361 0 -364 1 -412 67 -23 33 -23 36 -26 358 -2 179 0 339 3 357 7 40 49 91 90 109 23 11 100 13 356 11 l326 -2 35 -27z"/>
  <path d="M3500 1560 l0 -730 140 0 140 0 0 730 0 730 -140 0 -140 0 0 -730z"/>
  <path d="M2420 1285 l0 -455 140 0 140 0 0 455 0 455 -140 0 -140 0 0 -455z"/>
  <path d="M1340 985 l0 -155 140 0 140 0 0 155 0 155 -140 0 -140 0 0 -155z"/>
  <path d="M3700 4674 c0 -361 2 -444 14 -453 9 -8 136 -10 450 -9 l436 3 -450 450 -450 450 0 -441z"/>
 </g>
</svg>