<svg width="25" height="27" xmlns="http://www.w3.org/2000/svg">

 <g>
  <title>background</title>
  <rect fill="none" id="canvas_background" height="29" width="27" y="-1" x="-1"/>
 </g>
 <g>
  <title>Layer 1</title>
  <path id="svg_2" fill="#484848" d="m23.60145,15.516217c-0.11816,-0.30566 -0.28857,-0.525391 -0.460453,-0.720699c-0.251457,-0.244141 -0.519039,-0.417971 -0.820797,-0.525391c-1.18018,-0.8125 -1.968262,-1.768549 -2.407721,-2.92285c-0.00305,-0.007931 -0.009521,-0.01306 -0.013062,-0.02063l-1.317019,-3.418818c-0.80566,-2.103521 -2.401371,-3.773441 -4.490721,-4.699221c-1.352779,-0.60559 -2.800659,-0.828 -4.207819,-0.68048l-0.02313,-0.059751c-0.22168,-0.578119 -0.657711,-1.03613 -1.227051,-1.28906s-1.20215,-0.27051 -1.77832,-0.04785c-0.577639,0.222659 -1.03516,0.658199 -1.288568,1.22754c-0.252932,0.56934 -0.270021,1.200199 -0.047852,1.77832l0.019291,0.05023c-3.008,2.28394 -4.16516,6.268188 -2.80396,9.799379l1.32306,3.45502c0.000489,0.001282 0.000179,0.002691 0.000669,0.003971c0.4292,1.13184 0.48828,2.387699 0.17627,3.73242c-0.33936,0.55957 -0.4043,1.24707 -0.171391,1.852539c0.00198,0.005131 0.00397,0.01025 0.00598,0.01535c0.29112,0.73838 1.179529,1.04707 1.921061,0.764069l16.760319,-6.396368c0.758591,-0.28953 1.139462,-1.138651 0.851212,-1.897721l0,0zm-18.56933,-2.540039c-0.022461,0.00391 -0.044922,0.005859 -0.066891,0.005859c-0.164061,0 -0.310551,-0.116211 -0.34326,-0.283199c-0.07715,-0.400391 -0.12012,-0.80957 -0.12695,-1.217772c-0.00293,-0.193359 0.15088,-0.352539 0.34424,-0.355469c0.001949,0 0.00391,0 0.005859,0c0.190921,0 0.346681,0.15234 0.350101,0.34375c0.005859,0.367189 0.04443,0.73633 0.11426,1.09668c0.0366,0.189449 -0.08742,0.373051 -0.277359,0.410151zm2.879879,-6.856441c-0.46484,0.33008 -0.884769,0.720701 -1.248051,1.161131c-0.58984,0.716801 -1.025879,1.569339 -1.261229,2.465819c-0.041021,0.15723 -0.183111,0.26074 -0.338381,0.26074c-0.029301,0 -0.05908,-0.002932 -0.088869,-0.01074c-0.187011,-0.049801 -0.298831,-0.240231 -0.249511,-0.427731c0.260249,-0.99316 0.743649,-1.938479 1.39795,-2.733399c0.40234,-0.488279 0.86768,-0.9209 1.383789,-1.286129c0.15625,-0.113281 0.37549,-0.07617 0.487791,0.08301c0.11182,0.157219 0.074219,0.375969 -0.08349,0.487299z"/>
  <path id="svg_3" fill="#484848" d="m14.012218,21.506279l-0.653629,0.251339l-4.18738,1.610229l-0.653631,0.251282c0.29492,0.54974 0.75378,0.990108 1.34021,1.2467c0.367191,0.161129 0.755371,0.241207 1.144531,0.241207c0.34473,0 0.689939,-0.0625 1.02051,-0.19043l0.257811,-0.098629c0.703119,-0.270508 1.261719,-0.799801 1.57275,-1.488281c0.26265,-0.582878 0.30806,-1.217648 0.158829,-1.823418z"/>
 </g>
</svg>